<svg xmlns="http://www.w3.org/2000/svg" viewBox="0 0 1680.8 745.02"><defs><style>.cls-1,.cls-2,.cls-3{fill:none;stroke:#553c91;stroke-miterlimit:10;}.cls-1{stroke-width:3px;}.cls-2,.cls-3{stroke-linecap:square;}.cls-2{stroke-width:0.75px;}.cls-4{fill:#553c91;}</style></defs><title>instruzioni sito_4</title><g id="testo"><rect class="cls-1" x="1.5" y="232.3" width="430.28" height="304.27"/><rect class="cls-1" x="35.76" y="266.21" width="361.77" height="53.13"/><rect class="cls-1" x="35.76" y="429.01" width="361.77" height="53.13"/><rect class="cls-1" x="35.76" y="347.61" width="361.77" height="53.13"/><circle class="cls-2" cx="1241.23" cy="234.43" r="37"/><circle class="cls-2" cx="822.48" cy="309.18" r="148.25"/><line class="cls-2" x1="1204.23" y1="240.43" x2="970.73" y2="293.93"/><line class="cls-3" x1="755.73" y1="376.93" x2="908.73" y2="376.93"/><polygon class="cls-1" points="806.23 311.43 806.23 209.43 755.23 209.43 755.23 311.43 755.23 362.43 806.23 362.43 908.23 362.43 908.23 311.43 806.23 311.43"/><path class="cls-4" d="M796.43,3361.52a5,5,0,0,1,1.76,1.82v4.29a4.75,4.75,0,0,1-1.7,1.78,4.55,4.55,0,0,1-2.52.7H790.7v5.45h-2.1v-14.69H794A4.82,4.82,0,0,1,796.43,3361.52Zm-.3,5.42V3364a2.59,2.59,0,0,0-1.13-1.16,3.48,3.48,0,0,0-1.51-.35H790.7v5.92h2.79a3.16,3.16,0,0,0,1.57-.4A2.55,2.55,0,0,0,796.13,3366.94Z" transform="translate(-119.77 -3360.57)"/><path class="cls-4" d="M805.67,3360.57a5.72,5.72,0,0,1,3.42.95,5.62,5.62,0,0,1,1.89,2.24v8.89a6.16,6.16,0,0,1-8.73,2.24,5.46,5.46,0,0,1-1.89-2.24v-8.89a5.46,5.46,0,0,1,1.89-2.24A5.72,5.72,0,0,1,805.67,3360.57Zm0,13.61a3.57,3.57,0,0,0,2-.57,3.08,3.08,0,0,0,1.17-1.4v-8a3.05,3.05,0,0,0-1.17-1.41,3.94,3.94,0,0,0-4.08,0,3,3,0,0,0-1.17,1.41v8a3,3,0,0,0,1.17,1.4A3.57,3.57,0,0,0,805.67,3374.18Z" transform="translate(-119.77 -3360.57)"/><path class="cls-4" d="M815.35,3372.5a3.14,3.14,0,0,0,1.13,1.17,4,4,0,0,0,3.89,0,3.14,3.14,0,0,0,1.13-1.17v-1.85a2.83,2.83,0,0,0-.84-.92,5.23,5.23,0,0,0-1.64-.65l-1.44-.36a8.59,8.59,0,0,1-2.86-1.09,4.58,4.58,0,0,1-1.41-1.47v-2.82a5.66,5.66,0,0,1,1.81-1.93,5.81,5.81,0,0,1,3.32-.84,5.7,5.7,0,0,1,3.27.86,6,6,0,0,1,1.81,1.91v1.92h-2v-1.35a3.14,3.14,0,0,0-1.13-1.17,4,4,0,0,0-3.89,0,3,3,0,0,0-1.13,1.17v1.47a2.31,2.31,0,0,0,.84.86,6.32,6.32,0,0,0,1.7.67l1.39.38a9.81,9.81,0,0,1,2.85,1.11,4.87,4.87,0,0,1,1.39,1.48v3.19a5.68,5.68,0,0,1-1.81,1.93,5.48,5.48,0,0,1-3.27.86,5.78,5.78,0,0,1-3.3-.86,5.94,5.94,0,0,1-1.83-1.93V3371h2Z" transform="translate(-119.77 -3360.57)"/><path class="cls-4" d="M828.24,3375.56h-2.1v-14.69h2.1Z" transform="translate(-119.77 -3360.57)"/><path class="cls-4" d="M830.28,3360.87h10.08v1.66h-4v13h-2.1v-13h-4Z" transform="translate(-119.77 -3360.57)"/><path class="cls-4" d="M844.52,3375.56h-2.1v-14.69h2.1Z" transform="translate(-119.77 -3360.57)"/><path class="cls-4" d="M852.6,3360.57a5.72,5.72,0,0,1,3.42.95,5.46,5.46,0,0,1,1.89,2.24v8.89a5.46,5.46,0,0,1-1.89,2.24,5.9,5.9,0,0,1-8.73-2.24v-8.89a5.62,5.62,0,0,1,1.89-2.24A5.74,5.74,0,0,1,852.6,3360.57Zm0,13.61a3.57,3.57,0,0,0,2-.57,3,3,0,0,0,1.17-1.4v-8a3,3,0,0,0-1.17-1.41,3.57,3.57,0,0,0-2-.57,3.51,3.51,0,0,0-2,.57,3,3,0,0,0-1.18,1.41v8a3,3,0,0,0,1.18,1.4A3.51,3.51,0,0,0,852.6,3374.18Z" transform="translate(-119.77 -3360.57)"/><path class="cls-4" d="M869.21,3372.29h.36v-11.42h1.95v14.69h-2.64L863,3364.14h-.36v11.42h-1.95v-14.69h2.64Z" transform="translate(-119.77 -3360.57)"/><path class="cls-4" d="M885.61,3369.06H886l3.63-8.19h3v14.69h-2v-11.8h-.36l-3.71,8.28h-1.6l-3.72-8.28h-.35v11.8h-2v-14.69h3Z" transform="translate(-119.77 -3360.57)"/><path class="cls-4" d="M906.3,3375.56h-1.85l-1.24-4.11h-5.56l-1.24,4.11h-1.66v-1.28l4.18-13.41h3.17l4.2,13.41Zm-5.69-12.85h-.36l-2.12,7.08h4.6Z" transform="translate(-119.77 -3360.57)"/><path class="cls-4" d="M918.31,3375.56h-1.66l-3.76-5.92h-2.33v5.92h-2.1v-14.69H914a4.64,4.64,0,0,1,2.44.65,5,5,0,0,1,1.76,1.82v3.8a4.6,4.6,0,0,1-3.08,2.38l3.21,4.76Zm-4.79-7.58a3.09,3.09,0,0,0,1.58-.39,2.75,2.75,0,0,0,1.09-1.1V3364a2.72,2.72,0,0,0-1.09-1.14,3.4,3.4,0,0,0-1.58-.37h-3V3368Z" transform="translate(-119.77 -3360.57)"/><path class="cls-4" d="M930.76,3375.56h-1.51l-4.77-6.9-1.49,1.59v5.31h-2.1v-14.69H923v6.49h.32l6-6.49h1.32v1.28l-4.74,5.06,4.91,7.07Z" transform="translate(-119.77 -3360.57)"/><path class="cls-4" d="M934.31,3372.5a3.09,3.09,0,0,0,1.14,1.17,3.94,3.94,0,0,0,3.88,0,3.06,3.06,0,0,0,1.13-1.17v-1.85a2.91,2.91,0,0,0-.83-.92,5.34,5.34,0,0,0-1.64-.65l-1.45-.36a8.59,8.59,0,0,1-2.86-1.09,4.44,4.44,0,0,1-1.4-1.47v-2.82a5.53,5.53,0,0,1,1.8-1.93,5.81,5.81,0,0,1,3.32-.84,5.68,5.68,0,0,1,3.27.86,6,6,0,0,1,1.81,1.91v1.92h-2v-1.35a3.06,3.06,0,0,0-1.13-1.17,3.94,3.94,0,0,0-3.88,0,2.94,2.94,0,0,0-1.14,1.17v1.47a2.31,2.31,0,0,0,.84.86,6.47,6.47,0,0,0,1.7.67l1.39.38a9.69,9.69,0,0,1,2.85,1.11,4.87,4.87,0,0,1,1.39,1.48v3.19a5.68,5.68,0,0,1-1.81,1.93,5.46,5.46,0,0,1-3.27.86,5.49,5.49,0,0,1-5.12-2.79V3371h2Z" transform="translate(-119.77 -3360.57)"/><path class="cls-1" d="M1770.33,3611.93v-17.09H1360.86v285H1378v16.69h409.47V3611.93Zm-16.84,230.62H1394.8v-52.68h358.69Zm1.12-80.7H1395.92v-52.68h358.69Zm0-80.71H1395.92v-52.68h358.69Z" transform="translate(-119.77 -3360.57)"/><polygon class="cls-1" points="1241.07 535.94 1241.07 512.78 1229.48 512.78 1229.48 535.94 1229.48 547.53 1241.07 547.53 1264.23 547.53 1264.23 535.94 1241.07 535.94"/><polygon class="cls-1" points="1667.71 535.95 1667.71 512.78 1679.3 512.78 1679.3 535.95 1679.3 547.53 1667.71 547.53 1644.55 547.53 1644.55 535.95 1667.71 535.95"/><polygon class="cls-1" points="1667.71 234.24 1667.71 257.4 1679.29 257.4 1679.29 234.24 1679.29 222.65 1667.71 222.65 1644.55 222.65 1644.55 234.24 1667.71 234.24"/><polygon class="cls-1" points="1240.92 234.18 1240.92 257.35 1229.34 257.35 1229.34 234.18 1229.34 222.6 1240.92 222.6 1264.08 222.6 1264.08 234.18 1240.92 234.18"/><path class="cls-4" d="M123.82,3372.5a3.15,3.15,0,0,0,1.13,1.18,3.6,3.6,0,0,0,2,.5,3.55,3.55,0,0,0,1.93-.5,3.19,3.19,0,0,0,1.14-1.18v-1.85a3,3,0,0,0-.84-.92,5.34,5.34,0,0,0-1.64-.65l-1.45-.36a8.31,8.31,0,0,1-2.85-1.09,4.48,4.48,0,0,1-1.41-1.47v-2.81a5.66,5.66,0,0,1,1.8-1.94,5.83,5.83,0,0,1,3.32-.84,5.71,5.71,0,0,1,3.28.86,5.77,5.77,0,0,1,1.8,1.92v1.91h-2v-1.35a3.09,3.09,0,0,0-1.14-1.17,3.47,3.47,0,0,0-1.93-.51,3.52,3.52,0,0,0-2,.51,2.91,2.91,0,0,0-1.13,1.17v1.47a2.23,2.23,0,0,0,.84.86,5.88,5.88,0,0,0,1.7.67l1.38.38a9.58,9.58,0,0,1,2.86,1.12,4.69,4.69,0,0,1,1.38,1.47v3.19a5.64,5.64,0,0,1-1.8,1.93,5.49,5.49,0,0,1-3.28.86,5.75,5.75,0,0,1-3.29-.86,5.94,5.94,0,0,1-1.83-1.93V3371h2Z" transform="translate(-119.77 -3360.57)"/><path class="cls-4" d="M133.39,3360.87h10.08v1.66h-4v13h-2.1v-13h-4Z" transform="translate(-119.77 -3360.57)"/><path class="cls-4" d="M154.71,3375.56h-1.85l-1.24-4.11h-5.57l-1.23,4.11h-1.66v-1.28l4.18-13.41h3.17l4.2,13.41ZM149,3362.71h-.36l-2.12,7.08h4.6Z" transform="translate(-119.77 -3360.57)"/><path class="cls-4" d="M163.57,3369.06h.35l3.64-8.19h3v14.69h-2v-11.79h-.35l-3.72,8.27H162.9l-3.72-8.27h-.36v11.79h-1.95v-14.69h3Z" transform="translate(-119.77 -3360.57)"/><path class="cls-4" d="M181.44,3361.52a4.91,4.91,0,0,1,1.76,1.83v4.28a4.75,4.75,0,0,1-1.7,1.78,4.55,4.55,0,0,1-2.52.7h-3.27v5.45h-2.1v-14.69H179A4.82,4.82,0,0,1,181.44,3361.52Zm-.3,5.42V3364a2.59,2.59,0,0,0-1.13-1.16,3.48,3.48,0,0,0-1.51-.35h-2.79v5.92h2.79a3.14,3.14,0,0,0,1.57-.4A2.55,2.55,0,0,0,181.14,3366.94Z" transform="translate(-119.77 -3360.57)"/><path class="cls-4" d="M187.74,3375.56h-2.1v-14.69h2.1Z" transform="translate(-119.77 -3360.57)"/><path class="cls-4" d="M199.29,3372.29h.35v-11.42h2v14.69H199l-5.86-11.42h-.35v11.42h-2v-14.69h2.64Z" transform="translate(-119.77 -3360.57)"/><path class="cls-4" d="M212.92,3364.21a3,3,0,0,0-1.18-1.41,3.88,3.88,0,0,0-4.05,0,3.06,3.06,0,0,0-1.2,1.41v8a3.09,3.09,0,0,0,1.2,1.4,3.64,3.64,0,0,0,2.06.57,3.68,3.68,0,0,0,2.05-.55,3,3,0,0,0,1.16-1.36v-2.81H210v-1.66H215v5a5.38,5.38,0,0,1-1.84,2.17,5.84,5.84,0,0,1-3.4.92,5.55,5.55,0,0,1-5.32-3.21v-8.88a5.58,5.58,0,0,1,1.89-2.25,5.75,5.75,0,0,1,3.43-.95,5.67,5.67,0,0,1,3.37.93,5.55,5.55,0,0,1,1.87,2.14v2.18h-2Z" transform="translate(-119.77 -3360.57)"/><path class="cls-4" d="M230.18,3364.21a3,3,0,0,0-1.18-1.41,3.88,3.88,0,0,0-4.05,0,3.06,3.06,0,0,0-1.2,1.41v8a3.09,3.09,0,0,0,1.2,1.4,3.64,3.64,0,0,0,2.06.57,3.74,3.74,0,0,0,2.06-.55,3,3,0,0,0,1.15-1.36v-2.81h-2.94v-1.66h4.93v5a5.38,5.38,0,0,1-1.84,2.17,5.84,5.84,0,0,1-3.4.92,5.55,5.55,0,0,1-5.32-3.21v-8.88a5.58,5.58,0,0,1,1.89-2.25,5.77,5.77,0,0,1,3.43-.95,5.71,5.71,0,0,1,3.38.93,5.53,5.53,0,0,1,1.86,2.14v2.18h-2Z" transform="translate(-119.77 -3360.57)"/><path class="cls-4" d="M244.71,3375.56h-1.66l-3.76-5.92H237v5.92h-2.1v-14.69h5.52a4.64,4.64,0,0,1,2.44.65,4.91,4.91,0,0,1,1.76,1.83v3.8a4.4,4.4,0,0,1-1.26,1.51,4.32,4.32,0,0,1-1.82.86l3.21,4.76Zm-4.79-7.57a3.07,3.07,0,0,0,1.58-.4,2.75,2.75,0,0,0,1.09-1.1V3364a2.72,2.72,0,0,0-1.09-1.14,3.4,3.4,0,0,0-1.58-.37h-3V3368Z" transform="translate(-119.77 -3360.57)"/><path class="cls-4" d="M249.39,3375.56h-2.1v-14.69h2.1Z" transform="translate(-119.77 -3360.57)"/><path class="cls-4" d="M257.83,3375.56h-5.39v-14.69h5.39a5.47,5.47,0,0,1,3.18.84,4.88,4.88,0,0,1,1.76,2.06v8.9a4.86,4.86,0,0,1-1.76,2A5.47,5.47,0,0,1,257.83,3375.56Zm-.35-13h-2.94v11.38h2.94a3.82,3.82,0,0,0,2-.51,2.66,2.66,0,0,0,1.16-1.28v-7.81a2.89,2.89,0,0,0-1.16-1.3A4,4,0,0,0,257.48,3362.53Z" transform="translate(-119.77 -3360.57)"/><path class="cls-4" d="M921.58,3772.61V3760l-2.5,1.22v-1.72l3.27-2h1.22v15.11H926v1.63H919.1v-1.63Z" transform="translate(-119.77 -3360.57)"/><path class="cls-4" d="M930,3772.44v3.26a2.11,2.11,0,0,1-.53.79,1.38,1.38,0,0,1-1,.38h-.56v-1h.44a.47.47,0,0,0,.29-.09.81.81,0,0,0,.21-.29v-.93a1.39,1.39,0,0,1-.71-.19,1,1,0,0,1-.4-.46v-1.46a1,1,0,0,1,.4-.45,1.39,1.39,0,0,1,.71-.19,1.51,1.51,0,0,1,.74.19A1,1,0,0,1,930,3772.44Z" transform="translate(-119.77 -3360.57)"/><path class="cls-4" d="M941.46,3766.08v5.58a5.1,5.1,0,0,1-.88,1.31,5,5,0,0,1-1.6,1.12,5.25,5.25,0,0,1-7-2.43v-2.28h1.87v1.49a3,3,0,0,0,1.09,1.34,3.06,3.06,0,0,0,1.79.55,3.13,3.13,0,0,0,1.78-.55,2.75,2.75,0,0,0,1.07-1.34V3767a2.7,2.7,0,0,0-1.07-1.34,3.11,3.11,0,0,0-1.8-.55,2.86,2.86,0,0,0-1.62.43,3.4,3.4,0,0,0-1,1h-1.86v-9h9v1.91h-7.18v5.17a4.38,4.38,0,0,1,3.15-1.29,4.31,4.31,0,0,1,2.65.83A4.55,4.55,0,0,1,941.46,3766.08Z" transform="translate(-119.77 -3360.57)"/><path class="cls-4" d="M952.7,3761a4.74,4.74,0,0,1,3,.91,4.41,4.41,0,0,1,1.57,2v2.2h-1.82v-1.51a3,3,0,0,0-1-1.32,2.83,2.83,0,0,0-1.72-.52,2.71,2.71,0,0,0-1.68.52,2.91,2.91,0,0,0-1,1.32v6.29a2.78,2.78,0,0,0,1,1.31,2.66,2.66,0,0,0,1.68.53,2.79,2.79,0,0,0,1.74-.53,2.94,2.94,0,0,0,1-1.31v-1.51h1.82v2.2a4.9,4.9,0,0,1-1.57,2,4.63,4.63,0,0,1-3,.93,4.45,4.45,0,0,1-3-1,5.2,5.2,0,0,1-1.63-2.2v-7.19a5.2,5.2,0,0,1,1.63-2.2A4.51,4.51,0,0,1,952.7,3761Z" transform="translate(-119.77 -3360.57)"/><path class="cls-4" d="M973.9,3763.6v10.64H972V3764.1a2.1,2.1,0,0,0-2.08-1.24,2.43,2.43,0,0,0-1.28.31,2.62,2.62,0,0,0-.92.86v10.21h-2V3764.1a2.14,2.14,0,0,0-.72-.89,2.29,2.29,0,0,0-1.34-.35,2.55,2.55,0,0,0-1.3.31,2.41,2.41,0,0,0-.93.86v10.21h-1.93v-12.89h1.83v1a3.59,3.59,0,0,1,2.83-1.27,3.43,3.43,0,0,1,1.85.46,4,4,0,0,1,1.22,1.17,4.57,4.57,0,0,1,1.34-1.17,3.55,3.55,0,0,1,1.83-.46,3.32,3.32,0,0,1,2.31.77A4.6,4.6,0,0,1,973.9,3763.6Z" transform="translate(-119.77 -3360.57)"/><line class="cls-3" x1="820.73" y1="303.93" x2="820.73" y2="208.93"/><path class="cls-4" d="M963.58,3625.61V3613l-2.5,1.22v-1.72l3.27-2h1.22v15.11H968v1.63H961.1v-1.63Z" transform="translate(-119.77 -3360.57)"/><path class="cls-4" d="M979,3614a4.72,4.72,0,0,1,3,.91,4.41,4.41,0,0,1,1.57,2v2.2h-1.82v-1.51a3,3,0,0,0-1-1.32,2.83,2.83,0,0,0-1.72-.52,2.71,2.71,0,0,0-1.68.52,3,3,0,0,0-1,1.32v6.29a2.85,2.85,0,0,0,1,1.31,2.66,2.66,0,0,0,1.68.53,2.79,2.79,0,0,0,1.74-.53,2.94,2.94,0,0,0,1-1.31v-1.51h1.82v2.2a4.9,4.9,0,0,1-1.57,2,4.62,4.62,0,0,1-3,.93,4.41,4.41,0,0,1-3-1,5.14,5.14,0,0,1-1.64-2.2v-7.19A5.14,5.14,0,0,1,976,3615,4.47,4.47,0,0,1,979,3614Z" transform="translate(-119.77 -3360.57)"/><path class="cls-4" d="M1000.16,3616.6v10.64h-1.94V3617.1a2.09,2.09,0,0,0-2.07-1.24,2.44,2.44,0,0,0-1.29.31,2.62,2.62,0,0,0-.92.86v10.21h-2V3617.1a2.14,2.14,0,0,0-.72-.89,2.29,2.29,0,0,0-1.34-.35,2.55,2.55,0,0,0-1.3.31,2.38,2.38,0,0,0-.92.86v10.21h-1.94v-12.89h1.83v1a3.59,3.59,0,0,1,2.83-1.27,3.43,3.43,0,0,1,1.85.46,4,4,0,0,1,1.22,1.17,4.57,4.57,0,0,1,1.34-1.17,3.55,3.55,0,0,1,1.83-.46,3.32,3.32,0,0,1,2.31.77A4.63,4.63,0,0,1,1000.16,3616.6Z" transform="translate(-119.77 -3360.57)"/><polygon class="cls-1" points="897.73 647.93 947.73 676.93 999.73 647.93 1028.73 664.93 1028.73 696.93 947.73 742.93 866.73 696.93 866.73 666.93 897.73 647.93"/><polyline class="cls-1" points="866.73 666.93 947.73 712.93 1028.73 666.85"/><line class="cls-1" x1="947.73" y1="712.93" x2="947.73" y2="742.93"/><polygon class="cls-1" points="710.47 648.3 760.47 677.3 812.47 648.3 841.47 665.3 841.47 697.3 760.47 743.3 679.47 697.3 679.47 667.3 710.47 648.3"/><polyline class="cls-1" points="679.47 667.3 760.47 713.3 841.47 667.22"/><line class="cls-1" x1="760.47" y1="713.3" x2="760.47" y2="743.3"/><polygon class="cls-1" points="898.1 531.11 948.1 560.11 1000.1 531.11 1029.1 548.11 1029.1 580.11 948.1 626.11 867.1 580.11 867.1 550.11 898.1 531.11"/><polyline class="cls-1" points="867.1 550.11 948.1 596.11 1029.1 550.04"/><line class="cls-1" x1="948.1" y1="596.11" x2="948.1" y2="626.11"/><polygon class="cls-1" points="710.84 531.48 760.84 560.48 812.84 531.48 841.84 548.48 841.84 580.48 760.84 626.48 679.84 580.48 679.84 550.48 710.84 531.48"/><polyline class="cls-1" points="679.84 550.48 760.84 596.48 841.84 550.41"/><line class="cls-1" x1="760.83" y1="596.48" x2="760.83" y2="626.48"/></g></svg>