<svg xmlns="http://www.w3.org/2000/svg" viewBox="0 0 1638.01 921.77"><defs><style>.cls-1,.cls-10,.cls-2,.cls-4,.cls-5,.cls-6,.cls-7,.cls-8,.cls-9{fill:none;}.cls-1,.cls-10,.cls-2,.cls-3,.cls-4,.cls-5,.cls-6,.cls-7,.cls-8,.cls-9{stroke:#ffeb00;}.cls-1,.cls-3{stroke-miterlimit:10;}.cls-1,.cls-2{stroke-width:3px;}.cls-10,.cls-2,.cls-4,.cls-5,.cls-6,.cls-8,.cls-9{stroke-linecap:round;stroke-linejoin:round;}.cls-11,.cls-12,.cls-3{fill:#ffeb00;}.cls-3{stroke-width:0.5px;}.cls-10,.cls-4,.cls-5,.cls-6,.cls-8,.cls-9{stroke-width:1.5px;}.cls-5{stroke-dasharray:11.27 11.27;}.cls-6{stroke-dasharray:11.86 11.86;}.cls-7{stroke-width:2px;}.cls-8{stroke-dasharray:11.8 11.8;}.cls-9{stroke-dasharray:12.02 12.02;}.cls-10{stroke-dasharray:12.08 12.08;}.cls-12{font-size:48px;font-family:Trim-Regular, Trim;}</style></defs><title>instruzioni sito_3</title><g id="Livello_2" data-name="Livello 2"><rect class="cls-1" x="1.5" y="447.87" width="419.94" height="296.96"/><rect class="cls-1" x="4.01" y="54.53" width="419.94" height="296.96"/><line class="cls-2" x1="747.73" y1="789.68" x2="747.73" y2="749.04"/><line class="cls-2" x1="929.28" y1="894.49" x2="929.28" y2="853.85"/><line class="cls-2" x1="929.45" y1="853.85" x2="1369.42" y2="599.74"/><line class="cls-2" x1="929.28" y1="853.85" x2="747.73" y2="749.04"/><line class="cls-2" x1="929.28" y1="894.49" x2="1369.42" y2="640.38"/><line class="cls-2" x1="929.28" y1="894.49" x2="747.73" y2="789.68"/><line class="cls-2" x1="1369.42" y1="640.38" x2="1369.42" y2="599.74"/><line class="cls-2" x1="774.38" y1="846.53" x2="774.38" y2="805.06"/><line class="cls-2" x1="902.12" y1="920.27" x2="902.12" y2="879.91"/><line class="cls-2" x1="902.12" y1="920.27" x2="774.38" y2="846.53"/><line class="cls-2" x1="1369.42" y1="599.74" x2="1187.87" y2="494.92"/><line class="cls-2" x1="747.73" y1="749.04" x2="1187.87" y2="494.92"/><line class="cls-2" x1="902.12" y1="920.27" x2="1342.73" y2="665.88"/><line class="cls-2" x1="1342.73" y1="665.88" x2="1342.73" y2="656.23"/><path class="cls-3" d="M1203.65,2555.09H1209V2560l-29.67,29.67h-5L1144.67,2560v-4.87H1150l22.69,23v-58.24h8.08v58.24Z" transform="translate(-119.58 -2250.47)"/><path class="cls-3" d="M1203.65,2862.69H1209v4.87l-29.67,29.67h-5l-29.58-29.67v-4.87H1150l22.69,23v-58.24h8.08v58.24Z" transform="translate(-119.58 -2250.47)"/></g><g id="testo"><line class="cls-4" x1="1211.23" y1="441.24" x2="1211.23" y2="447.24"/><line class="cls-5" x1="1211.23" y1="458.52" x2="1211.23" y2="520.52"/><line class="cls-4" x1="1211.23" y1="526.15" x2="1211.23" y2="532.15"/><line class="cls-4" x1="1211.23" y1="138.71" x2="1211.23" y2="144.71"/><line class="cls-6" x1="1211.23" y1="156.57" x2="1211.23" y2="292.97"/><line class="cls-4" x1="1211.23" y1="298.9" x2="1211.23" y2="304.9"/><path class="cls-7" d="M132.14,2353.73v-37.07h19v8.1h-9v6.3h8.58v8.11H142.1v14.56Z" transform="translate(-119.58 -2250.47)"/><path class="cls-7" d="M152.74,2322c1-2.55,4.93-6.1,12-6.1s11,3.61,12,6.1v26.37c-1,2.49-4.82,6.09-12,6.09s-11-3.55-12-6.09Zm14,3.33a2.44,2.44,0,0,0-4,0v19.76a2.52,2.52,0,0,0,4,0Z" transform="translate(-119.58 -2250.47)"/><path class="cls-7" d="M179,2316.66h14.61c3.76,0,7.42,1.9,9.06,4.92V2335a8.9,8.9,0,0,1-3.12,3.39l3.23,8.9v6.46h-8.58l-4.08-13.4h-1.17v13.4H179Zm12.23,15.83a2,2,0,0,0,2-1.06v-5.72a1.88,1.88,0,0,0-2-1.06h-2.28v7.84Z" transform="translate(-119.58 -2250.47)"/><path class="cls-7" d="M204.85,2316.66h10V2345a2,2,0,0,0,2,1,2,2,0,0,0,2-1v-28.33h10v31.67c-1.06,2.59-4.82,6.09-12,6.09s-10.86-3.5-11.92-6.09Z" transform="translate(-119.58 -2250.47)"/><path class="cls-7" d="M231,2340.86h9.42v4.4a2.1,2.1,0,0,0,2,1.06,2.16,2.16,0,0,0,2.06-1.06v-4.61c-.26-.69-1.06-1-3.55-1.8-6.19-1.64-8.68-3.39-9.95-5.88v-11.81c1.64-2.7,5.24-5.25,11.44-5.25s9.85,2.55,11.49,5.25v8.1h-9.43v-4.13a2.49,2.49,0,0,0-4.08,0v4c.27.64,1.12,1,3.61,1.8a30.26,30.26,0,0,1,6.83,2.81,7.94,7.94,0,0,1,3.07,3.18v12.34c-1.64,2.7-5.3,5.24-11.49,5.24s-9.91-2.54-11.44-5.24Z" transform="translate(-119.58 -2250.47)"/><path class="cls-7" d="M256.23,2353.73v-37.07h19.54v8.1h-9.59v6.14h9.11v7.89h-9.11v6.84h9.75v8.1Z" transform="translate(-119.58 -2250.47)"/><path class="cls-7" d="M278.05,2353.73v-37.07H288v29h8.26v8.1Z" transform="translate(-119.58 -2250.47)"/><path class="cls-7" d="M298.28,2353.73v-37.07h19.54v8.1h-9.59v6.14h9.11v7.89h-9.11v6.84H318v8.1Z" transform="translate(-119.58 -2250.47)"/><path class="cls-7" d="M319.94,2340.86h9.42v4.4a2.1,2.1,0,0,0,2,1.06,2.16,2.16,0,0,0,2.06-1.06v-4.61c-.26-.69-1.06-1-3.55-1.8-6.19-1.64-8.68-3.39-9.95-5.88v-11.81c1.64-2.7,5.24-5.25,11.44-5.25s9.85,2.55,11.49,5.25v8.1h-9.43v-4.13a2.49,2.49,0,0,0-4.08,0v4c.27.64,1.12,1,3.61,1.8a30.26,30.26,0,0,1,6.83,2.81,7.94,7.94,0,0,1,3.07,3.18v12.34c-1.64,2.7-5.3,5.24-11.49,5.24s-9.91-2.54-11.44-5.24Z" transform="translate(-119.58 -2250.47)"/><path class="cls-7" d="M345,2340.86h9.42v4.4a2.1,2.1,0,0,0,2,1.06,2.16,2.16,0,0,0,2.06-1.06v-4.61c-.26-.69-1.06-1-3.55-1.8-6.19-1.64-8.68-3.39-9.95-5.88v-11.81c1.64-2.7,5.24-5.25,11.44-5.25s9.85,2.55,11.49,5.25v8.1h-9.43v-4.13a2.49,2.49,0,0,0-4.08,0v4c.27.64,1.12,1,3.61,1.8a30.26,30.26,0,0,1,6.83,2.81,7.94,7.94,0,0,1,3.07,3.18v12.34c-1.64,2.7-5.3,5.24-11.49,5.24s-9.91-2.54-11.44-5.24Z" transform="translate(-119.58 -2250.47)"/><path class="cls-7" d="M370.2,2353.73v-37.07h19v8.1h-9v6.3h8.58v8.11h-8.58v14.56Z" transform="translate(-119.58 -2250.47)"/><path class="cls-7" d="M391.27,2316.66h10V2345a2,2,0,0,0,2,1,2,2,0,0,0,2-1v-28.33h10v31.67c-1.06,2.59-4.82,6.09-12,6.09s-10.86-3.5-11.92-6.09Z" transform="translate(-119.58 -2250.47)"/><path class="cls-7" d="M423,2353.73v-29h-6v-8.1h22v8.1h-6v29Z" transform="translate(-119.58 -2250.47)"/><path class="cls-7" d="M440.85,2316.66h9.95V2345a2,2,0,0,0,2,1,2,2,0,0,0,2-1v-28.33h10v31.67c-1.06,2.59-4.82,6.09-12,6.09s-10.86-3.5-11.91-6.09Z" transform="translate(-119.58 -2250.47)"/><path class="cls-7" d="M467.17,2316.66h14.61c3.76,0,7.42,1.9,9.06,4.92V2335a8.9,8.9,0,0,1-3.12,3.39l3.23,8.9v6.46h-8.58l-4.08-13.4h-1.17v13.4h-9.95Zm12.23,15.83a2,2,0,0,0,2-1.06v-5.72a1.88,1.88,0,0,0-2-1.06h-2.28v7.84Z" transform="translate(-119.58 -2250.47)"/><path class="cls-7" d="M493.06,2353.73v-37.07h19.55v8.1H503v6.14h9.11v7.89H503v6.84h9.75v8.1Z" transform="translate(-119.58 -2250.47)"/><path class="cls-7" d="M132,2404.41h9.43v4.4a2.07,2.07,0,0,0,2,1.06,2.19,2.19,0,0,0,2.07-1.06v-4.61c-.27-.69-1.06-1-3.55-1.8-6.2-1.64-8.69-3.39-10-5.88v-11.81c1.64-2.7,5.24-5.24,11.44-5.24s9.85,2.54,11.49,5.24v8.1h-9.42v-4.13a2.13,2.13,0,0,0-2.07-1,2.07,2.07,0,0,0-2,1v4c.26.63,1.11,1,3.6,1.8a29.86,29.86,0,0,1,6.83,2.8,7.94,7.94,0,0,1,3.07,3.18v12.34c-1.64,2.7-5.29,5.25-11.49,5.25s-9.9-2.55-11.44-5.25Z" transform="translate(-119.58 -2250.47)"/><path class="cls-7" d="M157.19,2380.21h10v28.34a2,2,0,0,0,2,1,2.06,2.06,0,0,0,2-1v-28.34h10v31.67c-1.06,2.6-4.82,6.09-12,6.09s-10.86-3.49-11.92-6.09Z" transform="translate(-119.58 -2250.47)"/><path class="cls-7" d="M183.51,2417.28v-37.07h10v37.07Z" transform="translate(-119.58 -2250.47)"/><path class="cls-7" d="M195.74,2385.56c1-2.6,4.93-6,12-6,5.94,0,9.91,2.44,11.44,5.14v11.07h-9.42v-6.83a2,2,0,0,0-2-1,2.11,2.11,0,0,0-2,1v19.7a2.06,2.06,0,0,0,2,1.06,2.09,2.09,0,0,0,2-1.06V2401h9.42v11.87c-1.64,2.75-5.45,5.19-11.44,5.19-7,0-11-3.55-12-6.09Z" transform="translate(-119.58 -2250.47)"/><path class="cls-7" d="M221.48,2417.28v-37.07h10v37.07Z" transform="translate(-119.58 -2250.47)"/><path class="cls-7" d="M233.88,2380.21h14.3c4.82,0,8.36,2.33,9.58,5.3V2412c-1.22,2.8-4.55,5.29-9.58,5.29h-14.3Zm11.91,29a2.05,2.05,0,0,0,2-1.06v-18.85a2,2,0,0,0-2-1.06h-2v21Z" transform="translate(-119.58 -2250.47)"/><path class="cls-7" d="M260.09,2417.28v-37.07h19.54v8.1h-9.58v6.15h9.11v7.89h-9.11v6.83h9.74v8.1Z" transform="translate(-119.58 -2250.47)"/><path class="cls-7" d="M281.75,2404.41h9.43v4.4a2.09,2.09,0,0,0,2,1.06,2.19,2.19,0,0,0,2.07-1.06v-4.61c-.27-.69-1.06-1-3.55-1.8-6.2-1.64-8.69-3.39-10-5.88v-11.81c1.64-2.7,5.25-5.24,11.44-5.24s9.85,2.54,11.49,5.24v8.1h-9.42v-4.13a2.12,2.12,0,0,0-2.07-1,2.08,2.08,0,0,0-2,1v4c.26.63,1.11,1,3.6,1.8a29.67,29.67,0,0,1,6.83,2.8,7.94,7.94,0,0,1,3.07,3.18v12.34c-1.64,2.7-5.29,5.25-11.49,5.25s-9.9-2.55-11.44-5.25Z" transform="translate(-119.58 -2250.47)"/><path class="cls-7" d="M326.45,2380.21l5.35,30.61v6.46h-9.48l-.85-7.41h-5.56l-.9,7.41h-8.74v-6.46l5.41-30.61Zm-9.53,21.56h3.71l-1.33-11.71h-.9Z" transform="translate(-119.58 -2250.47)"/><path class="cls-7" d="M336.09,2417.28l-5.61-30.61v-6.46h9.69l2.75,25.32h.85l3.13-25.32h9.16v6.46l-5.67,30.61Z" transform="translate(-119.58 -2250.47)"/><path class="cls-7" d="M358.07,2417.28v-37.07h19.54v8.1H368v6.15h9.11v7.89H368v6.83h9.74v8.1Z" transform="translate(-119.58 -2250.47)"/><path class="cls-7" d="M379.89,2380.21h10v28.34a2,2,0,0,0,1.95,1,2.06,2.06,0,0,0,2-1v-28.34h9.95v31.67c-1,2.6-4.81,6.09-12,6.09s-10.85-3.49-11.91-6.09Z" transform="translate(-119.58 -2250.47)"/><path class="cls-7" d="M406.05,2404.41h9.43v4.4a2.07,2.07,0,0,0,2,1.06,2.19,2.19,0,0,0,2.07-1.06v-4.61c-.27-.69-1.06-1-3.55-1.8-6.2-1.64-8.69-3.39-10-5.88v-11.81c1.64-2.7,5.24-5.24,11.44-5.24s9.85,2.54,11.49,5.24v8.1h-9.42v-4.13a2.13,2.13,0,0,0-2.07-1,2.07,2.07,0,0,0-2,1v4c.26.63,1.11,1,3.6,1.8a29.86,29.86,0,0,1,6.83,2.8,7.94,7.94,0,0,1,3.07,3.18v12.34c-1.64,2.7-5.29,5.25-11.49,5.25s-9.9-2.55-11.44-5.25Z" transform="translate(-119.58 -2250.47)"/><path class="cls-7" d="M431.26,2417.28v-37.07H450.8v8.1h-9.58v6.15h9.11v7.89h-9.11v6.83H451v8.1Z" transform="translate(-119.58 -2250.47)"/><path class="cls-7" d="M453.08,2417.28v-37.07h19v8.1h-9v6.31h8.58v8.1H463v14.56Z" transform="translate(-119.58 -2250.47)"/><path class="cls-7" d="M474.16,2380.21h9.95v28.34a2,2,0,0,0,2,1,2.07,2.07,0,0,0,2-1v-28.34h10v31.67c-1.06,2.6-4.82,6.09-12,6.09s-10.85-3.49-11.91-6.09Z" transform="translate(-119.58 -2250.47)"/><path class="cls-7" d="M500.48,2417.28v-37.07h10v29h8.26v8.1Z" transform="translate(-119.58 -2250.47)"/><path class="cls-7" d="M132.14,2480.84v-37.08h10v29h8.26v8.11Z" transform="translate(-119.58 -2250.47)"/><path class="cls-7" d="M152.37,2480.84v-37.08h19.54v8.11h-9.58V2458h9.11v7.89h-9.11v6.83h9.74v8.11Z" transform="translate(-119.58 -2250.47)"/><path class="cls-7" d="M174,2468h9.43v4.39a2.06,2.06,0,0,0,2,1.06,2.17,2.17,0,0,0,2.07-1.06v-4.6c-.27-.69-1.06-1-3.55-1.81-6.2-1.64-8.69-3.39-10-5.87v-11.81c1.64-2.71,5.24-5.25,11.44-5.25s9.85,2.54,11.49,5.25v8.1h-9.42v-4.13a2.12,2.12,0,0,0-2.07-1.06,2.06,2.06,0,0,0-2,1.06v4c.26.64,1.11,1,3.6,1.8a29.8,29.8,0,0,1,6.83,2.81A7.94,7.94,0,0,1,197,2464v12.34c-1.64,2.7-5.29,5.24-11.49,5.24s-9.9-2.54-11.44-5.24Z" transform="translate(-119.58 -2250.47)"/><path class="cls-7" d="M199.08,2468h9.43v4.39a2.06,2.06,0,0,0,2,1.06,2.17,2.17,0,0,0,2.07-1.06v-4.6c-.27-.69-1.06-1-3.55-1.81-6.2-1.64-8.69-3.39-10-5.87v-11.81c1.64-2.71,5.24-5.25,11.44-5.25s9.85,2.54,11.49,5.25v8.1h-9.42v-4.13a2.12,2.12,0,0,0-2.07-1.06,2.06,2.06,0,0,0-2,1.06v4c.26.64,1.11,1,3.6,1.8a29.8,29.8,0,0,1,6.83,2.81A7.94,7.94,0,0,1,222,2464v12.34c-1.64,2.7-5.29,5.24-11.49,5.24s-9.9-2.54-11.44-5.24Z" transform="translate(-119.58 -2250.47)"/><path class="cls-7" d="M224.29,2443.76H239a10,10,0,0,1,8.9,5v14.51a10,10,0,0,1-8.9,5h-4.71v12.55h-10Zm12.34,16.47c1.06,0,1.75-.42,1.91-1.05v-6.31c-.16-.63-.9-1.06-1.91-1.06h-2.38v8.42Z" transform="translate(-119.58 -2250.47)"/><path class="cls-7" d="M250.08,2480.84v-37.08h19.55v8.11H260V2458h9.11v7.89H260v6.83h9.74v8.11Z" transform="translate(-119.58 -2250.47)"/><path class="cls-7" d="M271.53,2449.11c1-2.54,4.93-6.09,12-6.09s11,3.6,12,6.09v26.38c-1,2.49-4.82,6.09-12,6.09s-11-3.55-12-6.09Zm14,3.34a2.44,2.44,0,0,0-4,0v19.75a2.51,2.51,0,0,0,4,0Z" transform="translate(-119.58 -2250.47)"/><path class="cls-7" d="M297.75,2443.76h14.67a10,10,0,0,1,8.89,5v14.51a10,10,0,0,1-8.89,5H307.7v12.55h-9.95Zm12.34,16.47c1.06,0,1.74-.42,1.9-1.05v-6.31c-.16-.63-.9-1.06-1.9-1.06H307.7v8.42Z" transform="translate(-119.58 -2250.47)"/><path class="cls-7" d="M323.54,2480.84v-37.08h9.95v29h8.27v8.11Z" transform="translate(-119.58 -2250.47)"/><path class="cls-7" d="M343.77,2480.84v-37.08h19.54v8.11h-9.58V2458h9.1v7.89h-9.1v6.83h9.74v8.11Z" transform="translate(-119.58 -2250.47)"/><path class="cls-7" d="M365.59,2480.84v-37.08H378l2.55,11h.84l2.49-11h12.24v37.08h-9.38V2463h-.84l-2.87,11.49h-4.81L375.81,2463h-.9v17.8Z" transform="translate(-119.58 -2250.47)"/><path class="cls-7" d="M398.37,2449.11c1-2.54,4.93-6.09,12-6.09s11,3.6,12,6.09v26.38c-1,2.49-4.82,6.09-12,6.09s-11-3.55-12-6.09Zm14,3.34a2.44,2.44,0,0,0-4,0v19.75a2.51,2.51,0,0,0,4,0Z" transform="translate(-119.58 -2250.47)"/><path class="cls-7" d="M424.58,2443.76H439.2a10.35,10.35,0,0,1,9.06,4.93v13.4a8.85,8.85,0,0,1-3.13,3.39l3.24,8.9v6.46h-8.58l-4.08-13.4h-1.17v13.4h-10Zm12.24,15.84a2,2,0,0,0,2-1.06v-5.72a1.89,1.89,0,0,0-2-1.06h-2.28v7.84Z" transform="translate(-119.58 -2250.47)"/><path class="cls-7" d="M450.48,2480.84v-37.08H470v8.11h-9.59V2458h9.11v7.89h-9.11v6.83h9.75v8.11Z" transform="translate(-119.58 -2250.47)"/><path class="cls-7" d="M132,2512.67c1-2.55,4.93-6.09,12-6.09s11,3.6,12,6.09V2539c-1,2.49-4.82,6.09-12,6.09s-11-3.55-12-6.09Zm14,3.33a2.44,2.44,0,0,0-4,0v19.76a2.52,2.52,0,0,0,4,0Z" transform="translate(-119.58 -2250.47)"/><path class="cls-7" d="M157.67,2544.39v-6.46l4.87-12.34-4.87-11.81v-6.46h9l2.54,10.38h.85l2.59-10.38H181v6.46l-4.87,11.81,4.87,12.34v6.46h-9.11l-2.38-10.49h-.85l-2.75,10.49Z" transform="translate(-119.58 -2250.47)"/><path class="cls-7" d="M189.81,2544.39V2531l-7-17.21v-6.46h9.06l2.7,11h.85l2.65-11h8.68v6.46l-7,17.32v13.29Z" transform="translate(-119.58 -2250.47)"/><path class="cls-7" d="M208.51,2512.67c1.11-2.55,4.87-6,12-6,5.93,0,9.8,2.38,11.44,5.14v9.05h-9.43V2516a2.53,2.53,0,0,0-4,0v19.86a2,2,0,0,0,2,1,2,2,0,0,0,2-1v-5.45h-2.12v-7.36h11.55v16.89c-1.64,2.76-5.46,5.19-11.44,5.19-7.15,0-10.81-3.49-12-6.09Z" transform="translate(-119.58 -2250.47)"/><path class="cls-7" d="M234.25,2544.39v-37.07h19.54v8.1H244.2v6.14h9.11v7.9H244.2v6.83H254v8.1Z" transform="translate(-119.58 -2250.47)"/><path class="cls-7" d="M256.07,2544.39v-37.07h10.27l5.08,16.15h.85v-16.15h9.38v37.07H271.37l-5.08-16.26h-.85v16.26Z" transform="translate(-119.58 -2250.47)"/><path class="cls-7" d="M284.08,2544.39v-37.07h10v14h4v-14h10v37.07h-10v-15h-4v15Z" transform="translate(-119.58 -2250.47)"/><path class="cls-7" d="M310.46,2507.32h10v28.33a2,2,0,0,0,2,1,2,2,0,0,0,2-1v-28.33h10V2539c-1.06,2.59-4.82,6.09-12,6.09s-10.86-3.5-11.91-6.09Z" transform="translate(-119.58 -2250.47)"/><path class="cls-7" d="M336.78,2544.39v-37.07h12.44l2.55,11h.84l2.49-11h12.24v37.07H358V2526.6h-.85l-2.86,11.49h-4.81L347,2526.6h-.9v17.79Z" transform="translate(-119.58 -2250.47)"/><path class="cls-7" d="M389.37,2507.32l5.35,30.61v6.46h-9.48l-.85-7.41h-5.56l-.9,7.41h-8.74v-6.46l5.4-30.61Zm-9.54,21.55h3.71l-1.32-11.7h-.9Z" transform="translate(-119.58 -2250.47)"/><path class="cls-7" d="M396.62,2544.39v-37.07H406.9l5.08,16.15h.85v-16.15h9.37v37.07H411.93l-5.09-16.26H406v16.26Z" transform="translate(-119.58 -2250.47)"/><path class="cls-7" d="M424.64,2544.39v-37.07h10v37.07Z" transform="translate(-119.58 -2250.47)"/><path class="cls-7" d="M442.43,2544.39v-29h-6v-8.1h22v8.1h-6v29Z" transform="translate(-119.58 -2250.47)"/><path class="cls-7" d="M467,2544.39V2531l-7-17.21v-6.46h9.05l2.7,11h.85l2.65-11H484v6.46l-7,17.32v13.29Z" transform="translate(-119.58 -2250.47)"/><path class="cls-7" d="M491.58,2544.39v-29h-6v-8.1h22v8.1h-6v29Z" transform="translate(-119.58 -2250.47)"/><path class="cls-7" d="M509.11,2512.67c1-2.55,4.93-6.09,12-6.09s11,3.6,12,6.09V2539c-1,2.49-4.82,6.09-12,6.09s-11-3.55-12-6.09Zm14,3.33a2.44,2.44,0,0,0-4,0v19.76a2.52,2.52,0,0,0,4,0Z" transform="translate(-119.58 -2250.47)"/><path class="cls-7" d="M131.76,2584.52h7.46V2588a1.65,1.65,0,0,0,1.6.83,1.7,1.7,0,0,0,1.63-.83v-3.65c-.21-.55-.84-.8-2.81-1.43-4.9-1.3-6.87-2.68-7.88-4.65v-9.35c1.3-2.14,4.15-4.15,9.06-4.15s7.8,2,9.1,4.15v6.41h-7.47v-3.27a2,2,0,0,0-3.23,0v3.15c.21.5.88.79,2.86,1.42a24,24,0,0,1,5.4,2.22,6.36,6.36,0,0,1,2.44,2.52v9.77c-1.3,2.14-4.2,4.15-9.1,4.15s-7.84-2-9.06-4.15Z" transform="translate(-119.58 -2250.47)"/><path class="cls-7" d="M151.72,2565.35h7.88v22.44a1.55,1.55,0,0,0,1.55.79,1.64,1.64,0,0,0,1.6-.79v-22.44h7.88v25.08c-.84,2.05-3.82,4.82-9.48,4.82s-8.59-2.77-9.43-4.82Z" transform="translate(-119.58 -2250.47)"/><path class="cls-7" d="M173.52,2585.69l-1-12.71v-7.63h8.17V2573l-1,12.71Zm-.63,3.19a4.89,4.89,0,0,1,7.51,0v4.44a4.89,4.89,0,0,1-7.51,0Z" transform="translate(-119.58 -2250.47)"/><path class="cls-7" d="M182.53,2569.59c.8-2.06,3.9-4.78,9.48-4.78,4.7,0,7.84,1.93,9.06,4.07v8.76H193.6v-5.41a1.61,1.61,0,0,0-1.59-.8,1.66,1.66,0,0,0-1.59.8v15.6a1.92,1.92,0,0,0,3.18,0v-6h7.47v9.39c-1.3,2.18-4.32,4.11-9.06,4.11-5.58,0-8.68-2.81-9.48-4.82Z" transform="translate(-119.58 -2250.47)"/><path class="cls-7" d="M203.87,2585.69l-1-12.71v-7.63h8.18V2573l-1,12.71Zm-.62,3.19a4.87,4.87,0,0,1,7.5,0v4.44a4.87,4.87,0,0,1-7.5,0Z" transform="translate(-119.58 -2250.47)"/><path class="cls-7" d="M213,2565.35h11.33c3.81,0,6.62,1.85,7.59,4.2v21c-1,2.22-3.61,4.19-7.59,4.19H213Zm9.44,23a1.6,1.6,0,0,0,1.59-.84v-14.93a1.57,1.57,0,0,0-1.59-.83H220.9v16.6Z" transform="translate(-119.58 -2250.47)"/><path class="cls-7" d="M233.77,2594.7v-29.35h15.47v6.42h-7.59v4.86h7.21v6.25h-7.21v5.41h7.72v6.41Z" transform="translate(-119.58 -2250.47)"/><path class="cls-7" d="M250.75,2569.59c.8-2,3.9-4.82,9.48-4.82s8.68,2.85,9.47,4.82v20.88c-.79,2-3.81,4.82-9.47,4.82s-8.68-2.81-9.48-4.82Zm11.07,2.64a1.93,1.93,0,0,0-3.19,0v15.64a2,2,0,0,0,3.19,0Z" transform="translate(-119.58 -2250.47)"/><path class="cls-7" d="M271.5,2565.35h11.58a8.2,8.2,0,0,1,7.17,3.9v10.61a6.92,6.92,0,0,1-2.48,2.68l2.56,7.05v5.11h-6.79l-3.23-10.6h-.92v10.6H271.5Zm9.69,12.54a1.6,1.6,0,0,0,1.55-.84v-4.53a1.5,1.5,0,0,0-1.55-.84h-1.8v6.21Z" transform="translate(-119.58 -2250.47)"/><path class="cls-7" d="M292,2565.35h11.32c3.81,0,6.62,1.85,7.59,4.2v21c-1,2.22-3.61,4.19-7.59,4.19H292Zm9.43,23a1.6,1.6,0,0,0,1.59-.84v-14.93a1.57,1.57,0,0,0-1.59-.83h-1.55v16.6Z" transform="translate(-119.58 -2250.47)"/><path class="cls-7" d="M313.72,2585.69l-1-12.71v-7.63h8.18V2573l-1,12.71Zm-.63,3.19a4.89,4.89,0,0,1,7.51,0v4.44a4.89,4.89,0,0,1-7.51,0Z" transform="translate(-119.58 -2250.47)"/><path class="cls-7" d="M322.86,2594.7v-29.35h15.48v6.42h-7.59v4.86H338v6.25h-7.21v5.41h7.71v6.41Z" transform="translate(-119.58 -2250.47)"/><path class="cls-7" d="M127.85,2745.1V2708h19v8.11h-9v6.3h8.58v8.1h-8.58v14.57Z" transform="translate(-119.58 -2250.47)"/><path class="cls-7" d="M148.45,2713.37c1-2.54,4.93-6.09,12-6.09s11,3.6,12,6.09v26.38c-1,2.49-4.82,6.09-12,6.09s-11-3.55-12-6.09Zm14,3.34a2.45,2.45,0,0,0-4,0v19.75a2.52,2.52,0,0,0,4,0Z" transform="translate(-119.58 -2250.47)"/><path class="cls-7" d="M174.67,2708h14.62a10.34,10.34,0,0,1,9.05,4.93v13.4a8.9,8.9,0,0,1-3.12,3.39l3.23,8.89v6.47h-8.58l-4.08-13.4h-1.16v13.4h-10Zm12.23,15.84a2,2,0,0,0,2-1.06v-5.72a1.88,1.88,0,0,0-2-1.06h-2.27v7.84Z" transform="translate(-119.58 -2250.47)"/><path class="cls-7" d="M200.57,2708h10v28.34a2,2,0,0,0,2,1,2.06,2.06,0,0,0,2-1V2708h9.95v31.67c-1,2.6-4.82,6.1-12,6.1s-10.85-3.5-11.91-6.1Z" transform="translate(-119.58 -2250.47)"/><path class="cls-7" d="M226.73,2732.23h9.43v4.39a2.06,2.06,0,0,0,2,1.06,2.17,2.17,0,0,0,2.07-1.06V2732c-.27-.68-1.06-1-3.55-1.8-6.2-1.64-8.69-3.39-10-5.88v-11.81c1.64-2.7,5.24-5.24,11.44-5.24s9.85,2.54,11.49,5.24v8.11h-9.42v-4.13a2.12,2.12,0,0,0-2.07-1.06,2.06,2.06,0,0,0-2,1.06v4c.26.63,1.11,1,3.6,1.8a29.8,29.8,0,0,1,6.83,2.81,8,8,0,0,1,3.07,3.17v12.34c-1.64,2.71-5.29,5.25-11.49,5.25s-9.9-2.54-11.44-5.25Z" transform="translate(-119.58 -2250.47)"/><path class="cls-7" d="M251.94,2745.1V2708h19.54v8.11H261.9v6.14H271v7.89H261.9V2737h9.74v8.11Z" transform="translate(-119.58 -2250.47)"/><path class="cls-7" d="M273.76,2745.1V2708h10v29H292v8.11Z" transform="translate(-119.58 -2250.47)"/><path class="cls-7" d="M294,2745.1V2708h19.54v8.11H304v6.14h9.11v7.89H304V2737h9.74v8.11Z" transform="translate(-119.58 -2250.47)"/><path class="cls-7" d="M315.65,2732.23h9.43v4.39a2.06,2.06,0,0,0,2,1.06,2.17,2.17,0,0,0,2.07-1.06V2732c-.27-.68-1.06-1-3.55-1.8-6.2-1.64-8.69-3.39-10-5.88v-11.81c1.64-2.7,5.24-5.24,11.44-5.24s9.85,2.54,11.49,5.24v8.11h-9.42v-4.13a2.12,2.12,0,0,0-2.07-1.06,2.06,2.06,0,0,0-2,1.06v4c.26.63,1.11,1,3.6,1.8a29.8,29.8,0,0,1,6.83,2.81,8,8,0,0,1,3.07,3.17v12.34c-1.64,2.71-5.29,5.25-11.49,5.25s-9.9-2.54-11.44-5.25Z" transform="translate(-119.58 -2250.47)"/><path class="cls-7" d="M340.7,2732.23h9.43v4.39a2.06,2.06,0,0,0,2,1.06,2.17,2.17,0,0,0,2.07-1.06V2732c-.27-.68-1.06-1-3.55-1.8-6.2-1.64-8.69-3.39-10-5.88v-11.81c1.64-2.7,5.24-5.24,11.44-5.24s9.85,2.54,11.49,5.24v8.11h-9.42v-4.13a2.12,2.12,0,0,0-2.07-1.06,2.06,2.06,0,0,0-2,1.06v4c.26.63,1.11,1,3.6,1.8a29.8,29.8,0,0,1,6.83,2.81,8,8,0,0,1,3.07,3.17v12.34c-1.64,2.71-5.29,5.25-11.49,5.25s-9.9-2.54-11.44-5.25Z" transform="translate(-119.58 -2250.47)"/><path class="cls-7" d="M365.91,2745.1V2708h19v8.11h-9v6.3h8.58v8.1h-8.58v14.57Z" transform="translate(-119.58 -2250.47)"/><path class="cls-7" d="M387,2708h9.95v28.34a2,2,0,0,0,2,1,2.07,2.07,0,0,0,2-1V2708h9.95v31.67c-1.06,2.6-4.82,6.1-12,6.1s-10.85-3.5-11.91-6.1Z" transform="translate(-119.58 -2250.47)"/><path class="cls-7" d="M418.71,2745.1v-29h-6V2708h22v8.11h-6v29Z" transform="translate(-119.58 -2250.47)"/><path class="cls-7" d="M436.56,2708h10v28.34a2,2,0,0,0,2,1,2.06,2.06,0,0,0,2-1V2708h9.95v31.67c-1.05,2.6-4.81,6.1-12,6.1s-10.85-3.5-11.91-6.1Z" transform="translate(-119.58 -2250.47)"/><path class="cls-7" d="M462.88,2708H477.5a10.34,10.34,0,0,1,9.05,4.93v13.4a8.9,8.9,0,0,1-3.12,3.39l3.23,8.89v6.47h-8.58L474,2731.7h-1.16v13.4h-10Zm12.23,15.84a2,2,0,0,0,2-1.06v-5.72a1.88,1.88,0,0,0-2-1.06h-2.27v7.84Z" transform="translate(-119.58 -2250.47)"/><path class="cls-7" d="M488.78,2745.1V2708h19.54v8.11h-9.59v6.14h9.11v7.89h-9.11V2737h9.75v8.11Z" transform="translate(-119.58 -2250.47)"/><path class="cls-7" d="M127.69,2795.78h9.43v4.4a2.09,2.09,0,0,0,2,1.06,2.18,2.18,0,0,0,2.07-1.06v-4.61c-.26-.69-1.06-1-3.55-1.8-6.2-1.64-8.68-3.39-10-5.88v-11.81c1.65-2.7,5.25-5.25,11.44-5.25s9.86,2.55,11.5,5.25v8.1H141.2v-4.13a2.12,2.12,0,0,0-2.07-1.06,2.09,2.09,0,0,0-2,1.06v4c.27.64,1.11,1,3.6,1.8a30.18,30.18,0,0,1,6.84,2.81,8,8,0,0,1,3.07,3.18v12.34c-1.64,2.7-5.3,5.24-11.5,5.24s-9.9-2.54-11.44-5.24Z" transform="translate(-119.58 -2250.47)"/><path class="cls-7" d="M152.9,2771.58h10v28.33a2,2,0,0,0,2,1,2,2,0,0,0,2-1v-28.33h10v31.67c-1.06,2.59-4.82,6.09-12,6.09s-10.86-3.5-11.92-6.09Z" transform="translate(-119.58 -2250.47)"/><path class="cls-7" d="M179.22,2808.65v-37.07h10v37.07Z" transform="translate(-119.58 -2250.47)"/><path class="cls-7" d="M191.46,2776.93c1-2.6,4.92-6,12-6,5.93,0,9.9,2.43,11.44,5.14v11.06h-9.43v-6.83a2.06,2.06,0,0,0-2-1,2.1,2.1,0,0,0-2,1V2800a2,2,0,0,0,2,1.06,2.07,2.07,0,0,0,2-1.06v-7.62h9.43v11.86c-1.64,2.76-5.46,5.19-11.44,5.19-7.05,0-11-3.55-12-6.09Z" transform="translate(-119.58 -2250.47)"/><path class="cls-7" d="M217.2,2808.65v-37.07h10v37.07Z" transform="translate(-119.58 -2250.47)"/><path class="cls-7" d="M229.59,2771.58h14.3c4.82,0,8.37,2.33,9.59,5.29v26.48c-1.22,2.81-4.56,5.3-9.59,5.3h-14.3Zm11.92,29a2,2,0,0,0,2-1.06v-18.85a2,2,0,0,0-2-1.06h-2v21Z" transform="translate(-119.58 -2250.47)"/><path class="cls-7" d="M255.81,2808.65v-37.07h19.54v8.1h-9.59v6.14h9.11v7.89h-9.11v6.84h9.75v8.1Z" transform="translate(-119.58 -2250.47)"/><path class="cls-7" d="M277.47,2795.78h9.42v4.4a2.09,2.09,0,0,0,2,1.06,2.17,2.17,0,0,0,2.06-1.06v-4.61c-.26-.69-1.06-1-3.55-1.8-6.19-1.64-8.68-3.39-9.95-5.88v-11.81c1.64-2.7,5.24-5.25,11.44-5.25s9.85,2.55,11.49,5.25v8.1H291v-4.13a2.12,2.12,0,0,0-2.06-1.06,2.09,2.09,0,0,0-2,1.06v4c.27.64,1.12,1,3.6,1.8a30.18,30.18,0,0,1,6.84,2.81,7.94,7.94,0,0,1,3.07,3.18v12.34c-1.64,2.7-5.3,5.24-11.49,5.24s-9.91-2.54-11.44-5.24Z" transform="translate(-119.58 -2250.47)"/><path class="cls-7" d="M322.17,2771.58l5.35,30.61v6.46H318l-.84-7.41h-5.56l-.9,7.41H302v-6.46l5.4-30.61Zm-9.54,21.55h3.71l-1.32-11.7h-.9Z" transform="translate(-119.58 -2250.47)"/><path class="cls-7" d="M331.8,2808.65,326.19,2778v-6.46h9.69l2.76,25.31h.84l3.13-25.31h9.16V2778l-5.67,30.61Z" transform="translate(-119.58 -2250.47)"/><path class="cls-7" d="M353.78,2808.65v-37.07h19.55v8.1h-9.59v6.14h9.11v7.89h-9.11v6.84h9.74v8.1Z" transform="translate(-119.58 -2250.47)"/><path class="cls-7" d="M375.6,2771.58h10v28.33a2,2,0,0,0,2,1,2.06,2.06,0,0,0,2-1v-28.33h10v31.67c-1.06,2.59-4.82,6.09-12,6.09s-10.86-3.5-11.92-6.09Z" transform="translate(-119.58 -2250.47)"/><path class="cls-7" d="M401.76,2795.78h9.43v4.4a2.09,2.09,0,0,0,2,1.06,2.18,2.18,0,0,0,2.07-1.06v-4.61c-.26-.69-1.06-1-3.55-1.8-6.2-1.64-8.68-3.39-10-5.88v-11.81c1.65-2.7,5.25-5.25,11.44-5.25s9.86,2.55,11.5,5.25v8.1h-9.43v-4.13a2.12,2.12,0,0,0-2.07-1.06,2.09,2.09,0,0,0-2,1.06v4c.27.64,1.11,1,3.6,1.8a30.18,30.18,0,0,1,6.84,2.81,8,8,0,0,1,3.07,3.18v12.34c-1.64,2.7-5.3,5.24-11.5,5.24s-9.9-2.54-11.44-5.24Z" transform="translate(-119.58 -2250.47)"/><path class="cls-7" d="M427,2808.65v-37.07h19.55v8.1h-9.59v6.14H446v7.89h-9.11v6.84h9.75v8.1Z" transform="translate(-119.58 -2250.47)"/><path class="cls-7" d="M448.79,2808.65v-37.07h19v8.1h-9v6.3h8.58v8.11h-8.58v14.56Z" transform="translate(-119.58 -2250.47)"/><path class="cls-7" d="M469.87,2771.58h10v28.33a2,2,0,0,0,2,1,2.06,2.06,0,0,0,2-1v-28.33h10v31.67c-1.06,2.59-4.82,6.09-12,6.09s-10.86-3.5-11.92-6.09Z" transform="translate(-119.58 -2250.47)"/><path class="cls-7" d="M496.19,2808.65v-37.07h10v29h8.26v8.1Z" transform="translate(-119.58 -2250.47)"/><path class="cls-7" d="M127.85,2872.2v-37.07h10v29h8.26v8.1Z" transform="translate(-119.58 -2250.47)"/><path class="cls-7" d="M148.08,2872.2v-37.07h19.55v8.1H158v6.15h9.11v7.89H158v6.83h9.75v8.1Z" transform="translate(-119.58 -2250.47)"/><path class="cls-7" d="M169.74,2859.33h9.43v4.4a2.09,2.09,0,0,0,2,1.06,2.19,2.19,0,0,0,2.07-1.06v-4.61c-.27-.69-1.06-1-3.55-1.8-6.2-1.64-8.68-3.39-10-5.88v-11.81c1.65-2.7,5.25-5.24,11.44-5.24s9.86,2.54,11.5,5.24v8.11h-9.43v-4.14a2.12,2.12,0,0,0-2.07-1.06,2.09,2.09,0,0,0-2,1.06v4c.27.63,1.11,1,3.6,1.8a29.67,29.67,0,0,1,6.83,2.8,8,8,0,0,1,3.08,3.18v12.34c-1.64,2.7-5.3,5.25-11.5,5.25s-9.9-2.55-11.44-5.25Z" transform="translate(-119.58 -2250.47)"/><path class="cls-7" d="M194.79,2859.33h9.43v4.4a2.09,2.09,0,0,0,2,1.06,2.18,2.18,0,0,0,2.07-1.06v-4.61c-.26-.69-1.06-1-3.55-1.8-6.2-1.64-8.68-3.39-10-5.88v-11.81c1.65-2.7,5.25-5.24,11.44-5.24s9.86,2.54,11.5,5.24v8.11H208.3v-4.14a2.12,2.12,0,0,0-2.07-1.06,2.09,2.09,0,0,0-2,1.06v4c.27.63,1.11,1,3.6,1.8a29.78,29.78,0,0,1,6.84,2.8,8,8,0,0,1,3.07,3.18v12.34c-1.64,2.7-5.3,5.25-11.5,5.25s-9.9-2.55-11.44-5.25Z" transform="translate(-119.58 -2250.47)"/><path class="cls-7" d="M220,2835.13h14.67a10,10,0,0,1,8.9,5v14.51a10,10,0,0,1-8.9,5H230v12.55H220Zm12.34,16.47c1.06,0,1.75-.42,1.91-1.06v-6.3c-.16-.64-.9-1.06-1.91-1.06H230v8.42Z" transform="translate(-119.58 -2250.47)"/><path class="cls-7" d="M245.8,2872.2v-37.07h19.54v8.1h-9.59v6.15h9.11v7.89h-9.11v6.83h9.75v8.1Z" transform="translate(-119.58 -2250.47)"/><path class="cls-7" d="M267.24,2840.48c1-2.54,4.93-6.09,12-6.09s11,3.6,12,6.09v26.37c-1,2.49-4.82,6.1-12,6.1s-11-3.55-12-6.1Zm14,3.34a2.45,2.45,0,0,0-4,0v19.75a2.52,2.52,0,0,0,4,0Z" transform="translate(-119.58 -2250.47)"/><path class="cls-7" d="M293.46,2835.13h14.67a10,10,0,0,1,8.9,5v14.51a10,10,0,0,1-8.9,5h-4.71v12.55h-10Zm12.34,16.47c1.06,0,1.75-.42,1.91-1.06v-6.3c-.16-.64-.9-1.06-1.91-1.06h-2.38v8.42Z" transform="translate(-119.58 -2250.47)"/><path class="cls-7" d="M319.25,2872.2v-37.07h10v29h8.26v8.1Z" transform="translate(-119.58 -2250.47)"/><path class="cls-7" d="M339.48,2872.2v-37.07H359v8.1h-9.58v6.15h9.11v7.89h-9.11v6.83h9.74v8.1Z" transform="translate(-119.58 -2250.47)"/><path class="cls-7" d="M361.3,2872.2v-37.07h12.45l2.54,11h.85l2.49-11h12.23v37.07h-9.37v-17.79h-.85l-2.86,11.49H374l-2.44-11.49h-.9v17.79Z" transform="translate(-119.58 -2250.47)"/><path class="cls-7" d="M394.08,2840.48c1-2.54,4.93-6.09,12-6.09s11,3.6,12,6.09v26.37c-1,2.49-4.82,6.1-12,6.1s-11-3.55-12-6.1Zm14,3.34a2.45,2.45,0,0,0-4,0v19.75a2.52,2.52,0,0,0,4,0Z" transform="translate(-119.58 -2250.47)"/><path class="cls-7" d="M420.3,2835.13h14.62a10.34,10.34,0,0,1,9.05,4.93v13.4a8.88,8.88,0,0,1-3.12,3.38l3.23,8.9v6.46H435.5l-4.08-13.4h-1.16v13.4h-10ZM432.53,2851a2,2,0,0,0,2-1.06v-5.72a1.88,1.88,0,0,0-2-1.06h-2.27V2851Z" transform="translate(-119.58 -2250.47)"/><path class="cls-7" d="M446.2,2872.2v-37.07h19.54v8.1h-9.59v6.15h9.11v7.89h-9.11v6.83h9.75v8.1Z" transform="translate(-119.58 -2250.47)"/><path class="cls-7" d="M127.69,2904c1-2.54,4.93-6.09,12-6.09s11,3.6,12,6.09v26.38c-1,2.49-4.82,6.09-12,6.09s-11-3.55-12-6.09Zm14,3.34a2.45,2.45,0,0,0-4,0v19.76a2.53,2.53,0,0,0,4,0Z" transform="translate(-119.58 -2250.47)"/><path class="cls-7" d="M153.38,2935.76v-6.46l4.87-12.34-4.87-11.81v-6.47h9l2.55,10.38h.84l2.6-10.38h8.37v6.47L171.86,2917l4.88,12.34v6.46h-9.11l-2.39-10.49h-.84l-2.76,10.49Z" transform="translate(-119.58 -2250.47)"/><path class="cls-7" d="M185.53,2935.76v-13.4l-7-17.21v-6.47h9.05l2.7,11h.85l2.65-11h8.68v6.47l-7,17.31v13.3Z" transform="translate(-119.58 -2250.47)"/><path class="cls-7" d="M204.22,2904c1.11-2.54,4.87-6,12-6,5.93,0,9.8,2.38,11.44,5.13v9.06H218.2v-4.82a2.51,2.51,0,0,0-4,0v19.86a2.51,2.51,0,0,0,4,0v-5.45h-2.12v-7.37h11.55v16.9c-1.64,2.75-5.45,5.19-11.44,5.19-7.15,0-10.8-3.5-12-6.09Z" transform="translate(-119.58 -2250.47)"/><path class="cls-7" d="M230,2935.76v-37.08H249.5v8.11h-9.58v6.14H249v7.89h-9.11v6.83h9.74v8.11Z" transform="translate(-119.58 -2250.47)"/><path class="cls-7" d="M251.78,2935.76v-37.08h10.27l5.09,16.16H268v-16.16h9.37v37.08H267.08L262,2919.5h-.85v16.26Z" transform="translate(-119.58 -2250.47)"/><path class="cls-7" d="M279.79,2935.76v-37.08h10v14h4v-14h10v37.08h-10v-15h-4v15Z" transform="translate(-119.58 -2250.47)"/><path class="cls-7" d="M306.17,2898.68h10V2927a2,2,0,0,0,2,1,2.06,2.06,0,0,0,2-1v-28.34h10v31.68c-1.06,2.59-4.82,6.09-12,6.09s-10.86-3.5-11.92-6.09Z" transform="translate(-119.58 -2250.47)"/><path class="cls-7" d="M332.49,2935.76v-37.08h12.45l2.54,11h.85l2.49-11h12.23v37.08h-9.37V2918h-.85l-2.86,11.5h-4.82l-2.44-11.5h-.9v17.8Z" transform="translate(-119.58 -2250.47)"/><path class="cls-7" d="M385.08,2898.68l5.35,30.62v6.46H381l-.85-7.42h-5.56l-.9,7.42H364.9v-6.46l5.4-30.62Zm-9.53,21.56h3.7l-1.32-11.7H377Z" transform="translate(-119.58 -2250.47)"/><path class="cls-7" d="M392.34,2935.76v-37.08h10.27l5.09,16.16h.84v-16.16h9.38v37.08H407.64l-5.08-16.26h-.85v16.26Z" transform="translate(-119.58 -2250.47)"/><path class="cls-7" d="M420.35,2935.76v-37.08h10v37.08Z" transform="translate(-119.58 -2250.47)"/><path class="cls-7" d="M438.15,2935.76v-29h-6v-8.11h22v8.11h-6v29Z" transform="translate(-119.58 -2250.47)"/><path class="cls-7" d="M462.72,2935.76v-13.4l-7-17.21v-6.47h9.06l2.7,11h.84l2.65-11h8.69v6.47l-7.05,17.31v13.3Z" transform="translate(-119.58 -2250.47)"/><path class="cls-7" d="M487.29,2935.76v-29h-6v-8.11h22v8.11h-6v29Z" transform="translate(-119.58 -2250.47)"/><path class="cls-7" d="M504.82,2904c1-2.54,4.93-6.09,12-6.09s11,3.6,12,6.09v26.38c-1,2.49-4.82,6.09-12,6.09s-11-3.55-12-6.09Zm14,3.34a2.45,2.45,0,0,0-4,0v19.76a2.53,2.53,0,0,0,4,0Z" transform="translate(-119.58 -2250.47)"/><path class="cls-7" d="M127.47,2975.88h7.47v3.48a1.63,1.63,0,0,0,1.59.84,1.73,1.73,0,0,0,1.64-.84v-3.65c-.21-.54-.84-.79-2.81-1.42-4.91-1.3-6.88-2.69-7.89-4.66v-9.35c1.3-2.14,4.15-4.15,9.06-4.15s7.8,2,9.1,4.15v6.42h-7.46v-3.27a1.68,1.68,0,0,0-1.64-.84,1.63,1.63,0,0,0-1.59.84v3.14c.21.51.88.8,2.85,1.43a23.63,23.63,0,0,1,5.41,2.22,6.27,6.27,0,0,1,2.43,2.52v9.77c-1.3,2.13-4.19,4.15-9.1,4.15s-7.84-2-9.06-4.15Z" transform="translate(-119.58 -2250.47)"/><path class="cls-7" d="M147.43,2956.72h7.88v22.43a1.57,1.57,0,0,0,1.56.8,1.63,1.63,0,0,0,1.59-.8v-22.43h7.88v25.07c-.84,2.06-3.81,4.83-9.47,4.83s-8.6-2.77-9.44-4.83Z" transform="translate(-119.58 -2250.47)"/><path class="cls-7" d="M169.23,2977.05l-1-12.7v-7.63h8.18v7.63l-1,12.7Zm-.63,3.19a4.89,4.89,0,0,1,7.51,0v4.45a4.89,4.89,0,0,1-7.51,0Z" transform="translate(-119.58 -2250.47)"/><path class="cls-7" d="M178.25,2961c.79-2,3.9-4.78,9.47-4.78,4.7,0,7.84,1.93,9.06,4.07V2969h-7.46v-5.4a1.62,1.62,0,0,0-1.6-.8,1.66,1.66,0,0,0-1.59.8v15.59a1.61,1.61,0,0,0,1.59.84,1.64,1.64,0,0,0,1.6-.84v-6h7.46v9.39c-1.3,2.18-4.32,4.11-9.06,4.11-5.57,0-8.68-2.81-9.47-4.83Z" transform="translate(-119.58 -2250.47)"/><path class="cls-7" d="M199.59,2977.05l-1-12.7v-7.63h8.18v7.63l-1,12.7Zm-.63,3.19a4.87,4.87,0,0,1,7.5,0v4.45a4.87,4.87,0,0,1-7.5,0Z" transform="translate(-119.58 -2250.47)"/><path class="cls-7" d="M208.73,2956.72h11.32c3.82,0,6.62,1.84,7.59,4.19v21c-1,2.22-3.61,4.19-7.59,4.19H208.73Zm9.43,23a1.63,1.63,0,0,0,1.6-.84v-14.93a1.6,1.6,0,0,0-1.6-.84h-1.55v16.61Z" transform="translate(-119.58 -2250.47)"/><path class="cls-7" d="M229.48,2986.07v-29.35H245v6.41h-7.58V2968h7.21v6.25h-7.21v5.41h7.71v6.41Z" transform="translate(-119.58 -2250.47)"/><path class="cls-7" d="M246.46,2961c.8-2,3.9-4.82,9.48-4.82s8.68,2.85,9.48,4.82v20.88c-.8,2-3.82,4.83-9.48,4.83s-8.68-2.81-9.48-4.83Zm11.07,2.65a1.92,1.92,0,0,0-3.18,0v15.64a2,2,0,0,0,3.18,0Z" transform="translate(-119.58 -2250.47)"/><path class="cls-7" d="M267.22,2956.72h11.57a8.19,8.19,0,0,1,7.17,3.9v10.61a7.1,7.1,0,0,1-2.47,2.68L286,2981v5.11h-6.79L276,2975.46h-.92v10.61h-7.88Zm9.68,12.54a1.61,1.61,0,0,0,1.55-.84v-4.53a1.49,1.49,0,0,0-1.55-.84h-1.8v6.21Z" transform="translate(-119.58 -2250.47)"/><path class="cls-7" d="M287.72,2956.72H299c3.82,0,6.63,1.84,7.59,4.19v21c-1,2.22-3.61,4.19-7.59,4.19H287.72Zm9.43,23a1.63,1.63,0,0,0,1.6-.84v-14.93a1.6,1.6,0,0,0-1.6-.84H295.6v16.61Z" transform="translate(-119.58 -2250.47)"/><path class="cls-7" d="M309.44,2977.05l-1-12.7v-7.63h8.18v7.63l-1,12.7Zm-.63,3.19a4.87,4.87,0,0,1,7.5,0v4.45a4.87,4.87,0,0,1-7.5,0Z" transform="translate(-119.58 -2250.47)"/><path class="cls-7" d="M318.58,2986.07v-29.35h15.47v6.41h-7.59V2968h7.21v6.25h-7.21v5.41h7.72v6.41Z" transform="translate(-119.58 -2250.47)"/><path class="cls-2" d="M1365.64,2649.59l6.81,3.92c13.31,2.68,31.5,2.07,48.15-7.14,14.8-8.18,17.74-17.38,14.77-24.53" transform="translate(-119.58 -2250.47)"/><path class="cls-2" d="M1330.07,2618.09c-.17.51-.31,1-.42,1.46a12.62,12.62,0,0,0,.23,6.94" transform="translate(-119.58 -2250.47)"/><path class="cls-2" d="M1324,2587.58a11.81,11.81,0,0,1,5.5.21l9.86,5.67" transform="translate(-119.58 -2250.47)"/><line class="cls-2" x1="1189.39" y1="363.98" x2="1212.52" y2="351.2"/><path class="cls-2" d="M1278.6,2588.28a13.52,13.52,0,0,0,0,8.66" transform="translate(-119.58 -2250.47)"/><path class="cls-2" d="M1372.45,2615.5l.73-.94a66.36,66.36,0,0,0,6-7.37c4.52-6.63,5.12-11.48,3.08-15.88" transform="translate(-119.58 -2250.47)"/><line class="cls-2" x1="1261.65" y1="367.12" x2="1270.33" y2="372.12"/><path class="cls-2" d="M1305,2692c12,2.05,30.07,1.43,46.39-7.58,15.3-8.46,17.44-18,14.74-24.78" transform="translate(-119.58 -2250.47)"/><line class="cls-2" x1="1112.81" y1="359.51" x2="1200.06" y2="409.74"/><polyline class="cls-2" points="1142.56 456.5 1164.04 468.87 1190.81 454.07"/><line class="cls-2" x1="1042.05" y1="398.62" x2="1046.27" y2="401.05"/><path class="cls-2" d="M1152.16,2683.57a11.87,11.87,0,0,1,5.16.16l59,34" transform="translate(-119.58 -2250.47)"/><line class="cls-2" x1="1026.14" y1="465.05" x2="1049.4" y2="452.19"/><path class="cls-2" d="M1105.88,2684.14a12.93,12.93,0,0,0-.19,8.34" transform="translate(-119.58 -2250.47)"/><path class="cls-2" d="M1205.55,2750a71.65,71.65,0,0,0,42.21-8.06c15.27-8.44,17.49-18.24,14.8-25" transform="translate(-119.58 -2250.47)"/><polyline class="cls-2" points="1053.35 520.34 1061.95 525.29 1088.72 510.5"/><path class="cls-2" d="M1099.83,2806.25c11.55,1.83,25.4.63,36.71-5.62l38.45-21.25" transform="translate(-119.58 -2250.47)"/><path class="cls-2" d="M1003.46,2741.36a11.78,11.78,0,0,0,.26,9.54" transform="translate(-119.58 -2250.47)"/><polyline class="cls-2" points="930.79 490.02 933.14 488.72 992.8 523.08"/><polyline class="cls-2" points="905.29 581.8 931.96 597.15 984.93 567.87"/><polyline class="cls-2" points="858.56 552.96 884.52 567.91 909.01 554.37 922.88 562.36"/><polyline class="cls-2" points="810.4 526.67 837.06 542.03 862.83 527.78 874.44 534.46"/><path class="cls-2" d="M1435.37,2621.84a13.44,13.44,0,0,0-1.53-12L1406.3,2594,1381,2608l14.47,8.33c1.35,1.42.78,3.5-1.93,5a11.46,11.46,0,0,1-3.58,1.24,12.72,12.72,0,0,1-5.46-.18l-12-6.91-3.15-1.82c-1.56-1.69-.47-3.48,3.61-8.68,5-5.46,8-9.89,9.3-13.69a12.37,12.37,0,0,0-1.87-12.25l-38.87-22.38c-13.3-2.67-31.35-2.14-48,7.07-15.14,8.37-17.69,17.32-14.86,24.53a15.94,15.94,0,0,0,1.22,2.49l26.66,15.35,25.35-14-7.86-4.53-5.74-3.3c-1.34-1.42-.78-3.5,2.07-5.07a12.28,12.28,0,0,1,8.9-1l13.07,7.53c1.27,1.48.46,3.28-2.94,7.71l-.82,1.05a76.41,76.41,0,0,0-5.58,7.68,26.84,26.84,0,0,0-3.55,7.79,12.33,12.33,0,0,0,.69,8.11,12.67,12.67,0,0,0,1.51,2.48l40.6,23.38c13.3,2.68,31.49,2.06,48.15-7.15C1429.09,2632,1433.69,2626.76,1435.37,2621.84Z" transform="translate(-119.58 -2250.47)"/><path class="cls-2" d="M1278.55,2596.94l-19.66-11.32-26.77,14.79,93.23,53.69c1.35,1.42.75,3.32-2,4.82a12.26,12.26,0,0,1-3.75,1.29,10.79,10.79,0,0,1-5-.21l-93.23-53.68-26.77,14.8,104.21,60c11.39,3.34,33,4.38,52.22-6.25,9-5,13.42-10.28,15-15.21a13.92,13.92,0,0,0-.48-10.07,15.21,15.21,0,0,0-2.54-4l-33.22-19.13-20.91-12Z" transform="translate(-119.58 -2250.47)"/><polygon class="cls-2" points="1190.53 444.5 1185.41 441.55 1068.55 374.26 1041.78 389.06 1163.76 459.3 1190.53 444.5"/><path class="cls-2" d="M1262.14,2707a14.1,14.1,0,0,0-2.52-3.95l-86.78-50a49.32,49.32,0,0,0-7-1.53c-12-1.79-29.51-.72-45.06,7.88-14.57,8-18,17.52-14.91,24.74a13.61,13.61,0,0,0,1.06,2l36.42,21,25.35-14-16.55-9.52-5.94-3.42c-1.34-1.42-.6-3.4,2.11-4.9a12.16,12.16,0,0,1,8.71-1.08l64.84,37.33c1.37,1.59.78,3.5-1.93,5a12.39,12.39,0,0,1-8.89,1L1186,2703l-25.35,14,39,22.47c13.48,2.78,31.74,1.73,47.84-7.16,9-5,13.48-10.44,15.07-15.46A14,14,0,0,0,1262.14,2707Z" transform="translate(-119.58 -2250.47)"/><polygon class="cls-2" points="986.11 442.01 966.46 430.69 939.69 445.49 1061.68 515.73 1088.45 500.93 1085.97 499.5 1026.14 465.05 986.11 442.01"/><path class="cls-2" d="M1172.93,2770.81l1.78-1-122-70.24-38.44,21.25c-10.87,6-13.94,13.79-10.82,20.53a16.19,16.19,0,0,0,2.47,3.75l87.14,50.17c12.51,3.51,29.67,3.27,43.2-4.21Z" transform="translate(-119.58 -2250.47)"/><path class="cls-2" d="M1050.37,2740.49l-5.12-2.95c-1.52-1.52-.78-3.5,1.93-5l5.26-2.91,69,39.73-5.27,2.92a11.52,11.52,0,0,1-3.8,1.27,11.9,11.9,0,0,1-5.09-.29Z" transform="translate(-119.58 -2250.47)"/><polygon class="cls-2" points="922.88 562.36 905.02 572.23 931.68 587.59 984.65 558.31 980.25 555.78 884.14 500.43 862.67 488.07 810.12 517.11 836.79 532.46 862.56 518.22 882.77 529.86 874.44 534.46 858.28 543.39 884.25 558.34 908.74 544.81 931.22 557.75 922.88 562.36"/><line class="cls-2" x1="985.4" y1="567.53" x2="985.4" y2="558.53"/><line class="cls-2" x1="809.4" y1="526.53" x2="809.4" y2="517.53"/><line class="cls-2" x1="837.4" y1="541.53" x2="837.4" y2="532.53"/><line class="cls-2" x1="904.4" y1="581.53" x2="904.4" y2="572.53"/><line class="cls-2" x1="857.4" y1="552.53" x2="857.4" y2="543.53"/><line class="cls-2" x1="931.4" y1="596.53" x2="931.4" y2="587.53"/><line class="cls-2" x1="909.4" y1="554.53" x2="909.4" y2="545.53"/><line class="cls-2" x1="862.4" y1="528.53" x2="862.4" y2="519.53"/><line class="cls-2" x1="884.4" y1="567.53" x2="884.4" y2="558.53"/><line class="cls-2" x1="932.4" y1="488.53" x2="932.4" y2="480.53"/><line class="cls-2" x1="938.4" y1="452.53" x2="938.4" y2="445.53"/><line class="cls-2" x1="1056.4" y1="528.53" x2="1056.4" y2="520.53"/><line class="cls-2" x1="1089.4" y1="509.53" x2="1089.4" y2="501.53"/><line class="cls-2" x1="1061.4" y1="524.53" x2="1061.4" y2="516.53"/><line class="cls-2" x1="1144.4" y1="471.53" x2="1144.4" y2="463.53"/><line class="cls-2" x1="1040.4" y1="473.53" x2="1040.4" y2="466.53"/><line class="cls-2" x1="1023.4" y1="464.53" x2="1023.4" y2="456.53"/><line class="cls-2" x1="985.4" y1="440.53" x2="985.4" y2="432.53"/><line class="cls-2" x1="1050.4" y1="451.53" x2="1050.4" y2="443.53"/><line class="cls-2" x1="1163.4" y1="467.53" x2="1163.4" y2="459.53"/><line class="cls-2" x1="1191.4" y1="453.53" x2="1191.4" y2="445.53"/><line class="cls-2" x1="1041.4" y1="397.53" x2="1041.4" y2="389.53"/><line class="cls-2" x1="1074.4" y1="378.53" x2="1074.4" y2="370.53"/><line class="cls-2" x1="1111.4" y1="358.53" x2="1111.4" y2="350.53"/><line class="cls-2" x1="1247.9" y1="414.03" x2="1247.9" y2="406.03"/><line class="cls-2" x1="1317.4" y1="374.53" x2="1317.4" y2="366.53"/><line class="cls-2" x1="1186.4" y1="361.53" x2="1186.4" y2="355.53"/><line class="cls-2" x1="1213.4" y1="350.53" x2="1213.4" y2="342.53"/><line class="cls-2" x1="1261.4" y1="366.53" x2="1261.4" y2="358.53"/><line class="cls-2" x1="1263.9" y1="345.03" x2="1263.9" y2="337.03"/><line class="cls-2" x1="1157.9" y1="342.03" x2="1157.9" y2="334.03"/><line class="cls-2" x1="882.4" y1="496.53" x2="882.4" y2="487.53"/><path class="cls-2" d="M1365.64,2346.29l6.81,3.92c13.31,2.68,31.5,2.06,48.15-7.15,14.8-8.18,17.74-17.37,14.77-24.52" transform="translate(-119.58 -2250.47)"/><path class="cls-2" d="M1330.07,2314.79c-.17.51-.31,1-.42,1.46a12.62,12.62,0,0,0,.23,6.94" transform="translate(-119.58 -2250.47)"/><path class="cls-2" d="M1324,2284.29a11.56,11.56,0,0,1,5.5.19l9.86,5.68" transform="translate(-119.58 -2250.47)"/><line class="cls-2" x1="1189.39" y1="60.68" x2="1212.52" y2="47.9"/><path class="cls-2" d="M1278.6,2285a13.45,13.45,0,0,0,0,8.66" transform="translate(-119.58 -2250.47)"/><path class="cls-2" d="M1372.45,2312.19l.73-.93a66.36,66.36,0,0,0,6-7.37c4.52-6.63,5.12-11.48,3.08-15.89" transform="translate(-119.58 -2250.47)"/><line class="cls-2" x1="1261.65" y1="63.82" x2="1270.34" y2="68.82"/><path class="cls-2" d="M1305,2388.71c12,2.07,30.09,1.45,46.42-7.57,15.31-8.46,17.44-18,14.74-24.79" transform="translate(-119.58 -2250.47)"/><line class="cls-2" x1="1112.81" y1="56.21" x2="1200.06" y2="106.44"/><polyline class="cls-2" points="1142.56 153.19 1164.04 165.56 1190.81 150.77"/><line class="cls-2" x1="1042.05" y1="95.32" x2="1046.25" y2="97.74"/><path class="cls-2" d="M1152.17,2380.26a12,12,0,0,1,5.15.17l59,34" transform="translate(-119.58 -2250.47)"/><line class="cls-2" x1="1026.14" y1="161.75" x2="1049.4" y2="148.88"/><path class="cls-2" d="M1105.88,2380.84a12.93,12.93,0,0,0-.19,8.34" transform="translate(-119.58 -2250.47)"/><path class="cls-2" d="M1205.55,2446.67a71.72,71.72,0,0,0,42.21-8.06c15.28-8.45,17.49-18.24,14.8-25" transform="translate(-119.58 -2250.47)"/><polyline class="cls-2" points="1053.35 217.04 1061.95 221.99 1088.72 207.2"/><path class="cls-2" d="M1099.86,2503c11.54,1.82,25.38.63,36.68-5.62l38.45-21.25" transform="translate(-119.58 -2250.47)"/><path class="cls-2" d="M1003.46,2438.07a11.81,11.81,0,0,0,.25,9.52" transform="translate(-119.58 -2250.47)"/><polyline class="cls-2" points="930.79 186.72 933.14 185.42 992.81 219.77"/><polyline class="cls-2" points="905.29 278.5 931.96 293.85 984.93 264.57"/><polyline class="cls-2" points="858.56 249.66 884.52 264.61 909.01 251.07 922.89 259.05"/><polyline class="cls-2" points="810.4 223.37 837.06 238.72 862.83 224.48 874.44 231.16"/><path class="cls-2" d="M1435.37,2318.54a13.44,13.44,0,0,0-1.53-12l-27.54-15.86-25.34,14,14.46,8.33c1.35,1.42.78,3.5-1.93,5a11.4,11.4,0,0,1-3.57,1.24,12.72,12.72,0,0,1-5.46-.18l-12-6.92-3.15-1.81c-1.56-1.7-.47-3.48,3.61-8.69,5-5.46,8-9.89,9.3-13.69a12.34,12.34,0,0,0-1.87-12.24l-38.87-22.38c-13.3-2.68-31.35-2.14-48,7.07-15.15,8.38-17.69,17.33-14.86,24.53a18.38,18.38,0,0,0,1.22,2.48l26.66,15.36,25.35-14-7.86-4.52-5.74-3.31c-1.34-1.42-.78-3.5,2.07-5.08a12.32,12.32,0,0,1,8.9-1l13.07,7.53c1.27,1.48.46,3.28-2.94,7.71l-.82,1.05a76.41,76.41,0,0,0-5.58,7.68,26.84,26.84,0,0,0-3.55,7.79,12.33,12.33,0,0,0,.69,8.11,12.67,12.67,0,0,0,1.51,2.48l40.6,23.38c13.3,2.67,31.49,2.06,48.15-7.15C1429.09,2328.65,1433.69,2323.46,1435.37,2318.54Z" transform="translate(-119.58 -2250.47)"/><path class="cls-2" d="M1278.56,2293.64l-19.67-11.32-26.77,14.79,93.23,53.69c1.35,1.42.75,3.32-2,4.82a12.26,12.26,0,0,1-3.75,1.29,10.79,10.79,0,0,1-5-.21L1221.44,2303l-26.77,14.79,104.21,60c11.39,3.34,33,4.38,52.22-6.25,9-5,13.42-10.29,15-15.22a13.89,13.89,0,0,0-.48-10.06,15.21,15.21,0,0,0-2.54-4l-33.22-19.13-20.91-12Z" transform="translate(-119.58 -2250.47)"/><polygon class="cls-2" points="1190.53 141.2 1185.38 138.24 1068.55 70.96 1041.78 85.76 1163.76 156 1190.53 141.2"/><path class="cls-2" d="M1262.14,2403.66a14.1,14.1,0,0,0-2.52-3.95l-86.78-50a48.28,48.28,0,0,0-7-1.53c-12-1.78-29.5-.7-45,7.88-14.57,8.06-18,17.53-14.91,24.75a13.61,13.61,0,0,0,1.06,2l36.42,21,25.35-14-16.54-9.53-5.94-3.42c-1.35-1.41-.61-3.4,2.1-4.89a12.16,12.16,0,0,1,8.71-1.09l64.84,37.33c1.38,1.6.78,3.5-1.93,5a11.43,11.43,0,0,1-3.61,1.23,11.65,11.65,0,0,1-5.28-.25l-25.1-14.45-25.35,14,39,22.48c13.48,2.78,31.74,1.73,47.84-7.17,9-5,13.48-10.43,15.07-15.46A14,14,0,0,0,1262.14,2403.66Z" transform="translate(-119.58 -2250.47)"/><polygon class="cls-2" points="986.11 138.71 966.46 127.39 939.69 142.19 1061.68 212.43 1088.45 197.63 1085.97 196.2 1026.14 161.75 986.11 138.71"/><path class="cls-2" d="M1172.93,2467.51l1.78-1-122-70.24-38.44,21.25c-10.87,6-13.94,13.8-10.82,20.54a16.13,16.13,0,0,0,2.47,3.74l87.14,50.17c12.51,3.51,29.67,3.27,43.2-4.21Z" transform="translate(-119.58 -2250.47)"/><path class="cls-2" d="M1050.37,2437.19l-5.12-3c-1.52-1.52-.78-3.51,1.93-5l5.27-2.91,69,39.73-5.27,2.91a11.32,11.32,0,0,1-3.79,1.27,11.79,11.79,0,0,1-5.1-.28Z" transform="translate(-119.58 -2250.47)"/><polygon class="cls-2" points="922.89 259.05 905.02 268.93 931.68 284.28 984.65 255 980.28 252.48 884.13 197.12 862.67 184.76 810.12 213.81 836.79 229.16 862.56 214.91 882.78 226.55 874.44 231.16 858.28 240.09 884.25 255.04 908.74 241.5 931.22 254.45 922.89 259.05"/><line class="cls-2" x1="985.4" y1="264.22" x2="985.4" y2="255.22"/><line class="cls-2" x1="809.4" y1="223.22" x2="809.4" y2="214.22"/><line class="cls-2" x1="837.4" y1="238.22" x2="837.4" y2="229.22"/><line class="cls-2" x1="904.4" y1="278.22" x2="904.4" y2="269.22"/><line class="cls-2" x1="857.4" y1="249.22" x2="857.4" y2="240.22"/><line class="cls-2" x1="931.4" y1="293.22" x2="931.4" y2="284.22"/><line class="cls-2" x1="909.4" y1="251.22" x2="909.4" y2="242.22"/><line class="cls-2" x1="862.4" y1="225.22" x2="862.4" y2="216.22"/><line class="cls-2" x1="884.4" y1="264.22" x2="884.4" y2="255.22"/><line class="cls-2" x1="932.4" y1="185.22" x2="932.4" y2="177.22"/><line class="cls-2" x1="938.4" y1="149.22" x2="938.4" y2="142.22"/><line class="cls-2" x1="1056.4" y1="225.22" x2="1056.4" y2="217.22"/><line class="cls-2" x1="1089.4" y1="206.22" x2="1089.4" y2="198.22"/><line class="cls-2" x1="1061.4" y1="221.22" x2="1061.4" y2="213.22"/><line class="cls-2" x1="1144.4" y1="168.22" x2="1144.4" y2="160.22"/><line class="cls-2" x1="1040.4" y1="170.22" x2="1040.4" y2="163.22"/><line class="cls-2" x1="1023.4" y1="161.22" x2="1023.4" y2="153.22"/><line class="cls-2" x1="985.4" y1="137.22" x2="985.4" y2="129.22"/><line class="cls-2" x1="1050.4" y1="148.22" x2="1050.4" y2="140.22"/><line class="cls-2" x1="1163.4" y1="164.22" x2="1163.4" y2="156.22"/><line class="cls-2" x1="1191.4" y1="150.22" x2="1191.4" y2="142.22"/><line class="cls-2" x1="1041.4" y1="94.22" x2="1041.4" y2="86.22"/><line class="cls-2" x1="1074.4" y1="75.22" x2="1074.4" y2="67.22"/><line class="cls-2" x1="1111.4" y1="55.22" x2="1111.4" y2="47.22"/><line class="cls-2" x1="1247.9" y1="110.72" x2="1247.9" y2="102.72"/><line class="cls-2" x1="1317.4" y1="71.22" x2="1317.4" y2="63.22"/><line class="cls-2" x1="1186.4" y1="58.22" x2="1186.4" y2="52.22"/><line class="cls-2" x1="1213.4" y1="47.22" x2="1213.4" y2="39.22"/><line class="cls-2" x1="1261.4" y1="63.22" x2="1261.4" y2="55.22"/><line class="cls-2" x1="1263.9" y1="41.72" x2="1263.9" y2="33.72"/><line class="cls-2" x1="1157.9" y1="38.72" x2="1157.9" y2="30.72"/><line class="cls-2" x1="882.4" y1="193.22" x2="882.4" y2="184.22"/><line class="cls-4" x1="1317.23" y1="75.92" x2="1317.23" y2="81.92"/><line class="cls-8" x1="1317.23" y1="93.72" x2="1317.23" y2="583.44"/><line class="cls-4" x1="1317.23" y1="589.34" x2="1317.23" y2="595.34"/><line class="cls-4" x1="810.23" y1="223.03" x2="810.23" y2="229.03"/><line class="cls-9" x1="810.23" y1="241.04" x2="810.23" y2="739.69"/><line class="cls-4" x1="810.23" y1="745.7" x2="810.23" y2="751.7"/><line class="cls-4" x1="931.23" y1="293.03" x2="931.23" y2="299.03"/><line class="cls-10" x1="931.23" y1="311.11" x2="931.23" y2="812.48"/><line class="cls-4" x1="931.23" y1="818.53" x2="931.23" y2="824.53"/><path class="cls-11" d="M1575.38,2315.35h-2.1v-14.7h2.1Z" transform="translate(-119.58 -2250.47)"/><path class="cls-11" d="M1586.93,2312.07h.36v-11.42h2v14.7h-2.65l-5.85-11.42h-.36v11.42h-2v-14.7h2.64Z" transform="translate(-119.58 -2250.47)"/><path class="cls-11" d="M1597.7,2315.35h-5.39v-14.7h5.39a5.42,5.42,0,0,1,3.17.84,4.9,4.9,0,0,1,1.77,2.06v8.9a4.9,4.9,0,0,1-1.77,2.06A5.49,5.49,0,0,1,1597.7,2315.35Zm-.35-13h-2.94v11.38h2.94a3.82,3.82,0,0,0,2-.51,2.66,2.66,0,0,0,1.16-1.28v-7.81a2.89,2.89,0,0,0-1.16-1.3A4.12,4.12,0,0,0,1597.35,2302.31Z" transform="translate(-119.58 -2250.47)"/><path class="cls-11" d="M1614.08,2314.68a5.59,5.59,0,0,1-3.42,1,5.5,5.5,0,0,1-5.29-3.21v-11.78h2.1V2312a2.91,2.91,0,0,0,1.15,1.4,3.94,3.94,0,0,0,4.08,0,3.21,3.21,0,0,0,1.17-1.4v-11.3h2.1v11.78A5.71,5.71,0,0,1,1614.08,2314.68Z" transform="translate(-119.58 -2250.47)"/><path class="cls-11" d="M1620.51,2312.28a3.24,3.24,0,0,0,1.13,1.18,4,4,0,0,0,3.89,0,3.24,3.24,0,0,0,1.13-1.18v-1.85a2.94,2.94,0,0,0-.84-.92,5.13,5.13,0,0,0-1.64-.65l-1.44-.36a8.38,8.38,0,0,1-2.86-1.09,4.48,4.48,0,0,1-1.41-1.47v-2.81a5.49,5.49,0,0,1,1.81-1.93,5.73,5.73,0,0,1,3.32-.84,5.63,5.63,0,0,1,3.27.86,5.8,5.8,0,0,1,1.81,1.91V2305h-2v-1.35a3.14,3.14,0,0,0-1.13-1.17,4,4,0,0,0-3.89,0,3,3,0,0,0-1.13,1.17v1.47a2.31,2.31,0,0,0,.84.86,6,6,0,0,0,1.7.68l1.39.37a9.49,9.49,0,0,1,2.85,1.12,4.84,4.84,0,0,1,1.39,1.47v3.19a5.68,5.68,0,0,1-1.81,1.93,5.48,5.48,0,0,1-3.27.86,5.71,5.71,0,0,1-3.3-.86,5.94,5.94,0,0,1-1.83-1.93v-2.1h2Z" transform="translate(-119.58 -2250.47)"/><path class="cls-11" d="M1630.09,2300.65h10.08v1.66h-4v13h-2.1v-13h-4Z" transform="translate(-119.58 -2250.47)"/><path class="cls-11" d="M1652.07,2315.35h-1.66l-3.75-5.92h-2.33v5.92h-2.1v-14.7h5.52a4.63,4.63,0,0,1,2.43.65,4.94,4.94,0,0,1,1.77,1.83v3.8a4.53,4.53,0,0,1-1.26,1.51,4.42,4.42,0,0,1-1.83.86l3.21,4.77Zm-4.78-7.58a3.06,3.06,0,0,0,1.57-.4,2.72,2.72,0,0,0,1.09-1.09v-2.46a2.7,2.7,0,0,0-1.09-1.13,3.25,3.25,0,0,0-1.57-.38h-3v5.46Z" transform="translate(-119.58 -2250.47)"/><path class="cls-11" d="M1656.76,2315.35h-2.1v-14.7h2.1Z" transform="translate(-119.58 -2250.47)"/><path class="cls-11" d="M1670.45,2315.35h-1.85l-1.24-4.12h-5.56l-1.24,4.12h-1.66v-1.28l4.18-13.42h3.17l4.2,13.42Zm-5.69-12.85h-.36l-2.12,7.07h4.6Z" transform="translate(-119.58 -2250.47)"/><path class="cls-11" d="M1674.71,2313.69h5.42v1.66h-7.52v-14.7h2.1Z" transform="translate(-119.58 -2250.47)"/><path class="cls-11" d="M1695.71,2315.35h-1.66l-3.76-5.92H1688v5.92h-2.1v-14.7h5.52a4.67,4.67,0,0,1,2.44.65,4.91,4.91,0,0,1,1.76,1.83v3.8a4.62,4.62,0,0,1-3.08,2.37l3.21,4.77Zm-4.79-7.58a3.09,3.09,0,0,0,1.58-.4,2.72,2.72,0,0,0,1.09-1.09v-2.46a2.7,2.7,0,0,0-1.09-1.13,3.29,3.29,0,0,0-1.58-.38h-3v5.46Z" transform="translate(-119.58 -2250.47)"/><path class="cls-11" d="M1706.92,2314.68a5.59,5.59,0,0,1-3.42,1,5.5,5.5,0,0,1-5.29-3.21v-11.78h2.1V2312a2.91,2.91,0,0,0,1.15,1.4,3.94,3.94,0,0,0,4.08,0,3.21,3.21,0,0,0,1.17-1.4v-11.3h2.1v11.78A5.71,5.71,0,0,1,1706.92,2314.68Z" transform="translate(-119.58 -2250.47)"/><path class="cls-11" d="M1719.75,2301.34a5.29,5.29,0,0,1,1.64,1.79V2306a3.78,3.78,0,0,1-.82,1,4.82,4.82,0,0,1-1.11.75,5.09,5.09,0,0,1,1.2.72,4,4,0,0,1,.92,1v3.4a5,5,0,0,1-1.64,1.76,4.63,4.63,0,0,1-2.64.74h-5.52v-14.7h5.52A4.41,4.41,0,0,1,1719.75,2301.34Zm-.31,4.22v-1.74a3,3,0,0,0-1-1.11,2.87,2.87,0,0,0-1.53-.4h-3V2307H1717a2.68,2.68,0,0,0,1.35-.38A3,3,0,0,0,1719.44,2305.56Zm.19,4.43a2.73,2.73,0,0,0-1.07-1,3.12,3.12,0,0,0-1.54-.39h-3.14v5.12h3a2.93,2.93,0,0,0,2.77-1.53Z" transform="translate(-119.58 -2250.47)"/><path class="cls-11" d="M1732.08,2301.34a5.39,5.39,0,0,1,1.64,1.79V2306a3.78,3.78,0,0,1-.82,1,.81.81,0,1,0,.08,1.47,4,4,0,0,1,.93,1v3.4a5.09,5.09,0,0,1-1.64,1.76,4.65,4.65,0,0,1-2.64.74h-5.53v-14.7h5.53A4.41,4.41,0,0,1,1732.08,2301.34Zm-.31,4.22v-1.74a3,3,0,0,0-1-1.11,2.9,2.9,0,0,0-1.54-.4h-3V2307h3.15a2.74,2.74,0,0,0,1.35-.38A3.14,3.14,0,0,0,1731.77,2305.56Zm.19,4.43a2.76,2.76,0,0,0-1.08-1,3.08,3.08,0,0,0-1.53-.39h-3.15v5.12h3a3,3,0,0,0,2.78-1.53Z" transform="translate(-119.58 -2250.47)"/><path class="cls-11" d="M1745.08,2302.31h-6.55V2307h6.09v1.66h-6.09v5.08h6.72v1.66h-8.82v-14.7h8.65Z" transform="translate(-119.58 -2250.47)"/><path class="cls-11" d="M1757.6,2315.35h-1.66l-3.76-5.92h-2.33v5.92h-2.1v-14.7h5.52a4.69,4.69,0,0,1,2.44.65,4.91,4.91,0,0,1,1.76,1.83v3.8a4.31,4.31,0,0,1-1.26,1.51,4.36,4.36,0,0,1-1.83.86l3.22,4.77Zm-4.79-7.58a3,3,0,0,0,1.57-.4,2.81,2.81,0,0,0,1.1-1.09v-2.46a2.72,2.72,0,0,0-1.1-1.13,3.23,3.23,0,0,0-1.57-.38h-3v5.46Z" transform="translate(-119.58 -2250.47)"/><path class="cls-11" d="M1581.72,2327.47h-6.34v4.76h6v1.62h-6v6.7h-2.1v-14.7h8.44Z" transform="translate(-119.58 -2250.47)"/><path class="cls-11" d="M1588.8,2325.56a5.72,5.72,0,0,1,3.42.94,5.65,5.65,0,0,1,1.89,2.25v8.88a5.71,5.71,0,0,1-1.89,2.25,6.57,6.57,0,0,1-6.84,0,5.71,5.71,0,0,1-1.89-2.25v-8.88a5.65,5.65,0,0,1,1.89-2.25A5.72,5.72,0,0,1,1588.8,2325.56Zm0,13.6a3.57,3.57,0,0,0,2-.57,3,3,0,0,0,1.17-1.4v-8a3.05,3.05,0,0,0-1.17-1.41,3.94,3.94,0,0,0-4.08,0,3.05,3.05,0,0,0-1.17,1.41v8a3,3,0,0,0,1.17,1.4A3.57,3.57,0,0,0,1588.8,2339.16Z" transform="translate(-119.58 -2250.47)"/><path class="cls-11" d="M1606.75,2340.55h-1.66l-3.75-5.92H1599v5.92h-2.1v-14.7h5.52a4.63,4.63,0,0,1,2.43.65,4.86,4.86,0,0,1,1.77,1.83v3.8a4.53,4.53,0,0,1-1.26,1.51,4.42,4.42,0,0,1-1.83.86l3.21,4.77ZM1602,2333a3.06,3.06,0,0,0,1.57-.4,2.72,2.72,0,0,0,1.09-1.09V2329a2.7,2.7,0,0,0-1.09-1.13,3.25,3.25,0,0,0-1.57-.38h-3V2333Z" transform="translate(-119.58 -2250.47)"/><path class="cls-11" d="M1619.57,2337.48a3.15,3.15,0,0,0,1.13,1.18,3.6,3.6,0,0,0,2,.5,3.55,3.55,0,0,0,1.93-.5,3.19,3.19,0,0,0,1.14-1.18v-1.85a3.06,3.06,0,0,0-.84-.92,5.34,5.34,0,0,0-1.64-.65l-1.45-.36a8.31,8.31,0,0,1-2.85-1.09,4.38,4.38,0,0,1-1.41-1.47v-2.81a5.55,5.55,0,0,1,1.8-1.93,5.75,5.75,0,0,1,3.32-.84,5.64,5.64,0,0,1,3.28.86,5.76,5.76,0,0,1,1.8,1.91v1.91h-2v-1.35a3.09,3.09,0,0,0-1.14-1.17,3.47,3.47,0,0,0-1.93-.51,3.52,3.52,0,0,0-2,.51,3,3,0,0,0-1.13,1.17v1.47a2.33,2.33,0,0,0,.84.87,6.18,6.18,0,0,0,1.7.67l1.38.37a9.58,9.58,0,0,1,2.86,1.12,4.81,4.81,0,0,1,1.38,1.47v3.19a5.64,5.64,0,0,1-1.8,1.93,5.49,5.49,0,0,1-3.28.86,5.67,5.67,0,0,1-3.29-.86,5.94,5.94,0,0,1-1.83-1.93V2336h2Z" transform="translate(-119.58 -2250.47)"/><path class="cls-11" d="M1629.14,2325.85h10.08v1.66h-4v13h-2.1v-13h-4Z" transform="translate(-119.58 -2250.47)"/><path class="cls-11" d="M1650.46,2340.55h-1.85l-1.24-4.12h-5.57l-1.23,4.12h-1.66v-1.28l4.17-13.42h3.18l4.2,13.42Zm-5.7-12.85h-.35l-2.12,7.07h4.6Z" transform="translate(-119.58 -2250.47)"/><path class="cls-11" d="M1659.32,2334h.35l3.64-8.19h3v14.7h-2v-11.8H1664l-3.72,8.27h-1.59l-3.72-8.27h-.36v11.8h-2v-14.7h3Z" transform="translate(-119.58 -2250.47)"/><path class="cls-11" d="M1677.19,2326.5a4.91,4.91,0,0,1,1.76,1.83v4.28a4.78,4.78,0,0,1-1.7,1.79,4.63,4.63,0,0,1-2.52.69h-3.27v5.46h-2.1v-14.7h5.37A4.82,4.82,0,0,1,1677.19,2326.5Zm-.3,5.42V2329a2.62,2.62,0,0,0-1.13-1.15,3.35,3.35,0,0,0-1.51-.36h-2.79v5.92h2.79a3.14,3.14,0,0,0,1.57-.4A2.55,2.55,0,0,0,1676.89,2331.92Z" transform="translate(-119.58 -2250.47)"/><path class="cls-11" d="M1683,2337.48a3.27,3.27,0,0,0,1.14,1.18,4,4,0,0,0,3.88,0,3.19,3.19,0,0,0,1.14-1.18v-1.85a3.06,3.06,0,0,0-.84-.92,5.34,5.34,0,0,0-1.64-.65l-1.45-.36a8.47,8.47,0,0,1-2.86-1.09,4.45,4.45,0,0,1-1.4-1.47v-2.81a5.55,5.55,0,0,1,1.8-1.93,5.75,5.75,0,0,1,3.32-.84,5.64,5.64,0,0,1,3.28.86,5.76,5.76,0,0,1,1.8,1.91v1.91h-2v-1.35a3.09,3.09,0,0,0-1.14-1.17,3.94,3.94,0,0,0-3.88,0,3,3,0,0,0-1.14,1.17v1.47a2.49,2.49,0,0,0,.84.87,6.47,6.47,0,0,0,1.7.67l1.39.37a9.58,9.58,0,0,1,2.86,1.12,4.81,4.81,0,0,1,1.38,1.47v3.19a5.64,5.64,0,0,1-1.8,1.93,5.49,5.49,0,0,1-3.28.86,5.73,5.73,0,0,1-3.3-.86,6,6,0,0,1-1.82-1.93V2336h2Z" transform="translate(-119.58 -2250.47)"/><path class="cls-11" d="M1580.81,2630.35a3.24,3.24,0,0,0,1.13,1.18,4,4,0,0,0,3.89,0,3.24,3.24,0,0,0,1.13-1.18v-1.85a2.94,2.94,0,0,0-.84-.92,5.23,5.23,0,0,0-1.64-.65l-1.45-.36a8.4,8.4,0,0,1-2.85-1.09,4.48,4.48,0,0,1-1.41-1.47v-2.81a5.6,5.6,0,0,1,1.81-1.94,5.81,5.81,0,0,1,3.32-.84,5.63,5.63,0,0,1,3.27.87,5.8,5.8,0,0,1,1.81,1.91v1.91h-2v-1.35a3.14,3.14,0,0,0-1.13-1.17,4,4,0,0,0-3.89,0,3,3,0,0,0-1.13,1.17v1.47a2.31,2.31,0,0,0,.84.86,6.14,6.14,0,0,0,1.7.68l1.39.37a9.49,9.49,0,0,1,2.85,1.12,4.84,4.84,0,0,1,1.39,1.47v3.19a5.68,5.68,0,0,1-1.81,1.93,5.48,5.48,0,0,1-3.27.86,5.71,5.71,0,0,1-3.3-.86,5.94,5.94,0,0,1-1.83-1.93v-2.1h2Z" transform="translate(-119.58 -2250.47)"/><path class="cls-11" d="M1596.64,2618.42a5.72,5.72,0,0,1,3.42.95,5.43,5.43,0,0,1,1.89,2.25v8.88a5.46,5.46,0,0,1-1.89,2.24,5.9,5.9,0,0,1-8.73-2.24v-8.88a5.58,5.58,0,0,1,1.89-2.25A5.74,5.74,0,0,1,1596.64,2618.42Zm0,13.61a3.57,3.57,0,0,0,2-.57,3,3,0,0,0,1.17-1.4v-8a3,3,0,0,0-1.17-1.41,3.57,3.57,0,0,0-2-.57,3.51,3.51,0,0,0-2,.57,3,3,0,0,0-1.18,1.41v8a3,3,0,0,0,1.18,1.4A3.51,3.51,0,0,0,1596.64,2632Z" transform="translate(-119.58 -2250.47)"/><path class="cls-11" d="M1613.19,2620.33h-6.34v4.77h6v1.62h-6v6.7h-2.1v-14.7h8.44Z" transform="translate(-119.58 -2250.47)"/><path class="cls-11" d="M1614.53,2618.72h10.08v1.66h-4v13h-2.1v-13h-4Z" transform="translate(-119.58 -2250.47)"/><path class="cls-11" d="M1640.22,2633.42h-1.66l-3.76-5.92h-2.33v5.92h-2.1v-14.7h5.52a4.69,4.69,0,0,1,2.44.65,4.91,4.91,0,0,1,1.76,1.83v3.8a4.53,4.53,0,0,1-1.26,1.51,4.31,4.31,0,0,1-1.83.86l3.22,4.76Zm-4.79-7.58a3,3,0,0,0,1.57-.4,2.66,2.66,0,0,0,1.09-1.09v-2.46a2.72,2.72,0,0,0-1.09-1.14,3.33,3.33,0,0,0-1.57-.37h-3v5.46Z" transform="translate(-119.58 -2250.47)"/><path class="cls-11" d="M1651.43,2632.74a5.61,5.61,0,0,1-3.42,1,5.49,5.49,0,0,1-3.4-1,5.34,5.34,0,0,1-1.89-2.24v-11.78h2.1V2630a2.84,2.84,0,0,0,1.15,1.41,3.57,3.57,0,0,0,2,.57,3.51,3.51,0,0,0,2-.57,3.13,3.13,0,0,0,1.18-1.41v-11.29h2.1v11.78A5.62,5.62,0,0,1,1651.43,2632.74Z" transform="translate(-119.58 -2250.47)"/><path class="cls-11" d="M1664.26,2619.41a5.3,5.3,0,0,1,1.64,1.79v2.85a3.78,3.78,0,0,1-.82,1,5.71,5.71,0,0,1-1.11.75,5,5,0,0,1,1.19.72,4,4,0,0,1,.93,1v3.4a5.09,5.09,0,0,1-1.64,1.76,4.74,4.74,0,0,1-2.65.74h-5.52v-14.7h5.52A4.42,4.42,0,0,1,1664.26,2619.41Zm-.31,4.22v-1.74a3,3,0,0,0-1-1.11,2.9,2.9,0,0,0-1.54-.4h-3V2625h3.15a2.74,2.74,0,0,0,1.35-.38A3.14,3.14,0,0,0,1664,2623.63Zm.19,4.43a2.76,2.76,0,0,0-1.08-1,3.1,3.1,0,0,0-1.53-.4h-3.15v5.13h3a2.94,2.94,0,0,0,2.78-1.54Z" transform="translate(-119.58 -2250.47)"/><path class="cls-11" d="M1676.59,2619.41a5.3,5.3,0,0,1,1.64,1.79v2.85a4,4,0,0,1-.82,1,5.48,5.48,0,0,1-1.12.75,5.09,5.09,0,0,1,1.2.72,4.24,4.24,0,0,1,.93,1v3.4a5.09,5.09,0,0,1-1.64,1.76,4.76,4.76,0,0,1-2.65.74h-5.52v-14.7h5.52A4.45,4.45,0,0,1,1676.59,2619.41Zm-.32,4.22v-1.74a2.83,2.83,0,0,0-2.58-1.51h-3V2625h3.15a2.67,2.67,0,0,0,1.34-.38A3,3,0,0,0,1676.27,2623.63Zm.19,4.43a2.73,2.73,0,0,0-1.07-1,3.12,3.12,0,0,0-1.53-.4h-3.15v5.13h3a2.91,2.91,0,0,0,2.77-1.54Z" transform="translate(-119.58 -2250.47)"/><path class="cls-11" d="M1689.59,2620.38H1683V2625h6.09v1.66H1683v5.08h6.71v1.66h-8.81v-14.7h8.65Z" transform="translate(-119.58 -2250.47)"/><path class="cls-11" d="M1702.1,2633.42h-1.66l-3.75-5.92h-2.34v5.92h-2.1v-14.7h5.53a4.63,4.63,0,0,1,2.43.65,4.86,4.86,0,0,1,1.77,1.83v3.8a4.53,4.53,0,0,1-1.26,1.51,4.42,4.42,0,0,1-1.83.86l3.21,4.76Zm-4.78-7.58a3.06,3.06,0,0,0,1.57-.4,2.72,2.72,0,0,0,1.09-1.09v-2.46a2.78,2.78,0,0,0-1.09-1.14,3.36,3.36,0,0,0-1.57-.37h-3v5.46Z" transform="translate(-119.58 -2250.47)"/><path class="cls-11" d="M1716.84,2619.37a4.86,4.86,0,0,1,1.77,1.83v4.28a4.83,4.83,0,0,1-1.7,1.78,4.6,4.6,0,0,1-2.52.7h-3.28v5.46H1709v-14.7h5.38A4.76,4.76,0,0,1,1716.84,2619.37Zm-.29,5.42v-2.9a2.64,2.64,0,0,0-1.13-1.16,3.51,3.51,0,0,0-1.51-.35h-2.8v5.92h2.8a3.16,3.16,0,0,0,1.57-.4A2.61,2.61,0,0,0,1716.55,2624.79Z" transform="translate(-119.58 -2250.47)"/><path class="cls-11" d="M1730.75,2633.42h-1.85l-1.24-4.12h-5.56l-1.24,4.12h-1.66v-1.29l4.18-13.41h3.17l4.2,13.41Zm-5.69-12.85h-.36l-2.12,7.07h4.6Z" transform="translate(-119.58 -2250.47)"/><path class="cls-11" d="M1738.31,2633.42h-5.4v-14.7h5.4a5.46,5.46,0,0,1,3.17.84,4.87,4.87,0,0,1,1.76,2.06v8.9a4.87,4.87,0,0,1-1.76,2.06A5.54,5.54,0,0,1,1738.31,2633.42Zm-.36-13H1735v11.38H1738a3.89,3.89,0,0,0,2-.51,2.68,2.68,0,0,0,1.15-1.28v-7.81a2.92,2.92,0,0,0-1.15-1.3A4.08,4.08,0,0,0,1738,2620.38Z" transform="translate(-119.58 -2250.47)"/><text class="cls-12" transform="translate(1521.74 237.11)">+</text></g></svg>