<svg xmlns="http://www.w3.org/2000/svg" viewBox="0 0 1683.22 864.6"><defs><style>.cls-1,.cls-12,.cls-13,.cls-14,.cls-15,.cls-16,.cls-17,.cls-2,.cls-3,.cls-4,.cls-5,.cls-7,.cls-9{fill:none;}.cls-1,.cls-11,.cls-12,.cls-13,.cls-14,.cls-17,.cls-2,.cls-3,.cls-4,.cls-7,.cls-8,.cls-9{stroke:#ffeb00;}.cls-1,.cls-11,.cls-12,.cls-13,.cls-14,.cls-15,.cls-16,.cls-17,.cls-2,.cls-3,.cls-4,.cls-9{stroke-linecap:round;stroke-linejoin:round;}.cls-1,.cls-13,.cls-14,.cls-15,.cls-16,.cls-17,.cls-2,.cls-3,.cls-4{stroke-width:1.5px;}.cls-2{stroke-dasharray:7.23 7.23;}.cls-3{stroke-dasharray:9.58 9.58;}.cls-4{stroke-dasharray:13.95 13.95;}.cls-10,.cls-11,.cls-6,.cls-8{fill:#ffeb00;}.cls-12,.cls-6{fill-rule:evenodd;}.cls-7,.cls-8{stroke-miterlimit:10;}.cls-11,.cls-12,.cls-7,.cls-9{stroke-width:3px;}.cls-8{stroke-width:0.5px;}.cls-13{stroke-dasharray:12.11 12.11;}.cls-14{stroke-dasharray:11.84 11.84;}.cls-15,.cls-16{stroke:#553c91;}.cls-16{stroke-dasharray:13.07 13.07;}.cls-17{stroke-dasharray:12.11 12.11;}</style></defs><title>instruzioni sito_5</title><g id="testo"><line class="cls-1" x1="1310.99" y1="85.66" x2="1310.99" y2="79.66"/><line class="cls-2" x1="1310.99" y1="72.43" x2="1310.99" y2="61.59"/><line class="cls-1" x1="1310.99" y1="57.97" x2="1310.98" y2="51.97"/><line class="cls-1" x1="1310.99" y1="160.22" x2="1310.99" y2="154.22"/><line class="cls-3" x1="1310.99" y1="144.64" x2="1310.99" y2="130.27"/><line class="cls-1" x1="1310.99" y1="125.48" x2="1310.99" y2="119.48"/><line class="cls-1" x1="1310.99" y1="502.63" x2="1310.99" y2="496.63"/><line class="cls-4" x1="1310.99" y1="482.68" x2="1310.99" y2="433.84"/><line class="cls-1" x1="1310.99" y1="426.86" x2="1310.99" y2="420.86"/><path class="cls-5" d="M1432.49,4950.74" transform="translate(-121.5 -4439.14)"/><polygon class="cls-6" points="1490.24 263.71 1501.47 257.23 1310.98 147.25 1299.76 153.73 1490.24 263.71"/><polygon class="cls-6" points="1545.97 282.92 1420 355.34 1185.54 219.68 1072.98 284.66 1420 485.01 1658 347.6 1545.97 282.92"/><polygon class="cls-6" points="1461.2 280.48 1270.71 170.5 1235.34 190.93 1425.8 300.91 1461.2 280.48"/><rect class="cls-7" x="570.91" y="580.49" width="379.59" height="17.37"/><rect class="cls-7" x="611.94" y="470.37" width="296.89" height="42.18"/><rect class="cls-7" x="642.86" y="428.33" width="234.86" height="42.18"/><rect class="cls-7" x="629.63" y="512.68" width="262.98" height="8.27"/><rect class="cls-7" x="629.63" y="521.78" width="262.98" height="8.27"/><path class="cls-8" d="M904.93,4771.17h4.4v4l-24.53,24.54h-4.18l-24.47-24.54v-4h4.41l18.77,19V4742H886v48.17Z" transform="translate(-121.5 -4439.14)"/><rect class="cls-9" x="1.5" y="446.86" width="425" height="149"/><path class="cls-10" d="M127,4504h-2.1v-14.7H127Z" transform="translate(-121.5 -4439.14)"/><path class="cls-10" d="M138.52,4500.71h.36v-11.42h2V4504h-2.65l-5.85-11.42H132V4504H130v-14.7h2.64Z" transform="translate(-121.5 -4439.14)"/><path class="cls-10" d="M153.77,4504h-1.52l-4.76-6.91-1.49,1.6V4504h-2.1v-14.7H146v6.49h.31l6-6.49h1.33v1.28l-4.75,5.06,4.92,7.08Z" transform="translate(-121.5 -4439.14)"/><path class="cls-10" d="M158.05,4504H156v-14.7h2.1Z" transform="translate(-121.5 -4439.14)"/><path class="cls-10" d="M169.6,4500.71H170v-11.42h1.95V4504h-2.65l-5.86-11.42h-.35V4504h-2v-14.7h2.64Z" transform="translate(-121.5 -4439.14)"/><path class="cls-10" d="M183.23,4492.63a3,3,0,0,0-1.18-1.41,3.94,3.94,0,0,0-4.05,0,3.06,3.06,0,0,0-1.2,1.41v8A3.06,3.06,0,0,0,178,4502a3.63,3.63,0,0,0,2.06.56,3.74,3.74,0,0,0,2.06-.54,3,3,0,0,0,1.15-1.37v-2.81h-2.94v-1.66h4.93v5a5.36,5.36,0,0,1-1.84,2.16,5.77,5.77,0,0,1-3.4.92,5.51,5.51,0,0,1-5.32-3.21v-8.88a5.65,5.65,0,0,1,1.89-2.25A5.77,5.77,0,0,1,180,4489a5.71,5.71,0,0,1,3.38.92,5.6,5.6,0,0,1,1.86,2.14v2.19h-2Z" transform="translate(-121.5 -4439.14)"/><path class="cls-10" d="M300.61,4968.32h-2.1v-14.7h2.1Z" transform="translate(-121.5 -4439.14)"/><path class="cls-10" d="M312.16,4965h.36v-11.42h2v14.7h-2.64L306,4956.9h-.36v11.42h-1.95v-14.7h2.64Z" transform="translate(-121.5 -4439.14)"/><path class="cls-10" d="M327.41,4968.32H325.9l-4.77-6.91-1.49,1.6v5.31h-2.1v-14.7h2.1v6.49H320l6-6.49h1.32v1.28l-4.75,5.06,4.92,7.08Z" transform="translate(-121.5 -4439.14)"/><path class="cls-10" d="M341.75,4954.27a4.84,4.84,0,0,1,1.76,1.83v4.28a4.7,4.7,0,0,1-1.7,1.79,4.63,4.63,0,0,1-2.52.69H336v5.46h-2.1v-14.7h5.37A4.77,4.77,0,0,1,341.75,4954.27Zm-.29,5.42v-2.9a2.64,2.64,0,0,0-1.14-1.15,3.46,3.46,0,0,0-1.51-.36H336v5.92h2.79a3.2,3.2,0,0,0,1.58-.4A2.61,2.61,0,0,0,341.46,4959.69Z" transform="translate(-121.5 -4439.14)"/><path class="cls-10" d="M355.65,4968.32H353.8l-1.23-4.12H347l-1.24,4.12H344.1V4967l4.18-13.42h3.17l4.2,13.42ZM350,4955.47h-.35l-2.13,7.07h4.6Z" transform="translate(-121.5 -4439.14)"/><path class="cls-10" d="M363.21,4968.32h-5.39v-14.7h5.39a5.46,5.46,0,0,1,3.17.84,4.9,4.9,0,0,1,1.77,2.06v8.9a4.9,4.9,0,0,1-1.77,2.06A5.54,5.54,0,0,1,363.21,4968.32Zm-.35-13h-2.94v11.38h2.94a3.94,3.94,0,0,0,2-.5,2.75,2.75,0,0,0,1.16-1.28v-7.82a2.89,2.89,0,0,0-1.16-1.3A4.14,4.14,0,0,0,362.86,4955.28Z" transform="translate(-121.5 -4439.14)"/><line class="cls-7" x1="68.37" y1="206.07" x2="87.25" y2="206.07"/><line class="cls-7" x1="70.35" y1="245.33" x2="85.27" y2="245.33"/><line class="cls-7" x1="64.89" y1="236.39" x2="90.73" y2="236.39"/><line class="cls-7" x1="56.93" y1="273.17" x2="99.68" y2="273.17"/><line class="cls-7" x1="42.52" y1="303.99" x2="113.6" y2="303.99"/><path class="cls-7" d="M238,4749.73l-28.69-62.19a10.74,10.74,0,0,0-2.34-3.31,8.66,8.66,0,0,0,5.12-8.94l-3-25.47v0l-1.18-10c-1.2-10.2-16-10.2-17.22,0l-1.33,11.33v0l-2.84,24.14a8.66,8.66,0,0,0,5.45,9.07,11,11,0,0,0-2.21,3.18l-28.69,62.19a10.76,10.76,0,0,0,9.78,15.27h57.36A10.76,10.76,0,0,0,238,4749.73Zm-45.81-74.2v0Zm2.81,0v0Zm2.82,0v0Zm2.82,0v0Zm2.82,0v0Zm2.82,0v0Z" transform="translate(-121.5 -4439.14)"/><line class="cls-7" x1="298.62" y1="379.84" x2="283.29" y2="390.87"/><line class="cls-7" x1="274.08" y1="349.12" x2="261.98" y2="357.82"/><line class="cls-7" x1="283.75" y1="353.19" x2="262.76" y2="368.28"/><line class="cls-7" x1="268.73" y1="318.68" x2="234.02" y2="343.64"/><line class="cls-7" x1="262.45" y1="285.24" x2="204.73" y2="326.74"/><path class="cls-7" d="M320,4762.21,379.62,4796a10.73,10.73,0,0,0,3.83,1.32,8.66,8.66,0,0,0,1.07,10.25l17.29,18.93-15-20.87,15,20.87,6.79,7.43c6.94,7.59,19-1.06,14-10.05l-5.53-10-14.22-19.79,14.22,19.79-11.78-21.25a8.66,8.66,0,0,0-9.72-4.19,11,11,0,0,0-.06-3.87l-13-67.24a10.76,10.76,0,0,0-16.85-6.69l-46.58,33.48A10.76,10.76,0,0,0,320,4762.21Zm80.51,33.51,17.7,24.62Zm-2.29,1.64L416,4822ZM396,4799l17.7,24.62Zm-2.29,1.64,17.7,24.62Zm-2.29,1.65,17.7,24.62Zm-2.28,1.64,17.7,24.62Z" transform="translate(-121.5 -4439.14)"/><path class="cls-10" d="M731.92,4490.43a4.91,4.91,0,0,1,1.76,1.83v4.28a4.73,4.73,0,0,1-4.22,2.48h-3.27v5.46h-2.1v-14.7h5.37A4.79,4.79,0,0,1,731.92,4490.43Zm-.29,5.42V4493a2.69,2.69,0,0,0-1.14-1.15,3.46,3.46,0,0,0-1.51-.36h-2.79v5.92H729a3,3,0,0,0,1.57-.4A2.63,2.63,0,0,0,731.63,4495.85Z" transform="translate(-121.5 -4439.14)"/><path class="cls-10" d="M746,4504.48h-1.66l-3.76-5.92h-2.33v5.92h-2.1v-14.7h5.52a4.67,4.67,0,0,1,2.44.65,4.91,4.91,0,0,1,1.76,1.83v3.8a4.31,4.31,0,0,1-1.26,1.51,4.21,4.21,0,0,1-1.82.86l3.21,4.77Zm-4.79-7.58a3.09,3.09,0,0,0,1.58-.4,2.72,2.72,0,0,0,1.09-1.09V4493a2.7,2.7,0,0,0-1.09-1.13,3.41,3.41,0,0,0-1.58-.38h-3v5.46Z" transform="translate(-121.5 -4439.14)"/><path class="cls-10" d="M757.2,4491.44h-6.55v4.64h6.09v1.66h-6.09v5.08h6.72v1.66h-8.82v-14.7h8.65Z" transform="translate(-121.5 -4439.14)"/><path class="cls-10" d="M761.19,4501.41a3.27,3.27,0,0,0,1.14,1.18,4,4,0,0,0,3.88,0,3.19,3.19,0,0,0,1.14-1.18v-1.84a3,3,0,0,0-.84-.93,5.34,5.34,0,0,0-1.64-.65l-1.45-.36a8.47,8.47,0,0,1-2.86-1.09,4.45,4.45,0,0,1-1.4-1.47v-2.81a5.45,5.45,0,0,1,1.8-1.93,5.73,5.73,0,0,1,3.32-.84,5.64,5.64,0,0,1,3.28.86,6,6,0,0,1,1.8,1.91v1.91h-2v-1.34a3.12,3.12,0,0,0-1.14-1.18,4,4,0,0,0-3.88,0,3,3,0,0,0-1.14,1.18v1.47a2.47,2.47,0,0,0,.84.86,6.47,6.47,0,0,0,1.7.67l1.39.38a9.35,9.35,0,0,1,2.86,1.11,4.81,4.81,0,0,1,1.38,1.47V4502a5.56,5.56,0,0,1-1.8,1.93,5.49,5.49,0,0,1-3.28.86,5.73,5.73,0,0,1-3.3-.86,5.91,5.91,0,0,1-1.82-1.93v-2.1h2Z" transform="translate(-121.5 -4439.14)"/><path class="cls-10" d="M773.56,4501.41a3.19,3.19,0,0,0,1.14,1.18,4,4,0,0,0,3.88,0,3.15,3.15,0,0,0,1.13-1.18v-1.84a2.83,2.83,0,0,0-.83-.93,5.34,5.34,0,0,0-1.64-.65l-1.45-.36a8.47,8.47,0,0,1-2.86-1.09,4.35,4.35,0,0,1-1.4-1.47v-2.81a5.37,5.37,0,0,1,1.8-1.93,5.73,5.73,0,0,1,3.32-.84,5.66,5.66,0,0,1,3.28.86,6.07,6.07,0,0,1,1.8,1.91v1.91h-2v-1.34a3.08,3.08,0,0,0-1.13-1.18,4,4,0,0,0-3.88,0,3,3,0,0,0-1.14,1.18v1.47a2.47,2.47,0,0,0,.84.86,6.47,6.47,0,0,0,1.7.67l1.39.38a9.35,9.35,0,0,1,2.86,1.11,4.93,4.93,0,0,1,1.38,1.47V4502a5.65,5.65,0,0,1-1.8,1.93,5.51,5.51,0,0,1-3.28.86,5.73,5.73,0,0,1-3.3-.86,5.91,5.91,0,0,1-1.82-1.93v-2.1h2Z" transform="translate(-121.5 -4439.14)"/><path class="cls-10" d="M787.05,4489.78h10.08v1.66h-4v13H791v-13h-4Z" transform="translate(-121.5 -4439.14)"/><path class="cls-10" d="M801.28,4496.08h6.32v-6.3h2.1v14.7h-2.1v-6.74h-6.32v6.74h-2.1v-14.7h2.1Z" transform="translate(-121.5 -4439.14)"/><path class="cls-10" d="M821.42,4491.44h-6.55v4.64H821v1.66h-6.09v5.08h6.72v1.66h-8.82v-14.7h8.65Z" transform="translate(-121.5 -4439.14)"/><path class="cls-10" d="M830,4501.41a3.24,3.24,0,0,0,1.13,1.18,3.55,3.55,0,0,0,2,.5,3.51,3.51,0,0,0,1.93-.5,3.24,3.24,0,0,0,1.13-1.18v-1.84a2.86,2.86,0,0,0-.84-.93,5.13,5.13,0,0,0-1.64-.65l-1.44-.36a8.38,8.38,0,0,1-2.86-1.09,4.48,4.48,0,0,1-1.41-1.47v-2.81a5.49,5.49,0,0,1,1.81-1.93,5.73,5.73,0,0,1,3.32-.84,5.63,5.63,0,0,1,3.27.86,6,6,0,0,1,1.81,1.91v1.91h-2v-1.34a3.16,3.16,0,0,0-1.13-1.18,3.51,3.51,0,0,0-1.93-.5,3.55,3.55,0,0,0-2,.5,3,3,0,0,0-1.13,1.18v1.47a2.38,2.38,0,0,0,.84.86,6.32,6.32,0,0,0,1.7.67l1.39.38a9.27,9.27,0,0,1,2.85,1.11,4.84,4.84,0,0,1,1.39,1.47V4502a5.59,5.59,0,0,1-1.81,1.93,5.48,5.48,0,0,1-3.27.86,5.71,5.71,0,0,1-3.3-.86A5.84,5.84,0,0,1,828,4502v-2.1h2Z" transform="translate(-121.5 -4439.14)"/><path class="cls-10" d="M839.57,4489.78h10.07v1.66h-4v13h-2.1v-13h-4Z" transform="translate(-121.5 -4439.14)"/><path class="cls-10" d="M860.88,4504.48H859l-1.24-4.12h-5.56l-1.24,4.12h-1.66v-1.28l4.18-13.42h3.17l4.2,13.42Zm-5.69-12.85h-.36l-2.12,7.08h4.6Z" transform="translate(-121.5 -4439.14)"/><path class="cls-10" d="M869.74,4498h.36l3.63-8.19h3v14.7h-2v-11.8h-.36l-3.71,8.27h-1.6l-3.72-8.27H865v11.8h-2v-14.7h3Z" transform="translate(-121.5 -4439.14)"/><path class="cls-10" d="M887.61,4490.43a4.86,4.86,0,0,1,1.77,1.83v4.28a4.78,4.78,0,0,1-1.7,1.79,4.67,4.67,0,0,1-2.52.69h-3.28v5.46h-2.1v-14.7h5.38A4.76,4.76,0,0,1,887.61,4490.43Zm-.29,5.42V4493a2.62,2.62,0,0,0-1.13-1.15,3.53,3.53,0,0,0-1.52-.36h-2.79v5.92h2.79a3.07,3.07,0,0,0,1.58-.4A2.61,2.61,0,0,0,887.32,4495.85Z" transform="translate(-121.5 -4439.14)"/><path class="cls-10" d="M893.39,4501.41a3.24,3.24,0,0,0,1.13,1.18,3.55,3.55,0,0,0,2,.5,3.51,3.51,0,0,0,1.93-.5,3.24,3.24,0,0,0,1.13-1.18v-1.84a2.86,2.86,0,0,0-.84-.93,5.23,5.23,0,0,0-1.64-.65l-1.44-.36a8.38,8.38,0,0,1-2.86-1.09,4.48,4.48,0,0,1-1.41-1.47v-2.81a5.49,5.49,0,0,1,1.81-1.93,5.73,5.73,0,0,1,3.32-.84,5.63,5.63,0,0,1,3.27.86,6,6,0,0,1,1.81,1.91v1.91h-2v-1.34a3.16,3.16,0,0,0-1.13-1.18,3.51,3.51,0,0,0-1.93-.5,3.55,3.55,0,0,0-2,.5,3,3,0,0,0-1.13,1.18v1.47a2.38,2.38,0,0,0,.84.86,6.32,6.32,0,0,0,1.7.67l1.39.38a9.27,9.27,0,0,1,2.85,1.11,4.84,4.84,0,0,1,1.39,1.47V4502a5.59,5.59,0,0,1-1.81,1.93,5.48,5.48,0,0,1-3.27.86,5.71,5.71,0,0,1-3.3-.86,5.84,5.84,0,0,1-1.83-1.93v-2.1h2Z" transform="translate(-121.5 -4439.14)"/><path class="cls-10" d="M729.13,4514.69a5.74,5.74,0,0,1,3.42.94,5.65,5.65,0,0,1,1.89,2.25v8.88a5.51,5.51,0,0,1-5.31,3.21,5.59,5.59,0,0,1-3.42-1,5.49,5.49,0,0,1-1.89-2.25v-8.88a5.49,5.49,0,0,1,1.89-2.25A5.72,5.72,0,0,1,729.13,4514.69Zm0,13.6a3.59,3.59,0,0,0,2-.56,3,3,0,0,0,1.18-1.41v-8a3,3,0,0,0-1.18-1.41,3.59,3.59,0,0,0-2-.56,3.64,3.64,0,0,0-2,.56,3,3,0,0,0-1.17,1.41v8a3,3,0,0,0,1.17,1.41A3.64,3.64,0,0,0,729.13,4528.29Z" transform="translate(-121.5 -4439.14)"/><path class="cls-10" d="M745.74,4526.4h.35V4515h2v14.7H745.4l-5.86-11.42h-.35v11.42h-2V4515h2.65Z" transform="translate(-121.5 -4439.14)"/><path class="cls-10" d="M753.8,4515h10.08v1.66h-4v13h-2.1v-13h-4Z" transform="translate(-121.5 -4439.14)"/><path class="cls-10" d="M768,4521.28h6.32V4515h2.1v14.7h-2.1v-6.74H768v6.74h-2.1V4515H768Z" transform="translate(-121.5 -4439.14)"/><path class="cls-10" d="M788.18,4516.64h-6.55v4.64h6.09v1.66h-6.09V4528h6.72v1.66h-8.82V4515h8.65Z" transform="translate(-121.5 -4439.14)"/><path class="cls-10" d="M797.27,4529.68h-2.1V4515h2.1Z" transform="translate(-121.5 -4439.14)"/><path class="cls-10" d="M808.82,4526.4h.36V4515h2v14.7h-2.65l-5.85-11.42h-.36v11.42h-1.95V4515H803Z" transform="translate(-121.5 -4439.14)"/><path class="cls-10" d="M824.07,4529.68h-1.52l-4.76-6.91-1.49,1.6v5.31h-2.1V4515h2.1v6.49h.31l6-6.49h1.32v1.28l-4.75,5.06,4.92,7.08Z" transform="translate(-121.5 -4439.14)"/><path class="cls-10" d="M838.41,4515.63a4.91,4.91,0,0,1,1.76,1.83v4.28a4.71,4.71,0,0,1-1.7,1.79,4.63,4.63,0,0,1-2.52.69h-3.27v5.46h-2.1V4515H836A4.82,4.82,0,0,1,838.41,4515.63Zm-.29,5.42v-2.9A2.69,2.69,0,0,0,837,4517a3.49,3.49,0,0,0-1.51-.36h-2.79v5.92h2.79a3,3,0,0,0,1.57-.4A2.63,2.63,0,0,0,838.12,4521.05Z" transform="translate(-121.5 -4439.14)"/><path class="cls-10" d="M852.31,4529.68h-1.85l-1.24-4.12h-5.56l-1.24,4.12h-1.66v-1.28l4.18-13.42h3.17l4.2,13.42Zm-5.69-12.85h-.36l-2.12,7.08h4.6Z" transform="translate(-121.5 -4439.14)"/><path class="cls-10" d="M859.87,4529.68h-5.4V4515h5.4a5.46,5.46,0,0,1,3.17.84,4.8,4.8,0,0,1,1.76,2.06v8.9a4.8,4.8,0,0,1-1.76,2.06A5.46,5.46,0,0,1,859.87,4529.68Zm-.36-13h-2.94V4528h2.94a4,4,0,0,0,2-.5,2.8,2.8,0,0,0,1.16-1.28v-7.81a2.92,2.92,0,0,0-1.16-1.31A4.18,4.18,0,0,0,859.51,4516.64Z" transform="translate(-121.5 -4439.14)"/><path class="cls-11" d="M2113.62,4623.5" transform="translate(-121.5 -4439.14)"/><polyline class="cls-12" points="1650.21 707.45 1311.01 511.62 1080.8 644.52"/><line class="cls-9" x1="1439.58" y1="838.05" x2="1646.16" y2="718.79"/><line class="cls-9" x1="1084.84" y1="655.83" x2="1400.42" y2="838.05"/><polyline class="cls-9" points="1049.28 648.99 1072.98 662.67 1084.85 655.83 1084.85 646.85"/><path class="cls-9" d="M1206.34,5081.29" transform="translate(-121.5 -4439.14)"/><polyline class="cls-9" points="1084.85 633.17 1072.98 626.33 1049.28 640.01 1072.98 653.7 1084.85 646.85 1073 640.01 1084.85 633.17 1084.85 642.15"/><line class="cls-9" x1="1072.99" y1="653.7" x2="1072.99" y2="662.67"/><line class="cls-9" x1="1049.28" y1="640.01" x2="1049.28" y2="648.99"/><polyline class="cls-9" points="1681.72 711.95 1658.01 725.64 1646.15 718.79 1646.15 709.81"/><path class="cls-9" d="M1712.5,5225" transform="translate(-121.5 -4439.14)"/><polyline class="cls-9" points="1646.15 696.14 1658.01 689.29 1681.72 702.98 1658.01 716.66 1646.15 709.81 1658 702.98 1646.15 696.14 1646.15 705.12"/><line class="cls-9" x1="1658.01" y1="716.66" x2="1658.01" y2="725.64"/><line class="cls-9" x1="1681.72" y1="702.98" x2="1681.72" y2="711.95"/><polyline class="cls-9" points="1287.27 502.59 1287.27 511.59 1299.13 518.43 1299.13 509.44 1287.27 502.59 1311.01 488.92 1334.67 502.59 1322.82 509.44 1322.82 518.43 1334.67 511.59 1334.67 502.59"/><polyline class="cls-9" points="1322.82 509.44 1310.97 502.62 1299.13 509.44"/><line class="cls-9" x1="1311.01" y1="511.61" x2="1310.97" y2="502.62"/><polyline class="cls-9" points="1396.3 849.43 1420.03 863.1 1443.7 849.43"/><polyline class="cls-9" points="1396.3 840.43 1420.03 854.1 1443.7 840.43"/><polyline class="cls-9" points="1396.3 849.43 1396.3 840.43 1408.16 833.59 1420 840.37 1431.84 833.59 1443.7 840.43 1443.7 849.43"/><path class="cls-9" d="M1565.2,5283.16" transform="translate(-121.5 -4439.14)"/><line class="cls-9" x1="1420.03" y1="854.1" x2="1420.03" y2="863.1"/><line class="cls-1" x1="1073" y1="640.01" x2="1073" y2="634.01"/><line class="cls-13" x1="1073" y1="621.9" x2="1072.97" y2="167.77"/><line class="cls-1" x1="1072.97" y1="161.72" x2="1072.97" y2="155.72"/><line class="cls-1" x1="1420" y1="840.37" x2="1420" y2="834.37"/><line class="cls-14" x1="1420" y1="822.53" x2="1420" y2="496.93"/><line class="cls-1" x1="1420" y1="491.01" x2="1420" y2="485.01"/><line class="cls-15" x1="1420" y1="485.01" x2="1420" y2="479.01"/><line class="cls-16" x1="1420" y1="465.94" x2="1420" y2="367.88"/><line class="cls-15" x1="1420" y1="361.34" x2="1420" y2="355.34"/><line class="cls-1" x1="1658" y1="702.98" x2="1658" y2="696.98"/><line class="cls-17" x1="1658" y1="684.87" x2="1657.99" y2="230.74"/><line class="cls-1" x1="1657.99" y1="224.68" x2="1657.99" y2="218.68"/><polyline class="cls-12" points="1072.98 155 1072.98 138.91 1420 339.26 1420 355.34"/><polygon class="cls-12" points="1072.98 138.91 1420 339.26 1658 201.85 1310.98 1.5 1072.98 138.91"/><line class="cls-9" x1="1658" y1="217.94" x2="1658" y2="201.85"/><polyline class="cls-12" points="1072.98 155 1420 355.34 1658 217.94"/><polygon class="cls-9" points="1138.5 135.04 1188.22 106.33 1475.52 272.21 1425.8 300.91 1138.5 135.04"/><polygon class="cls-9" points="1202.94 97.84 1252.66 69.13 1539.96 235 1490.24 263.71 1202.94 97.84"/><polygon class="cls-9" points="1267.38 60.63 1317.1 31.93 1604.4 197.8 1554.68 226.51 1267.38 60.63"/><polyline class="cls-9" points="1152.82 143.31 1188.22 122.87 1461.2 280.48"/><line class="cls-9" x1="1188.22" y1="106.34" x2="1188.22" y2="122.87"/><polyline class="cls-9" points="1217.25 106.1 1252.64 85.66 1525.62 243.26"/><line class="cls-9" x1="1252.64" y1="69.12" x2="1252.64" y2="85.66"/><polyline class="cls-9" points="1281.68 68.89 1317.08 48.46 1590.06 206.06"/><line class="cls-9" x1="1317.08" y1="31.92" x2="1317.08" y2="48.46"/><polygon class="cls-10" points="1420.75 484.58 1420.75 485.85 1420.02 486.2 1419.25 485.74 1419.25 484.58 1420.01 485.01 1420.75 484.58"/></g></svg>