<svg xmlns="http://www.w3.org/2000/svg" viewBox="0 0 1670.73 892.16"><defs><style>.cls-1,.cls-10,.cls-11,.cls-12,.cls-13,.cls-3,.cls-4,.cls-5,.cls-6,.cls-7,.cls-8,.cls-9{fill:none;stroke:#553c91;}.cls-1,.cls-10,.cls-11,.cls-12,.cls-3,.cls-4,.cls-5,.cls-7,.cls-8,.cls-9{stroke-linecap:round;stroke-linejoin:round;}.cls-1,.cls-13{stroke-width:3px;}.cls-2{fill:#553c91;}.cls-10,.cls-11,.cls-12,.cls-3,.cls-4,.cls-5,.cls-7,.cls-8,.cls-9{stroke-width:1.5px;}.cls-4{stroke-dasharray:13.57 13.57;}.cls-5{stroke-dasharray:12.71 12.71;}.cls-13,.cls-6{stroke-miterlimit:10;}.cls-6{stroke-width:1.2px;}.cls-7{stroke-dasharray:10.67 10.67;}.cls-8{stroke-dasharray:12.57 12.57;}.cls-9{stroke-dasharray:13.57 13.57;}.cls-10{stroke-dasharray:12.05 12.05;}.cls-11{stroke-dasharray:13.53 13.53;}.cls-12{stroke-dasharray:12.07 12.07;}</style></defs><title>instruzioni sito_2</title><g id="Livello_2" data-name="Livello 2"><line class="cls-1" x1="1131.55" y1="800.53" x2="1131.55" y2="765.16"/><line class="cls-1" x1="1287.65" y1="890.66" x2="1287.65" y2="855.29"/><line class="cls-1" x1="1287.65" y1="855.29" x2="1669.23" y2="634.98"/><line class="cls-1" x1="1287.65" y1="855.29" x2="1131.55" y2="765.16"/><line class="cls-1" x1="1287.65" y1="890.66" x2="1669.23" y2="670.35"/><line class="cls-1" x1="1287.65" y1="890.66" x2="1131.55" y2="800.53"/><line class="cls-1" x1="1669.23" y1="670.35" x2="1669.23" y2="634.98"/><line class="cls-1" x1="1154.47" y1="778.4" x2="1154.47" y2="741.73"/><line class="cls-1" x1="1264.1" y1="841.69" x2="1264.1" y2="806.36"/><line class="cls-1" x1="1264.1" y1="805.02" x2="1154.47" y2="741.73"/><path class="cls-1" d="M1284.75,1951.52" transform="translate(-120.77 -1184.89)"/><path class="cls-1" d="M1393.5,2014.9" transform="translate(-120.77 -1184.89)"/><line class="cls-1" x1="1264.1" y1="805.02" x2="1645.71" y2="584.7"/><line class="cls-1" x1="1264.99" y1="841.13" x2="1645.68" y2="621.39"/><line class="cls-1" x1="1645.68" y1="621.39" x2="1645.71" y2="584.7"/><line class="cls-1" x1="1154.47" y1="741.73" x2="1536.08" y2="521.41"/><line class="cls-1" x1="1645.71" y1="584.7" x2="1536.08" y2="521.41"/><line class="cls-1" x1="1669.23" y1="634.98" x2="1645.68" y2="621.39"/><line class="cls-1" x1="1131.55" y1="765.16" x2="1154.47" y2="751.93"/><ellipse class="cls-1" cx="1405.73" cy="660.49" rx="8.67" ry="5.34"/><ellipse class="cls-1" cx="1250.97" cy="749.66" rx="8.67" ry="5.34"/><ellipse class="cls-1" cx="1551.17" cy="576.21" rx="8.67" ry="5.34"/><ellipse class="cls-2" cx="1484.69" cy="614.07" rx="4.32" ry="2.66"/><ellipse class="cls-2" cx="1326.09" cy="706.59" rx="4.32" ry="2.66"/><rect class="cls-1" x="1186.23" y="364.11" width="359" height="51"/><line class="cls-3" x1="1241.23" y1="257.11" x2="1241.23" y2="263.11"/><line class="cls-4" x1="1241.23" y1="276.68" x2="1241.23" y2="351.32"/><line class="cls-3" x1="1241.23" y1="358.11" x2="1241.23" y2="364.11"/><line class="cls-3" x1="1241.23" y1="105.11" x2="1241.23" y2="111.11"/><line class="cls-5" x1="1241.23" y1="123.82" x2="1241.23" y2="193.75"/><line class="cls-3" x1="1241.23" y1="200.11" x2="1241.23" y2="206.11"/><line class="cls-3" x1="1490.23" y1="257.11" x2="1490.23" y2="263.11"/><line class="cls-4" x1="1490.23" y1="276.68" x2="1490.23" y2="351.32"/><line class="cls-3" x1="1490.23" y1="358.11" x2="1490.23" y2="364.11"/><line class="cls-3" x1="1491.57" y1="105.11" x2="1491.57" y2="111.11"/><line class="cls-5" x1="1491.57" y1="123.82" x2="1491.57" y2="193.75"/><line class="cls-3" x1="1491.57" y1="200.11" x2="1491.57" y2="206.11"/><path class="cls-6" d="M1374.31,1235.62c0,2.82-5.83,5.18-13.1,5.27S1348,1238.78,1348,1236s5.83-5.17,13.1-5.26S1374.28,1232.81,1374.31,1235.62Zm-24.83,2.67,9,5.4.4,31,3,5.06,2.91-5.13-.4-31,7.81-5.19m-11.13,6.55c-2.72.73-4.75,2-4.54,2.76s2.59.84,5.31.12,4.75-2,4.54-2.76S1363.83,1244.24,1361.11,1245Zm0,4.67c-2.72.73-4.75,2-4.54,2.76s2.59.84,5.31.11,4.75-2,4.54-2.75S1363.83,1248.91,1361.11,1249.64Zm0,4.67c-2.72.73-4.75,2-4.54,2.76s2.59.84,5.31.11,4.75-2,4.54-2.75S1363.83,1253.58,1361.11,1254.31Zm0,4.67c-2.72.73-4.75,2-4.54,2.76s2.59.84,5.31.11,4.75-2,4.54-2.75S1363.83,1258.25,1361.11,1259Zm0,4.67c-2.72.73-4.75,2-4.54,2.76s2.59.84,5.31.11,4.75-2,4.54-2.75S1363.83,1262.92,1361.11,1263.65Zm0,4.67c-2.72.73-4.75,2-4.54,2.75s2.59.85,5.31.12,4.75-2,4.54-2.75S1363.83,1267.59,1361.11,1268.32Zm.57,2.88c-2,.55-3.57,1.48-3.41,2.08s2,.64,4,.09,3.58-1.48,3.42-2.08S1363.73,1270.66,1361.68,1271.2Z" transform="translate(-120.77 -1184.89)"/><path class="cls-6" d="M1496.49,1235.61c0,2.82-5.83,5.17-13.1,5.27s-13.2-2.11-13.23-4.93,5.83-5.17,13.1-5.27S1496.45,1232.8,1496.49,1235.61Zm-24.83,2.66,9,5.4.4,31,3,5.06,2.91-5.14-.4-31,7.81-5.2m-11.13,6.56c-2.72.73-4.75,2-4.54,2.76s2.59.84,5.31.11,4.75-2,4.54-2.75S1486,1244.23,1483.29,1245Zm0,4.67c-2.72.73-4.75,2-4.54,2.76s2.59.84,5.31.11,4.75-2,4.54-2.75S1486,1248.9,1483.29,1249.63Zm0,4.67c-2.72.73-4.75,2-4.54,2.75s2.59.85,5.31.12,4.75-2,4.54-2.75S1486,1253.57,1483.29,1254.3Zm0,4.67c-2.72.73-4.75,2-4.54,2.75s2.59.85,5.31.12,4.75-2,4.54-2.76S1486,1258.24,1483.29,1259Zm0,4.67c-2.72.73-4.75,2-4.54,2.75s2.59.85,5.31.12,4.75-2,4.54-2.76S1486,1262.91,1483.29,1263.64Zm0,4.67c-2.72.73-4.75,2-4.54,2.75s2.59.85,5.31.12,4.75-2,4.54-2.76S1486,1267.58,1483.29,1268.31Zm.57,2.88c-2,.55-3.58,1.48-3.42,2.08s2,.63,4,.08,3.58-1.47,3.42-2.07S1485.91,1270.64,1483.86,1271.19Z" transform="translate(-120.77 -1184.89)"/><path class="cls-6" d="M1624.17,1235.62c0,2.82-5.83,5.18-13.1,5.27s-13.2-2.11-13.24-4.93,5.83-5.17,13.1-5.26S1624.13,1232.81,1624.17,1235.62Zm-24.84,2.67,9,5.4.4,31,3,5.06,2.91-5.13-.4-31,7.81-5.19M1611,1245c-2.71.73-4.75,2-4.53,2.76s2.58.84,5.3.12,4.75-2,4.54-2.76S1613.68,1244.24,1611,1245Zm0,4.67c-2.71.73-4.75,2-4.53,2.76s2.58.84,5.3.11,4.75-2,4.54-2.75S1613.68,1248.91,1611,1249.64Zm0,4.67c-2.71.73-4.75,2-4.53,2.76s2.58.84,5.3.11,4.75-2,4.54-2.75S1613.68,1253.58,1611,1254.31Zm0,4.67c-2.71.73-4.75,2-4.53,2.76s2.58.84,5.3.11,4.75-2,4.54-2.75S1613.68,1258.25,1611,1259Zm0,4.67c-2.71.73-4.75,2-4.53,2.76s2.58.84,5.3.11,4.75-2,4.54-2.75S1613.68,1262.92,1611,1263.65Zm0,4.67c-2.71.73-4.75,2-4.53,2.75s2.58.85,5.3.12,4.75-2,4.54-2.75S1613.68,1267.59,1611,1268.32Zm.58,2.88c-2,.55-3.58,1.48-3.42,2.08s2,.64,4,.09,3.57-1.48,3.41-2.08S1613.58,1270.66,1611.54,1271.2Z" transform="translate(-120.77 -1184.89)"/><line class="cls-3" x1="1365.73" y1="257.11" x2="1365.73" y2="263.11"/><line class="cls-7" x1="1365.73" y1="273.77" x2="1365.73" y2="353.77"/><line class="cls-3" x1="1365.73" y1="359.11" x2="1365.73" y2="365.11"/><line class="cls-3" x1="1363.91" y1="106.11" x2="1363.91" y2="112.11"/><line class="cls-8" x1="1363.91" y1="124.68" x2="1363.91" y2="193.82"/><line class="cls-3" x1="1363.91" y1="200.11" x2="1363.91" y2="206.11"/><line class="cls-3" x1="1426.73" y1="257.11" x2="1426.73" y2="263.11"/><line class="cls-9" x1="1426.73" y1="276.68" x2="1426.73" y2="351.32"/><line class="cls-3" x1="1426.73" y1="358.11" x2="1426.73" y2="364.11"/><line class="cls-3" x1="1426.73" y1="61.61" x2="1426.73" y2="67.61"/><line class="cls-10" x1="1426.73" y1="79.65" x2="1426.73" y2="194.08"/><line class="cls-3" x1="1426.73" y1="200.11" x2="1426.73" y2="206.11"/><line class="cls-3" x1="1300.35" y1="257.11" x2="1300.35" y2="263.11"/><line class="cls-11" x1="1300.35" y1="276.64" x2="1300.35" y2="351.08"/><line class="cls-3" x1="1300.35" y1="357.84" x2="1300.35" y2="363.84"/><line class="cls-3" x1="1300.35" y1="61.34" x2="1300.35" y2="67.34"/><line class="cls-12" x1="1300.35" y1="79.41" x2="1300.35" y2="194.07"/><line class="cls-3" x1="1300.35" y1="200.11" x2="1300.35" y2="206.11"/><rect class="cls-1" x="1186.23" y="206.11" width="359" height="51"/><ellipse class="cls-2" cx="1546.13" cy="1189.28" rx="9.47" ry="4.38" transform="translate(-154.19 -1140.14) rotate(-1.64)"/><polygon class="cls-2" points="1429.59 7.45 1426.74 47.85 1421.59 7.67 1429.59 7.45"/><ellipse class="cls-2" cx="1420.13" cy="1189.28" rx="9.47" ry="4.38" transform="translate(-154.24 -1143.75) rotate(-1.64)"/><polygon class="cls-2" points="1303.59 7.45 1300.74 47.85 1295.59 7.67 1303.59 7.45"/></g><g id="testo"><path class="cls-2" d="M132.82,1202.7h-1.66l-3.76-5.92h-2.33v5.92H123V1188h5.52a4.67,4.67,0,0,1,2.44.65,4.91,4.91,0,0,1,1.76,1.83v3.8a4.31,4.31,0,0,1-1.26,1.51,4.21,4.21,0,0,1-1.82.86l3.21,4.77Zm-4.79-7.58a3.09,3.09,0,0,0,1.58-.4,2.79,2.79,0,0,0,1.09-1.09v-2.46a2.7,2.7,0,0,0-1.09-1.13,3.41,3.41,0,0,0-1.58-.38h-3v5.46Z" transform="translate(-120.77 -1184.89)"/><path class="cls-2" d="M144,1202a5.59,5.59,0,0,1-3.42,1,5.5,5.5,0,0,1-5.29-3.21V1188h2.1v11.3a2.89,2.89,0,0,0,1.15,1.41,4,4,0,0,0,4.08,0,3.18,3.18,0,0,0,1.17-1.41V1188h2.1v11.78A5.65,5.65,0,0,1,144,1202Z" transform="translate(-120.77 -1184.89)"/><path class="cls-2" d="M156.86,1188.7a5.26,5.26,0,0,1,1.64,1.78v2.86a3.75,3.75,0,0,1-.82,1,4.88,4.88,0,0,1-1.11.76,5.39,5.39,0,0,1,1.2.71,4.16,4.16,0,0,1,.92,1v3.4a5,5,0,0,1-1.64,1.76,4.63,4.63,0,0,1-2.64.74h-5.53V1188h5.53A4.34,4.34,0,0,1,156.86,1188.7Zm-.31,4.22v-1.75a2.83,2.83,0,0,0-2.58-1.51h-3v4.64h3.15a2.58,2.58,0,0,0,1.35-.38A3,3,0,0,0,156.55,1192.92Zm.19,4.43a2.66,2.66,0,0,0-1.07-1,3.05,3.05,0,0,0-1.54-.4H151V1201h3a2.91,2.91,0,0,0,2.77-1.53Z" transform="translate(-120.77 -1184.89)"/><path class="cls-2" d="M169.19,1188.7a5.36,5.36,0,0,1,1.64,1.78v2.86a3.75,3.75,0,0,1-.82,1,.81.81,0,1,0,.08,1.47,4.22,4.22,0,0,1,.93,1v3.4a5.09,5.09,0,0,1-1.64,1.76,4.68,4.68,0,0,1-2.65.74h-5.52V1188h5.52A4.35,4.35,0,0,1,169.19,1188.7Zm-.31,4.22v-1.75a2.83,2.83,0,0,0-2.59-1.51h-3v4.64h3.15a2.58,2.58,0,0,0,1.34-.38A3.05,3.05,0,0,0,168.88,1192.92Zm.18,4.43a2.6,2.6,0,0,0-1.07-1,3,3,0,0,0-1.53-.4h-3.15V1201h3a2.9,2.9,0,0,0,2.77-1.53Z" transform="translate(-120.77 -1184.89)"/><path class="cls-2" d="M182.19,1189.66h-6.55v4.64h6.09V1196h-6.09V1201h6.72v1.66h-8.82V1188h8.65Z" transform="translate(-120.77 -1184.89)"/><path class="cls-2" d="M194.71,1202.7h-1.66l-3.76-5.92H187v5.92h-2.1V1188h5.52a4.69,4.69,0,0,1,2.44.65,4.91,4.91,0,0,1,1.76,1.83v3.8a4.53,4.53,0,0,1-1.26,1.51,4.24,4.24,0,0,1-1.83.86l3.22,4.77Zm-4.79-7.58a3,3,0,0,0,1.57-.4,2.66,2.66,0,0,0,1.09-1.09v-2.46a2.64,2.64,0,0,0-1.09-1.13,3.37,3.37,0,0,0-1.57-.38h-3v5.46Z" transform="translate(-120.77 -1184.89)"/><path class="cls-2" d="M203.71,1194.3H210V1188h2.09v14.7H210V1196h-6.33v6.74h-2.09V1188h2.09Z" transform="translate(-120.77 -1184.89)"/><path class="cls-2" d="M220.24,1187.71a5.72,5.72,0,0,1,3.42.94,5.49,5.49,0,0,1,1.89,2.25v8.88a5.49,5.49,0,0,1-1.89,2.25,6.57,6.57,0,0,1-6.84,0,5.65,5.65,0,0,1-1.89-2.25v-8.88a5.65,5.65,0,0,1,1.89-2.25A5.72,5.72,0,0,1,220.24,1187.71Zm0,13.6a3.56,3.56,0,0,0,2-.56,3,3,0,0,0,1.17-1.41v-8a3,3,0,0,0-1.17-1.41,3.64,3.64,0,0,0-2-.56,3.59,3.59,0,0,0-2,.56,3,3,0,0,0-1.18,1.41v8a3,3,0,0,0,1.18,1.41A3.51,3.51,0,0,0,220.24,1201.31Z" transform="translate(-120.77 -1184.89)"/><path class="cls-2" d="M230.45,1201h5.42v1.66h-7.52V1188h2.1Z" transform="translate(-120.77 -1184.89)"/><path class="cls-2" d="M243.3,1202.7h-5.4V1188h5.4a5.54,5.54,0,0,1,3.17.84,4.8,4.8,0,0,1,1.76,2.06v8.9a4.8,4.8,0,0,1-1.76,2.06A5.46,5.46,0,0,1,243.3,1202.7Zm-.36-13H240V1201h2.94a4,4,0,0,0,2-.5,2.78,2.78,0,0,0,1.15-1.28v-7.81a2.89,2.89,0,0,0-1.15-1.31A4.18,4.18,0,0,0,242.94,1189.66Z" transform="translate(-120.77 -1184.89)"/><path class="cls-2" d="M259.7,1189.66h-6.55v4.64h6.09V1196h-6.09V1201h6.72v1.66h-8.82V1188h8.65Z" transform="translate(-120.77 -1184.89)"/><path class="cls-2" d="M272.21,1202.7h-1.66l-3.75-5.92h-2.33v5.92h-2.1V1188h5.52a4.63,4.63,0,0,1,2.43.65,4.86,4.86,0,0,1,1.77,1.83v3.8a4.53,4.53,0,0,1-1.26,1.51,4.3,4.3,0,0,1-1.83.86l3.21,4.77Zm-4.78-7.58a3.06,3.06,0,0,0,1.57-.4,2.72,2.72,0,0,0,1.09-1.09v-2.46A2.7,2.7,0,0,0,269,1190a3.37,3.37,0,0,0-1.57-.38h-3v5.46Z" transform="translate(-120.77 -1184.89)"/><path class="cls-2" d="M276.37,1199.63a3.12,3.12,0,0,0,1.14,1.18,4,4,0,0,0,3.88,0,3.19,3.19,0,0,0,1.14-1.18v-1.84a3.11,3.11,0,0,0-.84-.93,5.34,5.34,0,0,0-1.64-.65l-1.45-.36a8.47,8.47,0,0,1-2.86-1.09,4.35,4.35,0,0,1-1.4-1.47v-2.81a5.53,5.53,0,0,1,1.8-1.93,5.73,5.73,0,0,1,3.32-.84,5.6,5.6,0,0,1,3.27.86,6,6,0,0,1,1.81,1.91v1.91h-2v-1.34a3.27,3.27,0,0,0-1.14-1.18,4,4,0,0,0-3.88,0,3,3,0,0,0-1.14,1.18v1.47a2.47,2.47,0,0,0,.84.86,6.47,6.47,0,0,0,1.7.67l1.39.38a9.16,9.16,0,0,1,2.85,1.11,4.72,4.72,0,0,1,1.39,1.47v3.19a5.45,5.45,0,0,1-5.08,2.79,5.49,5.49,0,0,1-5.12-2.79v-2.1h2Z" transform="translate(-120.77 -1184.89)"/><path class="cls-2" d="M679.59,1194.3h6.32V1188H688v14.7h-2.1V1196h-6.32v6.74h-2.1V1188h2.1Z" transform="translate(-120.77 -1184.89)"/><path class="cls-2" d="M701.72,1202.7h-1.84l-1.24-4.12h-5.57l-1.23,4.12h-1.66v-1.28l4.18-13.42h3.17l4.19,13.42ZM696,1189.85h-.36l-2.12,7.08h4.6Z" transform="translate(-120.77 -1184.89)"/><path class="cls-2" d="M712.39,1199.42h.36V1188h2v14.7h-2.64l-5.86-11.42h-.36v11.42h-2V1188h2.65Z" transform="translate(-120.77 -1184.89)"/><path class="cls-2" d="M723.17,1202.7h-5.4V1188h5.4a5.54,5.54,0,0,1,3.17.84,4.87,4.87,0,0,1,1.76,2.06v8.9a4.87,4.87,0,0,1-1.76,2.06A5.46,5.46,0,0,1,723.17,1202.7Zm-.36-13h-2.94V1201h2.94a4,4,0,0,0,2-.5,2.78,2.78,0,0,0,1.15-1.28v-7.81a2.89,2.89,0,0,0-1.15-1.31A4.18,4.18,0,0,0,722.81,1189.66Z" transform="translate(-120.77 -1184.89)"/><path class="cls-2" d="M733,1201h5.41v1.66h-7.51V1188H733Z" transform="translate(-120.77 -1184.89)"/><path class="cls-2" d="M749.12,1189.66h-6.55v4.64h6.09V1196h-6.09V1201h6.72v1.66h-8.82V1188h8.65Z" transform="translate(-120.77 -1184.89)"/><path class="cls-2" d="M753.11,1199.63a3.12,3.12,0,0,0,1.14,1.18,4,4,0,0,0,3.88,0,3.16,3.16,0,0,0,1.13-1.18v-1.84a2.86,2.86,0,0,0-.84-.93,5.16,5.16,0,0,0-1.63-.65l-1.45-.36a8.38,8.38,0,0,1-2.86-1.09,4.48,4.48,0,0,1-1.41-1.47v-2.81a5.66,5.66,0,0,1,1.81-1.93,5.73,5.73,0,0,1,3.32-.84,5.63,5.63,0,0,1,3.27.86,6,6,0,0,1,1.81,1.91v1.91h-2v-1.34a3.24,3.24,0,0,0-1.13-1.18,4,4,0,0,0-3.88,0,3,3,0,0,0-1.14,1.18v1.47a2.38,2.38,0,0,0,.84.86,6.47,6.47,0,0,0,1.7.67l1.39.38a9.27,9.27,0,0,1,2.85,1.11,4.84,4.84,0,0,1,1.39,1.47v3.19a5.45,5.45,0,0,1-5.08,2.79,5.52,5.52,0,0,1-5.13-2.79v-2.1h2Z" transform="translate(-120.77 -1184.89)"/><rect class="cls-13" x="339.11" y="667.05" width="99.81" height="65.32"/><path class="cls-2" d="M486.1,1876.62a4.5,4.5,0,0,1,.92,1.46v11.12a4.86,4.86,0,0,1-.92,1.46,5.06,5.06,0,0,1-1.64,1.22,5.39,5.39,0,0,1-2.29.48,4.89,4.89,0,0,1-2.24-.48,4.84,4.84,0,0,1-1.6-1.13,4.74,4.74,0,0,1-.9-1.31v-2.06h1.87v1.27a2.7,2.7,0,0,0,1.07,1.34,3.07,3.07,0,0,0,1.8.55A3.11,3.11,0,0,0,484,1890a2.76,2.76,0,0,0,1.07-1.34v-4.14a4.23,4.23,0,0,1-3.28,1.39,4.6,4.6,0,0,1-2.77-.84,4.29,4.29,0,0,1-1.55-2v-5.26a5.33,5.33,0,0,1,.9-1.29,5,5,0,0,1,1.6-1.15,5.15,5.15,0,0,1,2.24-.45,5.39,5.39,0,0,1,2.29.48A5.46,5.46,0,0,1,486.1,1876.62Zm-1.07,6.1v-4.09a3.06,3.06,0,0,0-1.07-1.34,3.11,3.11,0,0,0-1.79-.55,3.1,3.1,0,0,0-2.87,1.89v3.71a2.53,2.53,0,0,0,1.07,1.26,3,3,0,0,0,1.82.53,3.31,3.31,0,0,0,1.62-.38A3.9,3.9,0,0,0,485,1882.72Z" transform="translate(-120.77 -1184.89)"/><path class="cls-2" d="M491.37,1890.23v3.25a1.9,1.9,0,0,1-.52.79,1.4,1.4,0,0,1-1,.38h-.57v-1h.44a.51.51,0,0,0,.3-.1,1.14,1.14,0,0,0,.21-.29v-.93a1.4,1.4,0,0,1-.72-.19,1,1,0,0,1-.39-.45v-1.46a1,1,0,0,1,.39-.46,1.4,1.4,0,0,1,.72-.19,1.47,1.47,0,0,1,.73.19A1,1,0,0,1,491.37,1890.23Z" transform="translate(-120.77 -1184.89)"/><path class="cls-2" d="M502.06,1876.62a4.5,4.5,0,0,1,.92,1.46v11.12a4.86,4.86,0,0,1-.92,1.46,5.06,5.06,0,0,1-1.64,1.22,5.39,5.39,0,0,1-2.29.48,4.89,4.89,0,0,1-2.24-.48,4.84,4.84,0,0,1-1.6-1.13,4.74,4.74,0,0,1-.9-1.31v-2.06h1.87v1.27a2.7,2.7,0,0,0,1.07,1.34,3.07,3.07,0,0,0,1.8.55,3.11,3.11,0,0,0,1.79-.55,2.76,2.76,0,0,0,1.07-1.34v-4.14a4.23,4.23,0,0,1-3.28,1.39,4.6,4.6,0,0,1-2.77-.84,4.29,4.29,0,0,1-1.55-2v-5.26a5.33,5.33,0,0,1,.9-1.29,5,5,0,0,1,1.6-1.15,5.15,5.15,0,0,1,2.24-.45,5.39,5.39,0,0,1,2.29.48A5.46,5.46,0,0,1,502.06,1876.62Zm-1.07,6.1v-4.09a3.06,3.06,0,0,0-1.07-1.34,3.11,3.11,0,0,0-1.79-.55,3.1,3.1,0,0,0-2.87,1.89v3.71a2.53,2.53,0,0,0,1.07,1.26,3,3,0,0,0,1.82.53,3.31,3.31,0,0,0,1.62-.38A3.9,3.9,0,0,0,501,1882.72Z" transform="translate(-120.77 -1184.89)"/><path class="cls-2" d="M514.32,1878.82a4.75,4.75,0,0,1,3,.91,4.59,4.59,0,0,1,1.57,2v2.2h-1.83v-1.51a2.93,2.93,0,0,0-1-1.31,2.8,2.8,0,0,0-1.73-.53,2.68,2.68,0,0,0-1.68.53,2.93,2.93,0,0,0-1,1.31v6.29a2.8,2.8,0,0,0,1,1.32,2.67,2.67,0,0,0,1.68.52,2.82,2.82,0,0,0,1.75-.52,2.89,2.89,0,0,0,1-1.32v-1.5h1.83v2.2a4.82,4.82,0,0,1-1.57,2,4.59,4.59,0,0,1-3,.94,4.44,4.44,0,0,1-3-1,5.35,5.35,0,0,1-1.64-2.2V1882a5.23,5.23,0,0,1,1.64-2.2A4.48,4.48,0,0,1,514.32,1878.82Z" transform="translate(-120.77 -1184.89)"/><path class="cls-2" d="M535.53,1881.38V1892H533.6v-10.14a2.12,2.12,0,0,0-2.08-1.24,2.53,2.53,0,0,0-1.28.31,2.62,2.62,0,0,0-.92.86V1892h-2v-10.14a2,2,0,0,0-.71-.88,2.26,2.26,0,0,0-1.34-.36,2.67,2.67,0,0,0-1.31.31,2.54,2.54,0,0,0-.92.86V1892h-1.93v-12.89H523v1a3.62,3.62,0,0,1,2.83-1.26,3.45,3.45,0,0,1,1.85.45,4.26,4.26,0,0,1,1.22,1.17,4.33,4.33,0,0,1,1.34-1.17,3.5,3.5,0,0,1,1.83-.45,3.33,3.33,0,0,1,2.31.76A4.76,4.76,0,0,1,535.53,1881.38Z" transform="translate(-120.77 -1184.89)"/><rect class="cls-13" x="1.5" y="115.07" width="137.8" height="65.32"/><path class="cls-2" d="M158.54,1337.14v-12.6l-2.5,1.22V1324l3.28-2h1.21v15.11h2.4v1.63h-6.87v-1.63Z" transform="translate(-120.77 -1184.89)"/><path class="cls-2" d="M166.83,1335.4a2.81,2.81,0,0,0,1.1,1.34,3.05,3.05,0,0,0,1.78.55,3,3,0,0,0,1.79-.55,3.06,3.06,0,0,0,1.07-1.34v-2.56a3,3,0,0,0-1-1.39,3.12,3.12,0,0,0-1.81-.55h-1.64v-1.74h1.49a3.08,3.08,0,0,0,2.73-1.6v-2.49a2.85,2.85,0,0,0-1-1.1,3.11,3.11,0,0,0-1.71-.48,3,3,0,0,0-1.68.48,3.11,3.11,0,0,0-1,1.1v1.6H165v-2.39a5.4,5.4,0,0,1,1.64-1.75,4.91,4.91,0,0,1,2.93-.83,5.2,5.2,0,0,1,2.25.45,5.69,5.69,0,0,1,1.62,1.13,4.83,4.83,0,0,1,.88,1.24v3.39a4.58,4.58,0,0,1-.9,1.13,4.47,4.47,0,0,1-1.45.91,4.71,4.71,0,0,1,1.64,1,4.54,4.54,0,0,1,1,1.43V1336a4.61,4.61,0,0,1-.92,1.43,4.92,4.92,0,0,1-1.64,1.22,5,5,0,0,1-2.29.5,5.23,5.23,0,0,1-2.25-.47,5,5,0,0,1-1.59-1.15,4.7,4.7,0,0,1-.88-1.29v-2.25h1.84Z" transform="translate(-120.77 -1184.89)"/><path class="cls-2" d="M178.91,1337v3.25a2,2,0,0,1-.52.79,1.4,1.4,0,0,1-1,.38h-.57v-1h.44a.51.51,0,0,0,.3-.1,1.14,1.14,0,0,0,.21-.29v-.93a1.4,1.4,0,0,1-.72-.19,1,1,0,0,1-.4-.45V1337a1.06,1.06,0,0,1,.4-.46,1.4,1.4,0,0,1,.72-.19,1.47,1.47,0,0,1,.73.19A1,1,0,0,1,178.91,1337Z" transform="translate(-120.77 -1184.89)"/><path class="cls-2" d="M187,1324h-7.28V1322h9.38v1.72l-5.67,15h-1.63v-1.46l5.2-13Z" transform="translate(-120.77 -1184.89)"/><path class="cls-2" d="M199.72,1325.57a4.72,4.72,0,0,1,3,.91,4.62,4.62,0,0,1,1.58,2v2.2h-1.83v-1.51a3,3,0,0,0-1-1.31,2.77,2.77,0,0,0-1.72-.53,2.66,2.66,0,0,0-1.68.53,3,3,0,0,0-1,1.31v6.29a2.82,2.82,0,0,0,1,1.32,2.71,2.71,0,0,0,1.68.52,2.85,2.85,0,0,0,1.74-.52,2.91,2.91,0,0,0,1-1.32V1334h1.83v2.2a4.93,4.93,0,0,1-1.58,2,4.62,4.62,0,0,1-3,.93,4.41,4.41,0,0,1-3-1,5.23,5.23,0,0,1-1.64-2.2v-7.19a5.23,5.23,0,0,1,1.64-2.2A4.47,4.47,0,0,1,199.72,1325.57Z" transform="translate(-120.77 -1184.89)"/><path class="cls-2" d="M220.93,1328.13v10.64H219v-10.14a2.11,2.11,0,0,0-2.08-1.24,2.41,2.41,0,0,0-1.28.31,2.56,2.56,0,0,0-.93.86v10.21h-2v-10.14a2.17,2.17,0,0,0-.71-.88,2.27,2.27,0,0,0-1.35-.36,2.55,2.55,0,0,0-1.3.31,2.38,2.38,0,0,0-.92.86v10.21h-1.93v-12.89h1.82v1a3.64,3.64,0,0,1,2.84-1.26,3.42,3.42,0,0,1,1.84.45,4,4,0,0,1,1.22,1.17,4.48,4.48,0,0,1,1.35-1.17,3.49,3.49,0,0,1,1.82-.45,3.3,3.3,0,0,1,2.31.76A4.59,4.59,0,0,1,220.93,1328.13Z" transform="translate(-120.77 -1184.89)"/><rect class="cls-13" x="1.5" y="335.62" width="151.8" height="65.32"/><path class="cls-2" d="M174.54,1559v-12.6l-2.5,1.22v-1.72l3.28-2h1.21V1559h2.4v1.63h-6.87V1559Z" transform="translate(-120.77 -1184.89)"/><path class="cls-2" d="M186.93,1545.76h-7.29v-1.92H189v1.72l-5.67,15h-1.64v-1.46l5.21-13Z" transform="translate(-120.77 -1184.89)"/><path class="cls-2" d="M199.65,1547.38a4.75,4.75,0,0,1,3,.91,4.59,4.59,0,0,1,1.57,2v2.2h-1.83V1551a2.86,2.86,0,0,0-1-1.31,2.8,2.8,0,0,0-1.73-.53,2.63,2.63,0,0,0-1.67.53,2.88,2.88,0,0,0-1,1.31v6.29a2.76,2.76,0,0,0,1,1.32,2.68,2.68,0,0,0,1.67.52,2.88,2.88,0,0,0,1.75-.52,2.82,2.82,0,0,0,1-1.32v-1.51h1.83v2.2a4.78,4.78,0,0,1-1.57,2,4.65,4.65,0,0,1-3,.94,4.5,4.5,0,0,1-3-1,5.44,5.44,0,0,1-1.64-2.2v-7.2a5.31,5.31,0,0,1,1.64-2.2A4.5,4.5,0,0,1,199.65,1547.38Z" transform="translate(-120.77 -1184.89)"/><path class="cls-2" d="M220.86,1549.94v10.64h-1.93v-10.14a2.12,2.12,0,0,0-2.08-1.24,2.43,2.43,0,0,0-1.28.31,2.62,2.62,0,0,0-.92.86v10.21h-2v-10.14a2.11,2.11,0,0,0-.72-.88,2.24,2.24,0,0,0-1.34-.36,2.57,2.57,0,0,0-2.23,1.17v10.21h-1.93v-12.89h1.83v1a3.62,3.62,0,0,1,2.83-1.26,3.43,3.43,0,0,1,1.85.45,4.26,4.26,0,0,1,1.22,1.17,4.44,4.44,0,0,1,1.34-1.17,3.52,3.52,0,0,1,1.83-.45,3.33,3.33,0,0,1,2.31.76A4.68,4.68,0,0,1,220.86,1549.94Z" transform="translate(-120.77 -1184.89)"/><rect class="cls-13" x="233.72" y="225.34" width="150.8" height="65.32"/><path class="cls-2" d="M405.76,1448.9v-12.6l-2.5,1.22v-1.72l3.28-2h1.22v15.11h2.39v1.63h-6.87v-1.63Z" transform="translate(-120.77 -1184.89)"/><path class="cls-2" d="M422,1444.41v3.3a4.34,4.34,0,0,1-.92,1.46,5.31,5.31,0,0,1-1.66,1.19,5.43,5.43,0,0,1-4.55,0,5.2,5.2,0,0,1-1.66-1.19,4.54,4.54,0,0,1-.93-1.46v-3.3a5,5,0,0,1,.86-1.36,5.3,5.3,0,0,1,1.45-1.15,5.5,5.5,0,0,1-1.28-1,4.5,4.5,0,0,1-.77-1V1436a5.55,5.55,0,0,1,1.65-1.75,5.66,5.66,0,0,1,5.9,0,5.4,5.4,0,0,1,1.64,1.75v3.87a6.14,6.14,0,0,1-.78,1,4.85,4.85,0,0,1-1.28.95,5.44,5.44,0,0,1,1.47,1.15A4.39,4.39,0,0,1,422,1444.41Zm-3.08-1.2a3.08,3.08,0,0,0-1.79-.55,3.05,3.05,0,0,0-1.78.55,3,3,0,0,0-1.07,1.34v2.61a2.75,2.75,0,0,0,1.07,1.34,3,3,0,0,0,1.78.55,3.1,3.1,0,0,0,1.81-.55,2.88,2.88,0,0,0,1.05-1.34v-2.61A3.06,3.06,0,0,0,418.93,1443.21Zm-3.47-2.58a3.12,3.12,0,0,0,4.39-1.08v-2.75a2.82,2.82,0,0,0-1-1.07,3.18,3.18,0,0,0-3.36,0,3.23,3.23,0,0,0-1,1.07v2.75A3.17,3.17,0,0,0,415.46,1440.63Z" transform="translate(-120.77 -1184.89)"/><path class="cls-2" d="M433.29,1437.33a4.7,4.7,0,0,1,3,.91,4.55,4.55,0,0,1,1.58,2v2.2H436v-1.51a2.83,2.83,0,0,0-1-1.31,2.77,2.77,0,0,0-1.72-.53,2.66,2.66,0,0,0-1.68.53,2.9,2.9,0,0,0-1,1.31v6.29a2.75,2.75,0,0,0,1,1.31,2.66,2.66,0,0,0,1.68.53,2.8,2.8,0,0,0,2.73-1.84v-1.51h1.83v2.2a4.93,4.93,0,0,1-1.58,2,4.6,4.6,0,0,1-3,.93,4.43,4.43,0,0,1-3-1,5.23,5.23,0,0,1-1.64-2.2v-7.19a5.23,5.23,0,0,1,1.64-2.2A4.48,4.48,0,0,1,433.29,1437.33Z" transform="translate(-120.77 -1184.89)"/><path class="cls-2" d="M454.5,1439.89v10.64h-1.93v-10.14a2.1,2.1,0,0,0-2.08-1.24,2.43,2.43,0,0,0-1.28.31,2.53,2.53,0,0,0-.92.86v10.21h-2v-10.14a2.09,2.09,0,0,0-.71-.88,2.27,2.27,0,0,0-1.35-.36,2.55,2.55,0,0,0-1.3.31,2.38,2.38,0,0,0-.92.86v10.21h-1.93v-12.89h1.82v1a3.65,3.65,0,0,1,2.84-1.27,3.48,3.48,0,0,1,1.85.46,4.1,4.1,0,0,1,1.21,1.17,4.48,4.48,0,0,1,1.35-1.17,3.49,3.49,0,0,1,1.82-.46,3.3,3.3,0,0,1,2.31.77A4.59,4.59,0,0,1,454.5,1439.89Z" transform="translate(-120.77 -1184.89)"/><rect class="cls-13" x="227.47" y="445.89" width="168.8" height="65.32"/><path class="cls-2" d="M399,1669.09v-12.6l-2.5,1.22V1656l3.28-2H401v15.11h2.39v1.63h-6.87v-1.63Z" transform="translate(-120.77 -1184.89)"/><path class="cls-2" d="M414.15,1655.32a4.43,4.43,0,0,1,.93,1.46v11.11a4.78,4.78,0,0,1-.93,1.46,5,5,0,0,1-1.64,1.22,5.34,5.34,0,0,1-2.28.48,4.8,4.8,0,0,1-2.25-.48,4.94,4.94,0,0,1-2.5-2.44v-2.05h1.87v1.26a2.76,2.76,0,0,0,1.07,1.34,3.2,3.2,0,0,0,3.59,0,2.7,2.7,0,0,0,1.07-1.34v-4.13a4.25,4.25,0,0,1-3.27,1.38,4.6,4.6,0,0,1-2.78-.83,4.29,4.29,0,0,1-1.55-2v-5.26a5,5,0,0,1,.9-1.29,4.88,4.88,0,0,1,1.6-1.15,5.2,5.2,0,0,1,2.25-.46,5.34,5.34,0,0,1,2.28.48A5.2,5.2,0,0,1,414.15,1655.32Zm-1.07,6.09v-4.08A3,3,0,0,0,412,1656a3.05,3.05,0,0,0-1.78-.55,3.08,3.08,0,0,0-1.79.55,3,3,0,0,0-1.09,1.34v3.7a2.65,2.65,0,0,0,1.07,1.27,3,3,0,0,0,1.83.53,3.17,3.17,0,0,0,1.61-.39A3.57,3.57,0,0,0,413.08,1661.41Z" transform="translate(-120.77 -1184.89)"/><path class="cls-2" d="M419.42,1668.92v3.25a1.84,1.84,0,0,1-.52.79,1.35,1.35,0,0,1-1,.39h-.56v-1h.44a.47.47,0,0,0,.29-.09,1.08,1.08,0,0,0,.21-.29V1671a1.39,1.39,0,0,1-.71-.19,1,1,0,0,1-.4-.46v-1.46a1,1,0,0,1,.4-.45,1.39,1.39,0,0,1,.71-.19,1.51,1.51,0,0,1,.74.19A1,1,0,0,1,419.42,1668.92Z" transform="translate(-120.77 -1184.89)"/><path class="cls-2" d="M429.94,1654v10.83h1.91v1.84h-1.91v4.07H428v-4.07h-7.18v-1.77l6-10.9Zm-2.28,2-4.83,8.82H428V1656Z" transform="translate(-120.77 -1184.89)"/><path class="cls-2" d="M442.38,1657.52a4.74,4.74,0,0,1,3,.91,4.51,4.51,0,0,1,1.57,2v2.2h-1.82v-1.5a3,3,0,0,0-1-1.32,2.77,2.77,0,0,0-1.72-.52,2.65,2.65,0,0,0-1.68.52,2.91,2.91,0,0,0-1,1.32v6.29a2.78,2.78,0,0,0,1,1.31,2.66,2.66,0,0,0,1.68.53,2.79,2.79,0,0,0,1.74-.53,2.94,2.94,0,0,0,1-1.31v-1.51h1.82v2.2a4.9,4.9,0,0,1-1.57,2,4.63,4.63,0,0,1-3,.93,4.45,4.45,0,0,1-3-1,5.26,5.26,0,0,1-1.63-2.2v-7.2a5.32,5.32,0,0,1,1.63-2.2A4.56,4.56,0,0,1,442.38,1657.52Z" transform="translate(-120.77 -1184.89)"/><path class="cls-2" d="M463.58,1660.08v10.64h-1.93v-10.14a2.11,2.11,0,0,0-2.08-1.25,2.44,2.44,0,0,0-1.28.32,2.62,2.62,0,0,0-.92.86v10.21h-1.95v-10.14a2.14,2.14,0,0,0-.72-.89,2.22,2.22,0,0,0-1.34-.36,2.56,2.56,0,0,0-1.3.32,2.41,2.41,0,0,0-.93.86v10.21H449.2v-12.89H451v1a3.59,3.59,0,0,1,2.83-1.27,3.34,3.34,0,0,1,1.85.46,4.13,4.13,0,0,1,1.22,1.17,4.57,4.57,0,0,1,1.34-1.17,3.46,3.46,0,0,1,1.83-.46,3.27,3.27,0,0,1,2.31.77A4.6,4.6,0,0,1,463.58,1660.08Z" transform="translate(-120.77 -1184.89)"/><rect class="cls-13" x="1.5" y="445.89" width="175.8" height="65.32"/><path class="cls-2" d="M180.25,1659.69V1657a2.92,2.92,0,0,0-1.07-1.33,3.05,3.05,0,0,0-1.78-.55,3,3,0,0,0-1.68.47,3.12,3.12,0,0,0-1.05,1.1V1659h-1.89v-3.14a5.86,5.86,0,0,1,1.7-1.77,4.81,4.81,0,0,1,2.92-.81,5.39,5.39,0,0,1,2.27.48,5.13,5.13,0,0,1,1.65,1.2,4.4,4.4,0,0,1,.93,1.45v3.85a10.58,10.58,0,0,1-1.54,2.06l-5.29,6v.17h7v1.86h-9.74v-1.77l6.49-7.36A7.24,7.24,0,0,0,180.25,1659.69Z" transform="translate(-120.77 -1184.89)"/><path class="cls-2" d="M194.07,1662.2v5.57a5.31,5.31,0,0,1-.88,1.32,5,5,0,0,1-1.6,1.12,5.49,5.49,0,0,1-4.49,0,4.94,4.94,0,0,1-2.5-2.44v-2.27h1.87V1667a2.92,2.92,0,0,0,1.09,1.34,3,3,0,0,0,1.79.55,3.05,3.05,0,0,0,1.78-.55,2.7,2.7,0,0,0,1.07-1.34v-3.9a2.68,2.68,0,0,0-1.07-1.33,3.11,3.11,0,0,0-1.8-.55,2.83,2.83,0,0,0-1.62.43,3.52,3.52,0,0,0-1,.95h-1.87v-9h9v1.91h-7.18v5.16a4.54,4.54,0,0,1,5.8-.45A4.49,4.49,0,0,1,194.07,1662.2Z" transform="translate(-120.77 -1184.89)"/><path class="cls-2" d="M198.31,1668.56v3.25a1.84,1.84,0,0,1-.52.79,1.38,1.38,0,0,1-1,.38h-.57v-1h.45a.44.44,0,0,0,.29-.1.89.89,0,0,0,.21-.28v-.93a1.4,1.4,0,0,1-.71-.2.93.93,0,0,1-.4-.45v-1.46a.93.93,0,0,1,.4-.45,1.39,1.39,0,0,1,.71-.19,1.47,1.47,0,0,1,.73.19A.93.93,0,0,1,198.31,1668.56Z" transform="translate(-120.77 -1184.89)"/><path class="cls-2" d="M207.78,1659.69V1657a2.92,2.92,0,0,0-1.07-1.33,3.05,3.05,0,0,0-1.78-.55,3,3,0,0,0-1.68.47,3.21,3.21,0,0,0-1.05,1.1V1659h-1.89v-3.14a5.86,5.86,0,0,1,1.7-1.77,4.83,4.83,0,0,1,2.92-.81,5.39,5.39,0,0,1,2.27.48,5.13,5.13,0,0,1,1.65,1.2,4.4,4.4,0,0,1,.93,1.45v3.85a10.82,10.82,0,0,1-1.53,2.06l-5.3,6v.17h7v1.86h-9.74v-1.77l6.49-7.36A7.24,7.24,0,0,0,207.78,1659.69Z" transform="translate(-120.77 -1184.89)"/><path class="cls-2" d="M221,1657.16a4.76,4.76,0,0,1,3,.9,4.55,4.55,0,0,1,1.58,2v2.2h-1.83v-1.5a2.86,2.86,0,0,0-1-1.32,2.75,2.75,0,0,0-1.72-.53,2.68,2.68,0,0,0-1.68.53,2.83,2.83,0,0,0-1,1.32v6.28a2.74,2.74,0,0,0,1,1.32,2.68,2.68,0,0,0,1.68.53,2.82,2.82,0,0,0,1.75-.53,2.89,2.89,0,0,0,1-1.32v-1.5h1.83v2.2a4.85,4.85,0,0,1-1.58,2,4.6,4.6,0,0,1-3,.93,4.44,4.44,0,0,1-3-1,5.29,5.29,0,0,1-1.64-2.2v-7.2a5.29,5.29,0,0,1,1.64-2.2A4.53,4.53,0,0,1,221,1657.16Z" transform="translate(-120.77 -1184.89)"/><path class="cls-2" d="M242.22,1659.71v10.64h-1.93v-10.13a2.11,2.11,0,0,0-2.08-1.25,2.53,2.53,0,0,0-1.28.31,2.71,2.71,0,0,0-.92.86v10.21h-2v-10.13a2.12,2.12,0,0,0-.71-.89A2.26,2.26,0,0,0,232,1659a2.67,2.67,0,0,0-1.31.31,2.63,2.63,0,0,0-.92.86v10.21h-1.93v-12.88h1.83v1a3.59,3.59,0,0,1,2.83-1.27,3.48,3.48,0,0,1,1.85.45,4.17,4.17,0,0,1,1.22,1.18,4.36,4.36,0,0,1,1.34-1.18,3.5,3.5,0,0,1,1.83-.45,3.33,3.33,0,0,1,2.31.76A4.76,4.76,0,0,1,242.22,1659.71Z" transform="translate(-120.77 -1184.89)"/><rect class="cls-13" x="196.85" y="335.62" width="175.8" height="65.32"/><path class="cls-2" d="M377.1,1549.57v-2.73a3,3,0,0,0-1.07-1.34,3.12,3.12,0,0,0-1.78-.54,3,3,0,0,0-1.68.47,3.21,3.21,0,0,0-1.05,1.1v2.35h-1.89v-3.14a5.75,5.75,0,0,1,1.7-1.77,4.83,4.83,0,0,1,2.92-.81,5.39,5.39,0,0,1,2.27.48,5.29,5.29,0,0,1,1.66,1.2,4.36,4.36,0,0,1,.92,1.45v3.85a10.82,10.82,0,0,1-1.53,2.06l-5.29,6v.17h7v1.86H369.5v-1.77l6.49-7.36A7.51,7.51,0,0,0,377.1,1549.57Z" transform="translate(-120.77 -1184.89)"/><path class="cls-2" d="M390.92,1552.08v5.57A5.31,5.31,0,0,1,390,1559a4.86,4.86,0,0,1-1.6,1.12,5.37,5.37,0,0,1-6.08-1.12,5,5,0,0,1-.91-1.32v-2.27h1.87v1.48a2.92,2.92,0,0,0,1.09,1.34,3,3,0,0,0,1.79.55,3.05,3.05,0,0,0,1.78-.55,2.7,2.7,0,0,0,1.07-1.34V1553a2.68,2.68,0,0,0-1.07-1.33,3.11,3.11,0,0,0-1.8-.55,2.86,2.86,0,0,0-1.62.43,3.52,3.52,0,0,0-1,1h-1.86v-9h9v1.91h-7.18v5.16a4.38,4.38,0,0,1,3.15-1.29,4.32,4.32,0,0,1,2.65.84A4.49,4.49,0,0,1,390.92,1552.08Z" transform="translate(-120.77 -1184.89)"/><path class="cls-2" d="M395.17,1558.44v3.25a2,2,0,0,1-.53.79,1.38,1.38,0,0,1-1,.38h-.56v-1h.44a.43.43,0,0,0,.29-.1.76.76,0,0,0,.21-.28v-.94a1.39,1.39,0,0,1-.71-.19.93.93,0,0,1-.4-.45v-1.46a.93.93,0,0,1,.4-.45,1.4,1.4,0,0,1,.71-.2,1.51,1.51,0,0,1,.74.2A1,1,0,0,1,395.17,1558.44Z" transform="translate(-120.77 -1184.89)"/><path class="cls-2" d="M404.63,1549.57v-2.73a3,3,0,0,0-1.07-1.34,3.12,3.12,0,0,0-1.78-.54,3,3,0,0,0-1.68.47,3.21,3.21,0,0,0-1.05,1.1v2.35h-1.89v-3.14a5.75,5.75,0,0,1,1.7-1.77,4.83,4.83,0,0,1,2.92-.81,5.36,5.36,0,0,1,2.27.48,5.29,5.29,0,0,1,1.66,1.2,4.36,4.36,0,0,1,.92,1.45v3.85a10.82,10.82,0,0,1-1.53,2.06l-5.29,6v.17h7v1.86H397v-1.77l6.49-7.36A7.51,7.51,0,0,0,404.63,1549.57Z" transform="translate(-120.77 -1184.89)"/><path class="cls-2" d="M417.86,1547a4.81,4.81,0,0,1,3,.9,4.59,4.59,0,0,1,1.57,2v2.2h-1.83v-1.5a2.83,2.83,0,0,0-1-1.32,2.8,2.8,0,0,0-1.73-.53,2.63,2.63,0,0,0-1.67.53,2.86,2.86,0,0,0-1,1.32v6.28a2.76,2.76,0,0,0,1,1.32,2.63,2.63,0,0,0,1.67.53,2.77,2.77,0,0,0,2.73-1.85v-1.5h1.83v2.2a4.9,4.9,0,0,1-1.57,2,4.64,4.64,0,0,1-3,.93,4.44,4.44,0,0,1-3-1,5.38,5.38,0,0,1-1.64-2.2v-7.2a5.38,5.38,0,0,1,1.64-2.2A4.55,4.55,0,0,1,417.86,1547Z" transform="translate(-120.77 -1184.89)"/><path class="cls-2" d="M439.07,1549.59v10.64h-1.93V1550.1a2.11,2.11,0,0,0-2.08-1.25,2.53,2.53,0,0,0-1.28.31,2.71,2.71,0,0,0-.92.86v10.21h-1.95V1550.1a2.14,2.14,0,0,0-.72-.89,2.24,2.24,0,0,0-1.34-.36,2.6,2.6,0,0,0-1.3.31,2.57,2.57,0,0,0-.93.86v10.21h-1.93v-12.88h1.83v1a3.59,3.59,0,0,1,2.83-1.27,3.43,3.43,0,0,1,1.85.45,4.17,4.17,0,0,1,1.22,1.18,4.47,4.47,0,0,1,1.34-1.18,3.52,3.52,0,0,1,1.83-.45,3.33,3.33,0,0,1,2.31.76A4.76,4.76,0,0,1,439.07,1549.59Z" transform="translate(-120.77 -1184.89)"/><rect class="cls-13" x="260.35" y="556.16" width="177.8" height="65.32"/><path class="cls-2" d="M443.6,1769.67V1767a2.94,2.94,0,0,0-1.07-1.34,3.05,3.05,0,0,0-1.78-.55,2.89,2.89,0,0,0-1.68.48,3.12,3.12,0,0,0-1.05,1.1V1769h-1.89v-3.13a5.64,5.64,0,0,1,1.7-1.77,4.83,4.83,0,0,1,2.92-.82,5.39,5.39,0,0,1,2.27.48,5.29,5.29,0,0,1,1.66,1.2,4.4,4.4,0,0,1,.92,1.46v3.85a11.21,11.21,0,0,1-1.53,2l-5.29,6v.17h7v1.87H436v-1.77l6.49-7.37A7,7,0,0,0,443.6,1769.67Z" transform="translate(-120.77 -1184.89)"/><path class="cls-2" d="M457.42,1772.18v5.57a5.31,5.31,0,0,1-.88,1.32,4.86,4.86,0,0,1-1.6,1.12,5.37,5.37,0,0,1-6.08-1.12,5,5,0,0,1-.91-1.32v-2.27h1.87V1777a2.92,2.92,0,0,0,1.09,1.34,3,3,0,0,0,1.79.55,3.05,3.05,0,0,0,1.78-.55,2.7,2.7,0,0,0,1.07-1.34v-3.89a2.7,2.7,0,0,0-1.07-1.34,3.11,3.11,0,0,0-1.8-.55,2.86,2.86,0,0,0-1.62.43,3.52,3.52,0,0,0-1,1h-1.86v-9h9v1.91h-7.18v5.17a4.39,4.39,0,0,1,3.15-1.3,4.32,4.32,0,0,1,2.65.84A4.55,4.55,0,0,1,457.42,1772.18Z" transform="translate(-120.77 -1184.89)"/><path class="cls-2" d="M461.67,1778.54v3.25a2,2,0,0,1-.53.79,1.35,1.35,0,0,1-1,.39h-.56v-1H460a.47.47,0,0,0,.29-.09.9.9,0,0,0,.21-.29v-.93a1.39,1.39,0,0,1-.71-.19,1,1,0,0,1-.4-.46v-1.46a1,1,0,0,1,.4-.45,1.39,1.39,0,0,1,.71-.19,1.51,1.51,0,0,1,.74.19A1,1,0,0,1,461.67,1778.54Z" transform="translate(-120.77 -1184.89)"/><path class="cls-2" d="M469.75,1765.51h-7.29v-1.91h9.39v1.72l-5.67,15h-1.64v-1.46l5.21-13.06Z" transform="translate(-120.77 -1184.89)"/><path class="cls-2" d="M478.15,1767.14a4.72,4.72,0,0,1,3,.91,4.54,4.54,0,0,1,1.58,2v2.2h-1.83v-1.5a3,3,0,0,0-1-1.32,2.77,2.77,0,0,0-1.72-.52,2.65,2.65,0,0,0-1.68.52,3,3,0,0,0-1,1.32V1777a2.85,2.85,0,0,0,1,1.31,2.66,2.66,0,0,0,1.68.53,2.79,2.79,0,0,0,1.74-.53,2.94,2.94,0,0,0,1-1.31v-1.51h1.83v2.2a4.93,4.93,0,0,1-1.58,2,4.62,4.62,0,0,1-3,.93,4.41,4.41,0,0,1-3-1,5.2,5.2,0,0,1-1.64-2.2v-7.2a5.27,5.27,0,0,1,1.64-2.2A4.52,4.52,0,0,1,478.15,1767.14Z" transform="translate(-120.77 -1184.89)"/><path class="cls-2" d="M499.36,1769.7v10.64h-1.93V1770.2a2.12,2.12,0,0,0-2.08-1.25,2.39,2.39,0,0,0-1.28.32,2.56,2.56,0,0,0-.93.86v10.21h-1.95V1770.2a2.2,2.2,0,0,0-.71-.89,2.27,2.27,0,0,0-1.35-.36,2.56,2.56,0,0,0-1.3.32,2.38,2.38,0,0,0-.92.86v10.21H485v-12.89h1.82v1a3.61,3.61,0,0,1,2.84-1.27,3.33,3.33,0,0,1,1.84.46,3.91,3.91,0,0,1,1.22,1.17,4.48,4.48,0,0,1,1.35-1.17,3.4,3.4,0,0,1,1.82-.46,3.25,3.25,0,0,1,2.31.77A4.52,4.52,0,0,1,499.36,1769.7Z" transform="translate(-120.77 -1184.89)"/><rect class="cls-13" x="1.5" y="225.34" width="187.8" height="65.32"/><path class="cls-2" d="M187.25,1438.48v-2.73a3,3,0,0,0-1.07-1.34,3.05,3.05,0,0,0-1.78-.55,3,3,0,0,0-1.68.48,3,3,0,0,0-1.05,1.1v2.34h-1.89v-3.13a5.75,5.75,0,0,1,1.7-1.77,4.81,4.81,0,0,1,2.92-.81,5.39,5.39,0,0,1,2.27.48,5.11,5.11,0,0,1,1.65,1.19,4.54,4.54,0,0,1,.93,1.46v3.85a10.9,10.9,0,0,1-1.54,2.06l-5.29,6v.17h7v1.86h-9.74v-1.77l6.49-7.36A7.51,7.51,0,0,0,187.25,1438.48Z" transform="translate(-120.77 -1184.89)"/><path class="cls-2" d="M199.39,1435.75a2.88,2.88,0,0,0-1-1.34,3.11,3.11,0,0,0-1.8-.55,3.08,3.08,0,0,0-1.79.55,3,3,0,0,0-1.07,1.34v4.33a4.34,4.34,0,0,1,3.32-1.41,4.45,4.45,0,0,1,4.26,2.8v5.09a4.74,4.74,0,0,1-.86,1.29,5.36,5.36,0,0,1-1.62,1.15,5.16,5.16,0,0,1-2.24.48,5.58,5.58,0,0,1-3.95-1.7,4.54,4.54,0,0,1-.93-1.46V1435.2a4.62,4.62,0,0,1,1-1.46,5.16,5.16,0,0,1,1.66-1.19,5.36,5.36,0,0,1,2.27-.48,5.08,5.08,0,0,1,4.72,2.89v2.2h-1.87Zm-5.71,10a2.76,2.76,0,0,0,1.07,1.34,3,3,0,0,0,1.79.55,3.07,3.07,0,0,0,1.8-.55,2.66,2.66,0,0,0,1-1.34v-3.54a2.64,2.64,0,0,0-1-1.27,3.34,3.34,0,0,0-1.83-.5,3.44,3.44,0,0,0-2.83,1.39Z" transform="translate(-120.77 -1184.89)"/><path class="cls-2" d="M205.54,1447.35v3.25a1.9,1.9,0,0,1-.52.79,1.38,1.38,0,0,1-1,.38h-.56v-1h.44a.48.48,0,0,0,.29-.1.94.94,0,0,0,.21-.29v-.93a1.39,1.39,0,0,1-.71-.19,1,1,0,0,1-.4-.45v-1.46a1,1,0,0,1,.4-.46,1.39,1.39,0,0,1,.71-.19,1.51,1.51,0,0,1,.74.19A1,1,0,0,1,205.54,1447.35Z" transform="translate(-120.77 -1184.89)"/><path class="cls-2" d="M213.63,1434.32h-7.29v-1.92h9.39v1.73l-5.67,15h-1.64v-1.46l5.21-13Z" transform="translate(-120.77 -1184.89)"/><path class="cls-2" d="M226.35,1435.94a4.75,4.75,0,0,1,3,.91,4.59,4.59,0,0,1,1.57,2v2.2h-1.83v-1.51a2.86,2.86,0,0,0-1-1.31,2.8,2.8,0,0,0-1.73-.53,2.68,2.68,0,0,0-1.68.53,2.93,2.93,0,0,0-1,1.31v6.29a2.8,2.8,0,0,0,1,1.32,2.67,2.67,0,0,0,1.68.52,2.74,2.74,0,0,0,2.73-1.84v-1.51h1.83v2.2a4.78,4.78,0,0,1-1.57,2,4.59,4.59,0,0,1-3,.94,4.44,4.44,0,0,1-3-1,5.44,5.44,0,0,1-1.64-2.2v-7.2a5.31,5.31,0,0,1,1.64-2.2A4.5,4.5,0,0,1,226.35,1435.94Z" transform="translate(-120.77 -1184.89)"/><path class="cls-2" d="M247.56,1438.5v10.64h-1.93V1439a2.12,2.12,0,0,0-2.08-1.24,2.53,2.53,0,0,0-1.28.31,2.62,2.62,0,0,0-.92.86v10.21H239.4V1439a2.11,2.11,0,0,0-.72-.88,2.24,2.24,0,0,0-1.34-.36,2.6,2.6,0,0,0-1.3.31,2.49,2.49,0,0,0-.93.86v10.21h-1.93v-12.89H235v1a3.62,3.62,0,0,1,2.83-1.26,3.43,3.43,0,0,1,1.85.45,4.26,4.26,0,0,1,1.22,1.17,4.44,4.44,0,0,1,1.34-1.17,3.52,3.52,0,0,1,1.83-.45,3.33,3.33,0,0,1,2.31.76A4.76,4.76,0,0,1,247.56,1438.5Z" transform="translate(-120.77 -1184.89)"/><rect class="cls-13" x="197.1" y="115.07" width="204.8" height="65.32"/><path class="cls-2" d="M389.85,1328.48v-2.72a2.94,2.94,0,0,0-1.07-1.34,3.05,3.05,0,0,0-1.78-.55,3,3,0,0,0-1.68.48,3.12,3.12,0,0,0-1.05,1.1v2.34h-1.89v-3.13a5.75,5.75,0,0,1,1.7-1.77,4.83,4.83,0,0,1,2.92-.81,5.39,5.39,0,0,1,2.27.47,5.29,5.29,0,0,1,1.66,1.2,4.5,4.5,0,0,1,.92,1.46v3.85a10.87,10.87,0,0,1-1.53,2l-5.29,6v.16h7v1.87h-9.75v-1.77l6.49-7.37A7,7,0,0,0,389.85,1328.48Z" transform="translate(-120.77 -1184.89)"/><path class="cls-2" d="M402.85,1323.75a4.54,4.54,0,0,1,.93,1.46v11.12a4.91,4.91,0,0,1-.93,1.46,5,5,0,0,1-1.63,1.21,5.27,5.27,0,0,1-2.29.48,4.8,4.8,0,0,1-2.25-.48,5,5,0,0,1-1.6-1.12,4.74,4.74,0,0,1-.9-1.31v-2.06h1.87v1.27a2.8,2.8,0,0,0,1.07,1.34,3.17,3.17,0,0,0,1.81.55,3.13,3.13,0,0,0,1.78-.55,2.75,2.75,0,0,0,1.07-1.34v-4.14a4.26,4.26,0,0,1-3.27,1.39,4.58,4.58,0,0,1-2.77-.84,4.25,4.25,0,0,1-1.56-2V1325a5,5,0,0,1,.9-1.29,4.88,4.88,0,0,1,1.6-1.15,5.2,5.2,0,0,1,2.25-.45,5.42,5.42,0,0,1,2.29.47A5.27,5.27,0,0,1,402.85,1323.75Zm-1.07,6.1v-4.09a2.94,2.94,0,0,0-1.07-1.34,3.05,3.05,0,0,0-1.78-.55,3.1,3.1,0,0,0-2.88,1.89v3.7a2.56,2.56,0,0,0,1.07,1.27,3.06,3.06,0,0,0,1.83.53,3.27,3.27,0,0,0,1.61-.38A3.81,3.81,0,0,0,401.78,1329.85Z" transform="translate(-120.77 -1184.89)"/><path class="cls-2" d="M408.13,1337.35v3.26a2.11,2.11,0,0,1-.53.79,1.38,1.38,0,0,1-1,.38h-.56v-1h.44a.47.47,0,0,0,.29-.09.81.81,0,0,0,.21-.29v-.93a1.39,1.39,0,0,1-.71-.19,1,1,0,0,1-.4-.46v-1.46a1,1,0,0,1,.4-.45,1.39,1.39,0,0,1,.71-.19,1.51,1.51,0,0,1,.74.19A1,1,0,0,1,408.13,1337.35Z" transform="translate(-120.77 -1184.89)"/><path class="cls-2" d="M412,1335.78a2.85,2.85,0,0,0,1.09,1.34,3.13,3.13,0,0,0,1.78.55,3,3,0,0,0,2.86-1.89v-2.56a3,3,0,0,0-1.05-1.39,3.08,3.08,0,0,0-1.81-.55h-1.63v-1.74h1.49a3.15,3.15,0,0,0,2.73-1.61v-2.48a2.88,2.88,0,0,0-1-1.1,3.08,3.08,0,0,0-1.7-.48,3,3,0,0,0-1.68.48,3.11,3.11,0,0,0-1,1.1v1.6h-1.85v-2.39a5.51,5.51,0,0,1,1.64-1.75,4.94,4.94,0,0,1,2.94-.83,5.15,5.15,0,0,1,2.24.45,5.53,5.53,0,0,1,1.62,1.12,4.87,4.87,0,0,1,.88,1.25v3.39a4.78,4.78,0,0,1-.9,1.13,4.36,4.36,0,0,1-1.45.91,4.48,4.48,0,0,1,1.64,1.05,4.28,4.28,0,0,1,1,1.43v3.52a4.54,4.54,0,0,1-.92,1.43,5.06,5.06,0,0,1-1.64,1.22,5,5,0,0,1-2.29.5,5.25,5.25,0,0,1-3.84-1.62,4.7,4.7,0,0,1-.88-1.29v-2.25H412Z" transform="translate(-120.77 -1184.89)"/><path class="cls-2" d="M431,1326a4.74,4.74,0,0,1,3,.91,4.59,4.59,0,0,1,1.57,2v2.2h-1.82v-1.51a3,3,0,0,0-1-1.32,2.85,2.85,0,0,0-1.72-.52,2.69,2.69,0,0,0-1.68.52,2.91,2.91,0,0,0-1,1.32v6.29a2.78,2.78,0,0,0,1,1.31,2.64,2.64,0,0,0,1.68.53,2.79,2.79,0,0,0,1.74-.53,2.94,2.94,0,0,0,1-1.31v-1.51h1.82v2.2a4.9,4.9,0,0,1-1.57,2,4.63,4.63,0,0,1-3,.93,4.45,4.45,0,0,1-3-1,5.2,5.2,0,0,1-1.63-2.2v-7.19a5.2,5.2,0,0,1,1.63-2.2A4.51,4.51,0,0,1,431,1326Z" transform="translate(-120.77 -1184.89)"/><path class="cls-2" d="M452.24,1328.51v10.64h-1.93V1329a2.1,2.1,0,0,0-2.08-1.24,2.43,2.43,0,0,0-1.28.31,2.53,2.53,0,0,0-.92.86v10.21h-1.95V1329a2.05,2.05,0,0,0-.72-.88,2.22,2.22,0,0,0-1.34-.36,2.53,2.53,0,0,0-1.3.31,2.41,2.41,0,0,0-.93.86v10.21h-1.93v-12.89h1.83v1a3.59,3.59,0,0,1,2.83-1.27,3.43,3.43,0,0,1,1.85.46,4.26,4.26,0,0,1,1.22,1.17,4.44,4.44,0,0,1,1.34-1.17,3.55,3.55,0,0,1,1.83-.46,3.32,3.32,0,0,1,2.31.77A4.6,4.6,0,0,1,452.24,1328.51Z" transform="translate(-120.77 -1184.89)"/><rect class="cls-13" x="1.5" y="556.16" width="208.8" height="65.32"/><path class="cls-2" d="M197.75,1769.74V1767a2.94,2.94,0,0,0-1.07-1.34,3.05,3.05,0,0,0-1.78-.55,3,3,0,0,0-1.68.47,3.2,3.2,0,0,0-1.05,1.1v2.35h-1.89v-3.13a5.64,5.64,0,0,1,1.7-1.77,4.81,4.81,0,0,1,2.92-.82,5.39,5.39,0,0,1,2.27.48,5.13,5.13,0,0,1,1.65,1.2,4.33,4.33,0,0,1,.93,1.46v3.84a10.58,10.58,0,0,1-1.54,2.06l-5.29,6v.17h7v1.87h-9.74v-1.77l6.49-7.37A7.24,7.24,0,0,0,197.75,1769.74Z" transform="translate(-120.77 -1184.89)"/><path class="cls-2" d="M210.75,1765a4.33,4.33,0,0,1,.93,1.46v11.11a4.78,4.78,0,0,1-.93,1.46,5.06,5.06,0,0,1-1.64,1.22,5.34,5.34,0,0,1-2.28.48,4.8,4.8,0,0,1-2.25-.48,4.94,4.94,0,0,1-2.5-2.44v-2H204V1777a2.7,2.7,0,0,0,1.07,1.34,3.2,3.2,0,0,0,3.59,0,2.76,2.76,0,0,0,1.07-1.34v-4.13a4.25,4.25,0,0,1-3.27,1.38,4.6,4.6,0,0,1-2.78-.83,4.29,4.29,0,0,1-1.55-2v-5.26a5,5,0,0,1,.9-1.29,4.88,4.88,0,0,1,1.6-1.15,5.2,5.2,0,0,1,2.25-.46,5.18,5.18,0,0,1,3.92,1.68Zm-1.07,6.09V1767a3,3,0,0,0-1.07-1.34,3.17,3.17,0,0,0-3.57,0A3,3,0,0,0,204,1767v3.7A2.6,2.6,0,0,0,205,1772a3,3,0,0,0,1.83.52,3.17,3.17,0,0,0,1.61-.38A3.79,3.79,0,0,0,209.68,1771.1Z" transform="translate(-120.77 -1184.89)"/><path class="cls-2" d="M216,1778.61v3.25a1.84,1.84,0,0,1-.52.79,1.35,1.35,0,0,1-1,.39H214v-1h.44a.47.47,0,0,0,.29-.09,1.08,1.08,0,0,0,.21-.29v-.93a1.4,1.4,0,0,1-.71-.2.93.93,0,0,1-.4-.45v-1.46a.93.93,0,0,1,.4-.45,1.39,1.39,0,0,1,.71-.19,1.51,1.51,0,0,1,.74.19A1,1,0,0,1,216,1778.61Z" transform="translate(-120.77 -1184.89)"/><path class="cls-2" d="M227.82,1774.28v3.3a4.24,4.24,0,0,1-.92,1.46,5.18,5.18,0,0,1-1.66,1.2A5.4,5.4,0,0,1,219,1779a4.43,4.43,0,0,1-.93-1.46v-3.3a5,5,0,0,1,.86-1.36,5.5,5.5,0,0,1,1.45-1.15,5.2,5.2,0,0,1-1.28-1,4.57,4.57,0,0,1-.78-1v-3.87a5.61,5.61,0,0,1,1.66-1.75,5.6,5.6,0,0,1,5.9,0,5.3,5.3,0,0,1,1.64,1.75v3.87a6.11,6.11,0,0,1-.78,1,4.88,4.88,0,0,1-1.28,1,5.25,5.25,0,0,1,1.47,1.15A4.35,4.35,0,0,1,227.82,1774.28Zm-3.08-1.19a3.08,3.08,0,0,0-1.79-.55,3.05,3.05,0,0,0-1.78.55,2.93,2.93,0,0,0-1.07,1.34v2.6a2.7,2.7,0,0,0,1.07,1.34,3,3,0,0,0,1.78.55,3.1,3.1,0,0,0,1.81-.55,2.83,2.83,0,0,0,1.05-1.34v-2.6A3,3,0,0,0,224.74,1773.09Zm-3.47-2.58a3.07,3.07,0,0,0,3.36,0,2.77,2.77,0,0,0,1-1.08v-2.75a2.84,2.84,0,0,0-1-1.08,3.24,3.24,0,0,0-3.36,0,3.16,3.16,0,0,0-1.05,1.08v2.75A3.08,3.08,0,0,0,221.27,1770.51Z" transform="translate(-120.77 -1184.89)"/><path class="cls-2" d="M239.1,1767.21a4.7,4.7,0,0,1,3,.91,4.54,4.54,0,0,1,1.58,2v2.2h-1.83v-1.5a2.86,2.86,0,0,0-1-1.32,2.77,2.77,0,0,0-1.72-.52,2.65,2.65,0,0,0-1.68.52,2.92,2.92,0,0,0-1,1.32v6.29a2.85,2.85,0,0,0,1,1.31,2.66,2.66,0,0,0,1.68.53,2.79,2.79,0,0,0,1.74-.53,2.87,2.87,0,0,0,1-1.31v-1.51h1.83v2.2a4.93,4.93,0,0,1-1.58,2,4.6,4.6,0,0,1-3,.93,4.43,4.43,0,0,1-3-1,5.29,5.29,0,0,1-1.64-2.2v-7.2a5.35,5.35,0,0,1,1.64-2.2A4.53,4.53,0,0,1,239.1,1767.21Z" transform="translate(-120.77 -1184.89)"/><path class="cls-2" d="M260.31,1769.77v10.64h-1.93v-10.14a2.11,2.11,0,0,0-2.08-1.25,2.53,2.53,0,0,0-1.28.31,2.77,2.77,0,0,0-.93.87v10.21h-2v-10.14a2.12,2.12,0,0,0-.71-.89,2.27,2.27,0,0,0-1.35-.36,2.66,2.66,0,0,0-1.3.31,2.49,2.49,0,0,0-.92.87v10.21h-1.93v-12.89h1.82v1a3.61,3.61,0,0,1,2.84-1.27,3.39,3.39,0,0,1,1.85.46,4,4,0,0,1,1.21,1.17,4.48,4.48,0,0,1,1.35-1.17,3.4,3.4,0,0,1,1.82-.46,3.25,3.25,0,0,1,2.31.77A4.52,4.52,0,0,1,260.31,1769.77Z" transform="translate(-120.77 -1184.89)"/><rect class="cls-13" x="1.5" y="667.05" width="295.8" height="65.32"/><path class="cls-2" d="M236.63,1889.27a2.69,2.69,0,0,0,1.09,1.34,3.05,3.05,0,0,0,1.78.55,3,3,0,0,0,2.86-1.89v-2.55a3,3,0,0,0-1.05-1.39,3.1,3.1,0,0,0-1.81-.55h-1.64V1883h1.5a2.89,2.89,0,0,0,1.7-.5,2.77,2.77,0,0,0,1-1.1v-2.49a2.91,2.91,0,0,0-1-1.1,3.1,3.1,0,0,0-1.7-.47,3,3,0,0,0-1.68.47,3.19,3.19,0,0,0-1.05,1.1v1.61h-1.85v-2.39a5.3,5.3,0,0,1,1.64-1.75,4.92,4.92,0,0,1,2.94-.84,5.15,5.15,0,0,1,2.24.46,5.66,5.66,0,0,1,1.62,1.12,4.87,4.87,0,0,1,.88,1.25v3.39a4.55,4.55,0,0,1-.9,1.12,4.07,4.07,0,0,1-1.45.91,4.85,4.85,0,0,1,1.64,1,4.47,4.47,0,0,1,1,1.44v3.51a4.64,4.64,0,0,1-.92,1.44,5.21,5.21,0,0,1-3.93,1.72,5.16,5.16,0,0,1-2.24-.48,4.77,4.77,0,0,1-1.6-1.15,4.42,4.42,0,0,1-.88-1.29v-2.24h1.85Z" transform="translate(-120.77 -1184.89)"/><path class="cls-2" d="M256.28,1884.49v5.57a5.31,5.31,0,0,1-.88,1.32,5,5,0,0,1-1.6,1.12,5.49,5.49,0,0,1-4.49,0,4.94,4.94,0,0,1-2.5-2.44v-2.27h1.87v1.48a2.92,2.92,0,0,0,1.09,1.34,3,3,0,0,0,1.79.55,3.05,3.05,0,0,0,1.78-.55,2.7,2.7,0,0,0,1.07-1.34v-3.89a2.7,2.7,0,0,0-1.07-1.34,3.11,3.11,0,0,0-1.8-.55,2.83,2.83,0,0,0-1.62.43,3.52,3.52,0,0,0-1,.95h-1.87v-9h9v1.91H249V1883a4.52,4.52,0,0,1,5.8-.46A4.49,4.49,0,0,1,256.28,1884.49Z" transform="translate(-120.77 -1184.89)"/><path class="cls-2" d="M260.52,1890.85v3.25a1.84,1.84,0,0,1-.52.79,1.35,1.35,0,0,1-1,.39h-.56v-1h.44a.47.47,0,0,0,.29-.09,1.08,1.08,0,0,0,.21-.29V1893a1.5,1.5,0,0,1-.71-.19,1,1,0,0,1-.4-.46v-1.46a1,1,0,0,1,.4-.45,1.39,1.39,0,0,1,.71-.19,1.51,1.51,0,0,1,.74.19A1,1,0,0,1,260.52,1890.85Z" transform="translate(-120.77 -1184.89)"/><path class="cls-2" d="M271,1875.91v10.83H273v1.84H271v4.07h-1.93v-4.07h-7.18v-1.77l6-10.9Zm-2.29,2-4.82,8.82h5.18v-8.82Z" transform="translate(-120.77 -1184.89)"/><path class="cls-2" d="M283.48,1879.45a4.74,4.74,0,0,1,3,.91,4.51,4.51,0,0,1,1.57,2v2.2h-1.82v-1.5a3,3,0,0,0-1-1.32,2.79,2.79,0,0,0-1.72-.52,2.65,2.65,0,0,0-1.68.52,2.91,2.91,0,0,0-1,1.32v6.29a2.78,2.78,0,0,0,1,1.31,2.66,2.66,0,0,0,1.68.53,2.79,2.79,0,0,0,1.74-.53,2.94,2.94,0,0,0,1-1.31v-1.51H288v2.2a4.9,4.9,0,0,1-1.57,2,4.63,4.63,0,0,1-3,.93,4.45,4.45,0,0,1-3-1,5.26,5.26,0,0,1-1.63-2.2v-7.2a5.32,5.32,0,0,1,1.63-2.2A4.56,4.56,0,0,1,283.48,1879.45Z" transform="translate(-120.77 -1184.89)"/><path class="cls-2" d="M304.68,1882v10.64h-1.93v-10.14a2.11,2.11,0,0,0-2.08-1.25,2.53,2.53,0,0,0-1.28.31,2.74,2.74,0,0,0-.92.87v10.21h-2v-10.14a2.14,2.14,0,0,0-.72-.89,2.22,2.22,0,0,0-1.34-.36,2.66,2.66,0,0,0-1.3.31,2.52,2.52,0,0,0-.93.87v10.21H290.3v-12.89h1.83v1a3.59,3.59,0,0,1,2.83-1.27,3.34,3.34,0,0,1,1.85.46,4.13,4.13,0,0,1,1.22,1.17,4.57,4.57,0,0,1,1.34-1.17,3.46,3.46,0,0,1,1.83-.46,3.27,3.27,0,0,1,2.31.77A4.6,4.6,0,0,1,304.68,1882Z" transform="translate(-120.77 -1184.89)"/><rect class="cls-13" x="1.5" y="778.08" width="373.8" height="65.32"/><path class="cls-2" d="M291.1,1985.71v10.83H293v1.84H291.1v4.07h-1.93v-4.07H282v-1.77l6-10.9Zm-2.29,2-4.83,8.82h5.19v-8.82Z" transform="translate(-120.77 -1184.89)"/><path class="cls-2" d="M297.13,2000.82v-12.6l-2.5,1.22v-1.72l3.27-2h1.22v15.11h2.4v1.63h-6.87v-1.63Z" transform="translate(-120.77 -1184.89)"/><path class="cls-2" d="M312.5,1989.25a4.72,4.72,0,0,1,3,.91,4.54,4.54,0,0,1,1.58,2v2.2h-1.83v-1.5a3,3,0,0,0-1-1.32,2.77,2.77,0,0,0-1.72-.52,2.65,2.65,0,0,0-1.68.52,3,3,0,0,0-1,1.32v6.29a2.85,2.85,0,0,0,1,1.31,2.66,2.66,0,0,0,1.68.53,2.79,2.79,0,0,0,1.74-.53,2.94,2.94,0,0,0,1-1.31v-1.51h1.83v2.2a4.93,4.93,0,0,1-1.58,2,4.62,4.62,0,0,1-3,.93,4.41,4.41,0,0,1-3-1,5.14,5.14,0,0,1-1.64-2.2v-7.2a5.27,5.27,0,0,1,1.64-2.2A4.52,4.52,0,0,1,312.5,1989.25Z" transform="translate(-120.77 -1184.89)"/><path class="cls-2" d="M333.71,1991.81v10.64h-1.93v-10.14a2.12,2.12,0,0,0-2.08-1.25,2.39,2.39,0,0,0-1.28.32,2.56,2.56,0,0,0-.93.86v10.21h-1.95v-10.14a2.2,2.2,0,0,0-.71-.89,2.27,2.27,0,0,0-1.35-.36,2.56,2.56,0,0,0-1.3.32,2.38,2.38,0,0,0-.92.86v10.21h-1.94v-12.89h1.83v1a3.61,3.61,0,0,1,2.84-1.27,3.42,3.42,0,0,1,1.84.46,3.91,3.91,0,0,1,1.22,1.17,4.48,4.48,0,0,1,1.35-1.17,3.49,3.49,0,0,1,1.82-.46,3.25,3.25,0,0,1,2.31.77A4.52,4.52,0,0,1,333.71,1991.81Z" transform="translate(-120.77 -1184.89)"/><rect class="cls-13" x="893.75" y="675" width="99.81" height="57.37"/><path class="cls-2" d="M1048.25,1905.41v-26.26h-5.47v-7.35h20v7.35h-5.47v26.26Z" transform="translate(-120.77 -1184.89)"/><path class="cls-2" d="M1064.14,1876.65c.91-2.3,4.46-5.52,10.85-5.52s9.93,3.27,10.85,5.52v23.91c-.92,2.25-4.37,5.52-10.85,5.52s-9.94-3.22-10.85-5.52Zm12.67,3a2.21,2.21,0,0,0-3.65,0v17.9a2.29,2.29,0,0,0,3.65,0Z" transform="translate(-120.77 -1184.89)"/><rect class="cls-13" x="559.75" y="123.02" width="137.8" height="57.37"/><path class="cls-2" d="M716.81,1352.39v-33.6H734v7.34h-8.16v5.72h7.78v7.34h-7.78v13.2Z" transform="translate(-120.77 -1184.89)"/><path class="cls-2" d="M735.48,1323.64c.91-2.31,4.46-5.52,10.85-5.52s9.94,3.26,10.85,5.52v23.9c-.91,2.26-4.37,5.52-10.85,5.52s-9.94-3.21-10.85-5.52Zm12.67,3a2.21,2.21,0,0,0-3.65,0v17.91a2.29,2.29,0,0,0,3.65,0Z" transform="translate(-120.77 -1184.89)"/><path class="cls-2" d="M759.24,1318.79h13.25a9.39,9.39,0,0,1,8.21,4.46v12.15a8.07,8.07,0,0,1-2.84,3.07l2.93,8.06v5.86H773l-3.7-12.14h-1.06v12.14h-9Zm11.09,14.35a1.82,1.82,0,0,0,1.77-1V1327a1.7,1.7,0,0,0-1.77-1h-2.07v7.1Z" transform="translate(-120.77 -1184.89)"/><rect class="cls-13" x="559.75" y="343.57" width="151.8" height="57.37"/><path class="cls-2" d="M715.1,1573.06v-33.61h9v26.26h7.49v7.35Z" transform="translate(-120.77 -1184.89)"/><path class="cls-2" d="M733.44,1573.06v-33.61h17.71v7.35h-8.69v5.57h8.26v7.15h-8.26v6.19h8.84v7.35Z" transform="translate(-120.77 -1184.89)"/><path class="cls-2" d="M753.07,1561.39h8.55v4a1.89,1.89,0,0,0,1.82,1,2,2,0,0,0,1.87-1v-4.18c-.24-.62-1-.91-3.21-1.63-5.62-1.49-7.88-3.08-9-5.33v-10.71c1.49-2.44,4.75-4.75,10.37-4.75s8.93,2.31,10.42,4.75v7.35h-8.55v-3.75a1.92,1.92,0,0,0-1.87-1,1.89,1.89,0,0,0-1.82,1v3.6c.24.58,1,.92,3.26,1.64a26.65,26.65,0,0,1,6.19,2.54,7.28,7.28,0,0,1,2.79,2.88V1569c-1.49,2.44-4.8,4.75-10.42,4.75s-9-2.31-10.37-4.75Z" transform="translate(-120.77 -1184.89)"/><path class="cls-2" d="M775.77,1561.39h8.55v4a1.89,1.89,0,0,0,1.82,1,2,2,0,0,0,1.88-1v-4.18c-.25-.62-1-.91-3.22-1.63-5.62-1.49-7.87-3.08-9-5.33v-10.71c1.49-2.44,4.76-4.75,10.37-4.75s8.93,2.31,10.42,4.75v7.35H788v-3.75a2,2,0,0,0-1.88-1,1.89,1.89,0,0,0-1.82,1v3.6c.24.58,1,.92,3.26,1.64a26.76,26.76,0,0,1,6.2,2.54,7.32,7.32,0,0,1,2.78,2.88V1569c-1.49,2.44-4.8,4.75-10.42,4.75s-9-2.31-10.37-4.75Z" transform="translate(-120.77 -1184.89)"/><rect class="cls-13" x="787.75" y="233.29" width="150.8" height="57.37"/><path class="cls-2" d="M940.66,1451h8.55v4a1.89,1.89,0,0,0,1.82,1,2,2,0,0,0,1.87-1v-4.18c-.24-.62-1-.91-3.21-1.63-5.62-1.49-7.87-3.07-9-5.33v-10.71c1.49-2.44,4.76-4.75,10.37-4.75s8.93,2.31,10.42,4.75v7.35H952.9v-3.75a1.92,1.92,0,0,0-1.87-1,1.89,1.89,0,0,0-1.82,1v3.6c.24.58,1,.92,3.26,1.64a27.22,27.22,0,0,1,6.2,2.54,7.32,7.32,0,0,1,2.78,2.88v11.19c-1.49,2.44-4.8,4.75-10.42,4.75s-9-2.31-10.37-4.75Z" transform="translate(-120.77 -1184.89)"/><path class="cls-2" d="M981.18,1429l4.85,27.75v5.86h-8.6l-.76-6.72h-5l-.82,6.72h-7.92v-5.86l4.9-27.75Zm-8.64,19.54h3.36L974.7,1438h-.82Z" transform="translate(-120.77 -1184.89)"/><path class="cls-2" d="M989.91,1462.64l-5.09-27.75V1429h8.79l2.5,23h.76l2.84-23h8.3v5.86l-5.14,27.75Z" transform="translate(-120.77 -1184.89)"/><path class="cls-2" d="M1009.83,1462.64V1429h17.71v7.35h-8.68V1442h8.25v7.15h-8.25v6.19h8.83v7.35Z" transform="translate(-120.77 -1184.89)"/><rect class="cls-13" x="782.75" y="453.84" width="168.8" height="57.37"/><path class="cls-2" d="M941.1,1684.41v-33.6h11.28l2.31,9.94h.77l2.25-9.94H968.8v33.6h-8.49v-16.13h-.77l-2.6,10.42h-4.36l-2.21-10.42h-.82v16.13Z" transform="translate(-120.77 -1184.89)"/><path class="cls-2" d="M970.82,1655.66c.91-2.3,4.46-5.52,10.84-5.52s9.94,3.26,10.85,5.52v23.91c-.91,2.25-4.36,5.52-10.85,5.52s-9.93-3.22-10.84-5.52Zm12.67,3a2.21,2.21,0,0,0-3.65,0v17.91a2.29,2.29,0,0,0,3.65,0Z" transform="translate(-120.77 -1184.89)"/><path class="cls-2" d="M994.58,1650.81h13.24a9.38,9.38,0,0,1,8.21,4.47v12.14a8.12,8.12,0,0,1-2.83,3.07l2.93,8.07v5.85h-7.78l-3.69-12.14h-1.06v12.14h-9Zm11.08,14.35a1.84,1.84,0,0,0,1.78-1V1659a1.72,1.72,0,0,0-1.78-1h-2.06v7.1Z" transform="translate(-120.77 -1184.89)"/><path class="cls-2" d="M1018.05,1684.41v-33.6h17.71v7.35h-8.69v5.56h8.26v7.16h-8.26v6.19h8.83v7.34Z" transform="translate(-120.77 -1184.89)"/><rect class="cls-13" x="559.75" y="453.84" width="175.8" height="57.37"/><path class="cls-2" d="M706.1,1650h9v25.69a1.79,1.79,0,0,0,1.78.91,1.87,1.87,0,0,0,1.82-.91V1650h9v28.71c-1,2.35-4.36,5.52-10.84,5.52s-9.85-3.17-10.81-5.52Z" transform="translate(-120.77 -1184.89)"/><path class="cls-2" d="M729.82,1672h8.54v4a1.89,1.89,0,0,0,1.82,1,2,2,0,0,0,1.88-1v-4.18c-.24-.62-1-.91-3.22-1.63-5.62-1.49-7.87-3.08-9-5.33v-10.71c1.48-2.44,4.75-4.75,10.36-4.75s8.93,2.31,10.42,4.75v7.35h-8.54v-3.75a2,2,0,0,0-1.88-1,1.89,1.89,0,0,0-1.82,1v3.6c.24.58,1,.92,3.27,1.64a26.84,26.84,0,0,1,6.19,2.54,7.32,7.32,0,0,1,2.78,2.88v11.19c-1.49,2.44-4.8,4.75-10.42,4.75s-9-2.31-10.36-4.75Z" transform="translate(-120.77 -1184.89)"/><path class="cls-2" d="M752.66,1683.64V1650h17.72v7.35h-8.69V1663h8.25v7.15h-8.25v6.19h8.83v7.35Z" transform="translate(-120.77 -1184.89)"/><path class="cls-2" d="M772.44,1683.64V1650h17.18v7.35h-8.16v5.71h7.78v7.35h-7.78v13.2Z" transform="translate(-120.77 -1184.89)"/><path class="cls-2" d="M791.54,1650h9v25.69a1.78,1.78,0,0,0,1.77.91,1.89,1.89,0,0,0,1.83-.91V1650h9v28.71c-1,2.35-4.37,5.52-10.85,5.52s-9.84-3.17-10.8-5.52Z" transform="translate(-120.77 -1184.89)"/><path class="cls-2" d="M815.4,1683.64V1650h9v26.26h7.49v7.35Z" transform="translate(-120.77 -1184.89)"/><rect class="cls-13" x="752.75" y="343.57" width="175.8" height="57.37"/><path class="cls-2" d="M897.1,1539.42h13.3a9.08,9.08,0,0,1,8.07,4.52v13.15a9.12,9.12,0,0,1-8.07,4.56h-4.27V1573h-9Zm11.19,14.93c1,0,1.58-.38,1.73-1v-5.71c-.15-.58-.82-1-1.73-1h-2.16v7.63Z" transform="translate(-120.77 -1184.89)"/><path class="cls-2" d="M920.48,1573v-33.61h17.71v7.35H929.5v5.57h8.26v7.15H929.5v6.19h8.84V1573Z" transform="translate(-120.77 -1184.89)"/><path class="cls-2" d="M939.92,1544.27c.91-2.3,4.46-5.52,10.85-5.52s9.94,3.27,10.85,5.52v23.91c-.91,2.25-4.37,5.52-10.85,5.52s-9.94-3.22-10.85-5.52Zm12.67,3a2.21,2.21,0,0,0-3.65,0v17.9a2.29,2.29,0,0,0,3.65,0Z" transform="translate(-120.77 -1184.89)"/><path class="cls-2" d="M963.68,1539.42H977a9.06,9.06,0,0,1,8.06,4.52v13.15a9.12,9.12,0,0,1-8.06,4.56H972.7V1573h-9Zm11.18,14.93c1,0,1.59-.38,1.73-1v-5.71c-.14-.58-.81-1-1.73-1H972.7v7.63Z" transform="translate(-120.77 -1184.89)"/><path class="cls-2" d="M987.06,1573v-33.61h9v26.26h7.49V1573Z" transform="translate(-120.77 -1184.89)"/><path class="cls-2" d="M1005.39,1573v-33.61h17.71v7.35h-8.68v5.57h8.25v7.15h-8.25v6.19h8.83V1573Z" transform="translate(-120.77 -1184.89)"/><rect class="cls-13" x="815.75" y="564.11" width="177.8" height="57.37"/><path class="cls-2" d="M962.1,1793.8v-33.6h17.19v7.34h-8.16v5.72h7.78v7.34h-7.78v13.2Z" transform="translate(-120.77 -1184.89)"/><path class="cls-2" d="M981.21,1760.2h9v25.68a1.78,1.78,0,0,0,1.78.91,1.85,1.85,0,0,0,1.82-.91V1760.2h9v28.71c-1,2.35-4.37,5.52-10.85,5.52s-9.84-3.17-10.8-5.52Z" transform="translate(-120.77 -1184.89)"/><path class="cls-2" d="M1010,1793.8v-26.26h-5.47v-7.34h20v7.34H1019v26.26Z" transform="translate(-120.77 -1184.89)"/><path class="cls-2" d="M1026.14,1760.2h9v25.68a1.77,1.77,0,0,0,1.78.91,1.85,1.85,0,0,0,1.82-.91V1760.2h9v28.71c-1,2.35-4.37,5.52-10.85,5.52s-9.84-3.17-10.8-5.52Z" transform="translate(-120.77 -1184.89)"/><path class="cls-2" d="M1050,1760.2h13.25a9.39,9.39,0,0,1,8.21,4.46v12.15a8.12,8.12,0,0,1-2.83,3.07l2.92,8.07v5.85h-7.77l-3.7-12.14h-1v12.14h-9Zm11.09,14.35a1.85,1.85,0,0,0,1.78-1v-5.18a1.71,1.71,0,0,0-1.78-1H1059v7.1Z" transform="translate(-120.77 -1184.89)"/><path class="cls-2" d="M1073.46,1793.8v-33.6h17.72v7.34h-8.69v5.57h8.25v7.16h-8.25v6.19h8.83v7.34Z" transform="translate(-120.77 -1184.89)"/><rect class="cls-13" x="559.75" y="233.29" width="187.8" height="57.37"/><path class="cls-2" d="M705,1451.14h8.54v4a1.92,1.92,0,0,0,1.83,1,2,2,0,0,0,1.87-1V1451c-.24-.62-1-.91-3.22-1.63-5.61-1.49-7.87-3.07-9-5.33v-10.71c1.49-2.44,4.75-4.75,10.37-4.75s8.93,2.31,10.42,4.75v7.35H717.2v-3.75a2.26,2.26,0,0,0-3.7,0v3.6c.25.58,1,.92,3.27,1.64a27.1,27.1,0,0,1,6.19,2.54,7.28,7.28,0,0,1,2.79,2.88v11.19c-1.49,2.44-4.8,4.75-10.42,4.75s-9-2.31-10.37-4.75Z" transform="translate(-120.77 -1184.89)"/><path class="cls-2" d="M727.81,1429.2h9v25.69a1.8,1.8,0,0,0,1.78.91,1.87,1.87,0,0,0,1.82-.91V1429.2h9v28.71c-1,2.35-4.37,5.52-10.85,5.52s-9.84-3.17-10.8-5.52Z" transform="translate(-120.77 -1184.89)"/><path class="cls-2" d="M751.66,1462.81V1429.2h9v33.61Z" transform="translate(-120.77 -1184.89)"/><path class="cls-2" d="M762.75,1434.05c.91-2.35,4.46-5.47,10.85-5.47,5.38,0,9,2.21,10.37,4.66v10h-8.55v-6.19a1.86,1.86,0,0,0-1.82-.92,1.9,1.9,0,0,0-1.82.92v17.85a1.84,1.84,0,0,0,1.82,1,1.88,1.88,0,0,0,1.82-1V1448H784v10.75c-1.49,2.5-5,4.71-10.37,4.71-6.39,0-9.94-3.22-10.85-5.52Z" transform="translate(-120.77 -1184.89)"/><path class="cls-2" d="M786.08,1462.81V1429.2h9v33.61Z" transform="translate(-120.77 -1184.89)"/><path class="cls-2" d="M797.31,1429.2h13c4.37,0,7.58,2.12,8.69,4.8v24c-1.11,2.54-4.13,4.8-8.69,4.8h-13Zm10.8,26.31a1.84,1.84,0,0,0,1.82-1v-17.09a1.8,1.8,0,0,0-1.82-1h-1.78v19Z" transform="translate(-120.77 -1184.89)"/><path class="cls-2" d="M821.07,1462.81V1429.2h17.71v7.35h-8.69v5.57h8.26v7.15h-8.26v6.19h8.84v7.35Z" transform="translate(-120.77 -1184.89)"/><rect class="cls-13" x="746.75" y="119.97" width="204.8" height="57.37"/><path class="cls-2" d="M893.1,1316.59h9v25.68a1.78,1.78,0,0,0,1.78.92,1.86,1.86,0,0,0,1.82-.92v-25.68h9v28.71c-1,2.35-4.36,5.52-10.84,5.52s-9.85-3.17-10.81-5.52Z" transform="translate(-120.77 -1184.89)"/><path class="cls-2" d="M916.82,1338.53h8.54v4a1.88,1.88,0,0,0,1.82,1,2,2,0,0,0,1.88-1v-4.17c-.24-.63-1-.91-3.22-1.63-5.62-1.49-7.87-3.08-9-5.33v-10.71c1.48-2.45,4.75-4.75,10.36-4.75s8.93,2.3,10.42,4.75V1328h-8.54v-3.75a2,2,0,0,0-1.88-1,1.89,1.89,0,0,0-1.82,1v3.6c.24.58,1,.92,3.27,1.64a26.84,26.84,0,0,1,6.19,2.54,7.32,7.32,0,0,1,2.78,2.88v11.18c-1.49,2.45-4.8,4.76-10.42,4.76s-9-2.31-10.36-4.76Z" transform="translate(-120.77 -1184.89)"/><path class="cls-2" d="M939.66,1350.2v-33.61h17.72v7.35h-8.69v5.57h8.25v7.15h-8.25v6.19h8.83v7.35Z" transform="translate(-120.77 -1184.89)"/><path class="cls-2" d="M959.44,1350.2v-33.61h9v26.26H976v7.35Z" transform="translate(-120.77 -1184.89)"/><path class="cls-2" d="M977.77,1350.2v-33.61h17.72v7.35H986.8v5.57h8.26v7.15H986.8v6.19h8.83v7.35Z" transform="translate(-120.77 -1184.89)"/><path class="cls-2" d="M997.41,1338.53H1006v4a1.88,1.88,0,0,0,1.82,1,2,2,0,0,0,1.88-1v-4.17c-.24-.63-1-.91-3.22-1.63-5.62-1.49-7.87-3.08-9-5.33v-10.71c1.48-2.45,4.75-4.75,10.36-4.75s8.93,2.3,10.42,4.75V1328h-8.54v-3.75a2,2,0,0,0-1.88-1,1.89,1.89,0,0,0-1.82,1v3.6c.24.58,1,.92,3.26,1.64a26.76,26.76,0,0,1,6.2,2.54,7.32,7.32,0,0,1,2.78,2.88v11.18c-1.49,2.45-4.8,4.76-10.42,4.76s-9-2.31-10.36-4.76Z" transform="translate(-120.77 -1184.89)"/><path class="cls-2" d="M1020.11,1338.53h8.54v4a1.9,1.9,0,0,0,1.83,1,2,2,0,0,0,1.87-1v-4.17c-.24-.63-1-.91-3.22-1.63-5.61-1.49-7.87-3.08-9-5.33v-10.71c1.49-2.45,4.75-4.75,10.37-4.75s8.93,2.3,10.41,4.75V1328h-8.54v-3.75a2.26,2.26,0,0,0-3.7,0v3.6c.24.58,1,.92,3.27,1.64a26.84,26.84,0,0,1,6.19,2.54,7.18,7.18,0,0,1,2.78,2.88v11.18c-1.48,2.45-4.8,4.76-10.41,4.76s-9-2.31-10.37-4.76Z" transform="translate(-120.77 -1184.89)"/><rect class="cls-13" x="559.75" y="564.11" width="208.8" height="57.37"/><path class="cls-2" d="M718,1765.3c.91-2.31,4.46-5.52,10.85-5.52s9.94,3.26,10.85,5.52v23.9c-.91,2.26-4.37,5.52-10.85,5.52s-9.94-3.21-10.85-5.52Zm12.67,3a2.21,2.21,0,0,0-3.65,0v17.91a2.29,2.29,0,0,0,3.65,0Z" transform="translate(-120.77 -1184.89)"/><path class="cls-2" d="M741.24,1794.05v-5.86l4.42-11.18-4.42-10.71v-5.85h8.16l2.3,9.41h.77l2.36-9.41h7.58v5.85L758,1777l4.42,11.18v5.86h-8.26l-2.16-9.5h-.77l-2.49,9.5Z" transform="translate(-120.77 -1184.89)"/><path class="cls-2" d="M770.38,1794.05v-12.14L764,1766.3v-5.85h8.21l2.45,9.94h.76l2.4-9.94h7.88v5.85l-6.39,15.7v12Z" transform="translate(-120.77 -1184.89)"/><path class="cls-2" d="M787.32,1765.3c1-2.31,4.41-5.48,10.85-5.48,5.37,0,8.88,2.16,10.37,4.66v8.21H800v-4.37a2.29,2.29,0,0,0-3.65,0v18a1.83,1.83,0,0,0,1.83.91,1.8,1.8,0,0,0,1.82-.91v-4.94h-1.92v-6.67h10.47V1790c-1.49,2.5-4.95,4.7-10.37,4.7-6.48,0-9.79-3.16-10.85-5.52Z" transform="translate(-120.77 -1184.89)"/><path class="cls-2" d="M810.65,1794.05v-33.6h17.71v7.34h-8.69v5.57h8.26v7.15h-8.26v6.2h8.83v7.34Z" transform="translate(-120.77 -1184.89)"/><path class="cls-2" d="M830.42,1794.05v-33.6h9.31l4.61,14.64h.77v-14.64h8.5v33.6h-9.32l-4.6-14.74h-.77v14.74Z" transform="translate(-120.77 -1184.89)"/><rect class="cls-13" x="559.75" y="675" width="295.8" height="57.37"/><path class="cls-2" d="M737.1,1904.09v-33.61h9v12.68h3.65v-12.68h9v33.61h-9V1890.5h-3.65v13.59Z" transform="translate(-120.77 -1184.89)"/><path class="cls-2" d="M761,1870.48h9v25.69a1.8,1.8,0,0,0,1.78.91,1.87,1.87,0,0,0,1.82-.91v-25.69h9v28.71c-1,2.35-4.37,5.52-10.85,5.52s-9.84-3.17-10.8-5.52Z" transform="translate(-120.77 -1184.89)"/><path class="cls-2" d="M784.86,1904.09v-33.61h11.28l2.31,9.94h.77l2.25-9.94h11.09v33.61h-8.5V1888h-.76l-2.6,10.41h-4.36L794.13,1888h-.82v16.13Z" transform="translate(-120.77 -1184.89)"/><path class="cls-2" d="M832.53,1870.48l4.85,27.75v5.86h-8.6l-.76-6.72h-5l-.81,6.72h-7.92v-5.86l4.89-27.75ZM823.89,1890h3.36l-1.2-10.61h-.82Z" transform="translate(-120.77 -1184.89)"/><path class="cls-2" d="M839.1,1904.09v-33.61h9.32l4.6,14.64h.77v-14.64h8.5v33.61H853l-4.61-14.74h-.77v14.74Z" transform="translate(-120.77 -1184.89)"/><path class="cls-2" d="M864.49,1904.09v-33.61h9v33.61Z" transform="translate(-120.77 -1184.89)"/><path class="cls-2" d="M880.62,1904.09v-26.26h-5.47v-7.35h20v7.35h-5.47v26.26Z" transform="translate(-120.77 -1184.89)"/><path class="cls-2" d="M902.89,1904.09v-12.15l-6.33-15.6v-5.86h8.21l2.44,9.94H908l2.4-9.94h7.87v5.86l-6.38,15.7v12Z" transform="translate(-120.77 -1184.89)"/><rect class="cls-13" x="559.75" y="786.03" width="373.8" height="57.37"/><path class="cls-2" d="M760.8,2003.93h7.12v3.32a1.57,1.57,0,0,0,1.52.8,1.64,1.64,0,0,0,1.56-.8v-3.48c-.2-.52-.8-.76-2.68-1.36-4.68-1.24-6.56-2.56-7.52-4.44v-8.92c1.24-2,4-4,8.64-4s7.44,1.92,8.68,4v6.12H771v-3.12a1.6,1.6,0,0,0-1.56-.8,1.57,1.57,0,0,0-1.52.8v3c.2.48.84.76,2.72,1.36a22.57,22.57,0,0,1,5.16,2.12,6,6,0,0,1,2.32,2.4v9.32c-1.24,2-4,4-8.68,4s-7.48-1.92-8.64-4Z" transform="translate(-120.77 -1184.89)"/><path class="cls-2" d="M779.84,1985.65h7.52v21.4a1.49,1.49,0,0,0,1.48.76,1.55,1.55,0,0,0,1.52-.76v-21.4h7.52v23.92c-.8,2-3.64,4.6-9,4.6s-8.2-2.64-9-4.6Z" transform="translate(-120.77 -1184.89)"/><path class="cls-2" d="M800.64,2005.05l-.92-12.12v-7.28h7.8v7.28l-.92,12.12Zm-.6,3a4.65,4.65,0,0,1,7.16,0v4.24a4.65,4.65,0,0,1-7.16,0Z" transform="translate(-120.77 -1184.89)"/><path class="cls-2" d="M809.24,1989.69c.76-2,3.72-4.56,9-4.56,4.48,0,7.48,1.84,8.64,3.88v8.36H819.8v-5.16a1.55,1.55,0,0,0-1.52-.76,1.59,1.59,0,0,0-1.52.76v14.88a1.55,1.55,0,0,0,1.52.8,1.57,1.57,0,0,0,1.52-.8v-5.76h7.12v9c-1.24,2.08-4.12,3.92-8.64,3.92-5.32,0-8.28-2.68-9-4.6Z" transform="translate(-120.77 -1184.89)"/><path class="cls-2" d="M829.6,2005.05l-.92-12.12v-7.28h7.8v7.28l-.92,12.12Zm-.6,3a4.65,4.65,0,0,1,7.16,0v4.24a4.65,4.65,0,0,1-7.16,0Z" transform="translate(-120.77 -1184.89)"/><path class="cls-2" d="M838.32,1985.65h10.8c3.64,0,6.32,1.76,7.24,4v20c-.92,2.12-3.44,4-7.24,4h-10.8Zm9,21.92a1.55,1.55,0,0,0,1.52-.8v-14.24a1.51,1.51,0,0,0-1.52-.8h-1.48v15.84Z" transform="translate(-120.77 -1184.89)"/><path class="cls-2" d="M858.12,2013.65v-28h14.76v6.12h-7.24v4.64h6.88v6h-6.88v5.16H873v6.12Z" transform="translate(-120.77 -1184.89)"/><path class="cls-2" d="M880.88,1989.69c.76-1.92,3.72-4.6,9-4.6s8.27,2.72,9,4.6v19.92c-.76,1.88-3.64,4.6-9,4.6s-8.28-2.68-9-4.6Zm10.56,2.52a1.84,1.84,0,0,0-3,0v14.92a1.9,1.9,0,0,0,3,0Z" transform="translate(-120.77 -1184.89)"/><path class="cls-2" d="M900.68,1985.65h11a7.82,7.82,0,0,1,6.84,3.72v10.12a6.72,6.72,0,0,1-2.36,2.56l2.44,6.72v4.88h-6.48l-3.07-10.12h-.88v10.12h-7.52Zm9.24,12a1.52,1.52,0,0,0,1.47-.8v-4.32a1.41,1.41,0,0,0-1.47-.8H908.2v5.92Z" transform="translate(-120.77 -1184.89)"/><path class="cls-2" d="M926.64,1985.65h10.79c3.64,0,6.32,1.76,7.24,4v20c-.92,2.12-3.44,4-7.24,4H926.64Zm9,21.92a1.55,1.55,0,0,0,1.52-.8v-14.24a1.51,1.51,0,0,0-1.52-.8h-1.48v15.84Z" transform="translate(-120.77 -1184.89)"/><path class="cls-2" d="M947.36,2005.05l-.92-12.12v-7.28h7.79v7.28l-.92,12.12Zm-.6,3a4.64,4.64,0,0,1,7.15,0v4.24a4.64,4.64,0,0,1-7.15,0Z" transform="translate(-120.77 -1184.89)"/><path class="cls-2" d="M956.08,2013.65v-28h14.75v6.12h-7.24v4.64h6.88v6h-6.88v5.16H971v6.12Z" transform="translate(-120.77 -1184.89)"/></g></svg>