<svg xmlns="http://www.w3.org/2000/svg" viewBox="0 0 1667.01 863.92"><defs><style>.cls-1,.cls-2,.cls-4,.cls-5,.cls-6,.cls-7{fill:none;stroke:#ffeb00;}.cls-1{stroke-linecap:round;stroke-linejoin:round;}.cls-1,.cls-6{stroke-width:3px;}.cls-2,.cls-4,.cls-5,.cls-6,.cls-7{stroke-miterlimit:10;}.cls-2{stroke-width:1.2px;}.cls-3{fill:#ffeb00;}.cls-4{stroke-linecap:square;}.cls-7{stroke-width:2px;}</style></defs><title>instruzioni sito_1</title><g id="Livello_2" data-name="Livello 2"><line class="cls-1" x1="1099.01" y1="186.95" x2="1099" y2="844.18"/><line class="cls-1" x1="1147.01" y1="159.05" x2="1147.01" y2="816.46"/><line class="cls-1" x1="1099.01" y1="186.77" x2="1147.01" y2="159.05"/><line class="cls-1" x1="1099.01" y1="186.77" x2="1083.01" y2="176.95"/><line class="cls-1" x1="1099" y1="844.18" x2="1147.01" y2="816.46"/><line class="cls-1" x1="1083.01" y1="176.95" x2="1130.51" y2="149.53"/><line class="cls-1" x1="1147.01" y1="159.05" x2="1130.51" y2="149.53"/><line class="cls-1" x1="1083.01" y1="176.95" x2="1083.01" y2="834.95"/><line class="cls-1" x1="1099" y1="844.18" x2="1083.01" y2="834.95"/><line class="cls-1" x1="1528.01" y1="186.77" x2="1555.01" y2="171.18"/><line class="cls-1" x1="1555.01" y1="828.59" x2="1555.01" y2="171.18"/><line class="cls-1" x1="1528.01" y1="844.18" x2="1528.01" y2="186.77"/><line class="cls-1" x1="1528.01" y1="844.18" x2="1555.01" y2="828.59"/><line class="cls-1" x1="1528.01" y1="844.18" x2="1517.03" y2="837.84"/><line class="cls-1" x1="1528.01" y1="186.77" x2="1517.03" y2="180.42"/><line class="cls-1" x1="1555.01" y1="171.18" x2="1544.03" y2="164.83"/><line class="cls-1" x1="1517.03" y1="180.42" x2="1544.03" y2="164.83"/><line class="cls-1" x1="1517.03" y1="837.84" x2="1517.03" y2="180.42"/><path class="cls-2" d="M554.43,769.76c-1.2,2.54-7.5,2.09-14.08-1s-10.94-7.67-9.74-10.22,7.5-2.1,14.08,1S555.63,767.21,554.43,769.76Zm-2.64,1.54-9.74,1.31-13.22,28L524,804l-.52-5.88,13.22-28-5.61-8.59m7.41,10.9c-2.77-.54-5.13-.32-5.29.49s2,1.89,4.72,2.43,5.13.31,5.29-.49S541.23,772.91,538.47,772.38Zm-1.87,4c-2.76-.53-5.13-.31-5.28.49s1.95,1.9,4.72,2.43,5.13.32,5.28-.49S539.37,776.93,536.6,776.39Zm-1.86,4c-2.77-.54-5.13-.32-5.29.49s2,1.89,4.72,2.43,5.13.31,5.29-.49S537.5,781,534.74,780.41Zm-1.87,4c-2.76-.53-5.13-.31-5.28.49s1.95,1.9,4.72,2.43,5.13.32,5.28-.49S535.64,785,532.87,784.42Zm-1.86,4c-2.77-.54-5.13-.32-5.29.49s2,1.89,4.72,2.43,5.13.32,5.29-.49S533.77,789,531,788.44Zm-1.87,4c-2.76-.54-5.13-.32-5.28.49s1.95,1.89,4.72,2.42,5.13.32,5.28-.49S531.91,793,529.14,792.46Zm-1.64,3.75c-2.08-.4-3.87-.24-4,.37s1.47,1.43,3.55,1.83,3.87.24,4-.37S529.58,796.62,527.5,796.21Z" transform="translate(-122.99 -106.05)"/><path class="cls-2" d="M580.86,769.76c-1.2,2.54-7.51,2.09-14.09-1s-10.94-7.67-9.74-10.22,7.51-2.1,14.09,1S582.06,767.21,580.86,769.76Zm-2.65,1.54-9.73,1.31-13.22,28L550.4,804l-.52-5.88,13.22-28-5.62-8.59m7.41,10.9c-2.76-.54-5.13-.32-5.28.49s1.95,1.89,4.72,2.43,5.13.31,5.28-.49S567.66,772.91,564.89,772.38Zm-1.86,4c-2.77-.53-5.13-.31-5.29.49s2,1.9,4.72,2.43,5.13.32,5.29-.49S565.79,776.93,563,776.39Zm-1.87,4c-2.76-.54-5.13-.32-5.28.49s2,1.89,4.72,2.43,5.13.31,5.28-.49S563.93,781,561.16,780.41Zm-1.86,4c-2.77-.53-5.13-.31-5.29.49s2,1.9,4.72,2.43,5.13.32,5.29-.49S562.06,785,559.3,784.42Zm-1.87,4c-2.76-.54-5.13-.32-5.28.49s2,1.89,4.72,2.43,5.13.32,5.28-.49S560.2,789,557.43,788.44Zm-1.86,4c-2.77-.54-5.13-.32-5.29.49s2,1.89,4.72,2.42,5.13.32,5.29-.49S558.33,793,555.57,792.46Zm-1.65,3.75c-2.08-.4-3.86-.24-4,.37s1.48,1.43,3.56,1.83,3.86.24,4-.37S556,796.62,553.92,796.21Z" transform="translate(-122.99 -106.05)"/><path class="cls-2" d="M557.91,820.69c-1.2,2.55-7.51,2.1-14.09-1s-10.93-7.68-9.73-10.22,7.5-2.1,14.08,1S559.11,818.15,557.91,820.69Zm-2.64,1.55-9.74,1.3-13.22,28.05-4.86,3.35-.52-5.88,13.22-28-5.62-8.59m7.42,10.9c-2.77-.54-5.13-.32-5.29.49s2,1.89,4.72,2.42,5.13.32,5.29-.49S544.71,823.85,542,823.32Zm-1.87,4c-2.76-.53-5.13-.32-5.29.49s2,1.89,4.73,2.43,5.13.32,5.28-.49S542.84,827.87,540.08,827.33Zm-1.86,4c-2.77-.54-5.14-.32-5.29.49s2,1.89,4.72,2.42,5.13.32,5.29-.49S541,831.88,538.22,831.35Zm-1.87,4c-2.76-.53-5.13-.31-5.29.49s2,1.89,4.72,2.43,5.14.32,5.29-.49S539.11,835.9,536.35,835.36Zm-1.86,4c-2.77-.54-5.14-.32-5.29.49s2,1.89,4.72,2.43,5.13.31,5.29-.49S537.25,839.91,534.49,839.38Zm-1.87,4c-2.76-.53-5.13-.31-5.29.49s2,1.9,4.72,2.43,5.13.32,5.29-.49S535.38,843.93,532.62,843.39ZM531,847.15c-2.08-.4-3.86-.24-4,.37s1.48,1.42,3.56,1.83,3.86.23,4-.37S533.06,847.55,531,847.15Z" transform="translate(-122.99 -106.05)"/><path class="cls-2" d="M598.34,792.29c-1.2,2.55-7.51,2.1-14.09-1s-10.94-7.68-9.74-10.22,7.51-2.1,14.09,1S599.54,789.75,598.34,792.29Zm-2.65,1.55L586,795.15l-13.22,28-4.86,3.35-.52-5.88,13.22-28L575,784m7.41,10.9c-2.76-.54-5.13-.32-5.28.49s1.95,1.89,4.72,2.43,5.13.31,5.29-.49S585.14,795.45,582.37,794.92Zm-1.86,4c-2.76-.53-5.13-.31-5.29.49s2,1.9,4.72,2.43,5.13.32,5.29-.49S583.27,799.47,580.51,798.93Zm-1.87,4c-2.76-.54-5.13-.32-5.28.49s1.95,1.89,4.72,2.43,5.13.31,5.28-.49S581.41,803.48,578.64,803Zm-1.86,4c-2.77-.53-5.13-.31-5.29.49s2,1.9,4.72,2.43,5.13.32,5.29-.49S579.54,807.5,576.78,807Zm-1.87,4c-2.76-.54-5.13-.32-5.28.49s2,1.89,4.72,2.43,5.13.31,5.28-.49S577.68,811.51,574.91,811Zm-1.86,4c-2.77-.53-5.13-.31-5.29.49s2,1.9,4.72,2.43,5.13.32,5.29-.49S575.81,815.53,573.05,815Zm-1.65,3.76c-2.08-.4-3.86-.24-4,.37s1.48,1.42,3.56,1.83,3.86.24,4-.37S573.48,819.15,571.4,818.75Z" transform="translate(-122.99 -106.05)"/><path class="cls-2" d="M636.45,771.19c-1.2,2.54-7.51,2.09-14.09-1s-10.94-7.67-9.74-10.22,7.51-2.1,14.09,1S637.65,768.64,636.45,771.19Zm-2.65,1.54L624.07,774l-13.22,28.05L606,805.43l-.52-5.88,13.22-28-5.62-8.59m7.41,10.9c-2.76-.54-5.13-.32-5.28.49s1.95,1.89,4.72,2.43,5.13.31,5.28-.49S623.25,774.34,620.48,773.81Zm-1.86,4c-2.77-.53-5.13-.31-5.29.49s2,1.9,4.72,2.43,5.13.32,5.29-.49S621.38,778.36,618.62,777.82Zm-1.87,4c-2.76-.54-5.13-.32-5.28.49s1.95,1.89,4.72,2.43,5.13.31,5.28-.49S619.52,782.37,616.75,781.84Zm-1.86,4c-2.77-.53-5.13-.31-5.29.49s2,1.9,4.72,2.43,5.13.32,5.29-.49S617.65,786.39,614.89,785.85Zm-1.87,4c-2.76-.54-5.13-.32-5.28.49s2,1.89,4.72,2.43,5.13.32,5.28-.49S615.79,790.41,613,789.87Zm-1.86,4c-2.77-.54-5.13-.32-5.29.49s2,1.89,4.72,2.42,5.13.32,5.29-.49S613.92,794.42,611.16,793.89Zm-1.65,3.75c-2.08-.4-3.86-.24-4,.37s1.48,1.43,3.56,1.83,3.86.24,4-.37S611.59,798.05,609.51,797.64Z" transform="translate(-122.99 -106.05)"/><path class="cls-2" d="M649.19,796.47c-1.2,2.55-7.5,2.1-14.08-1s-10.94-7.67-9.74-10.22,7.5-2.1,14.08,1S650.39,793.93,649.19,796.47ZM646.55,798l-9.74,1.31-13.22,28-4.86,3.34-.51-5.88,13.21-28.05-5.61-8.59m7.41,10.9c-2.77-.54-5.13-.32-5.29.49s2,1.89,4.72,2.43,5.13.31,5.29-.49S636,799.63,633.23,799.1Zm-1.87,4c-2.76-.53-5.13-.31-5.28.49s1.95,1.9,4.72,2.43,5.13.32,5.28-.49S634.13,803.65,631.36,803.11Zm-1.86,4c-2.77-.54-5.13-.32-5.29.49s2,1.89,4.72,2.43,5.13.31,5.29-.49S632.26,807.66,629.5,807.13Zm-1.87,4c-2.76-.53-5.13-.31-5.28.49s1.95,1.9,4.72,2.43,5.13.32,5.28-.49S630.4,811.68,627.63,811.14Zm-1.86,4c-2.77-.54-5.13-.32-5.29.49s2,1.89,4.72,2.43,5.13.31,5.29-.49S628.53,815.7,625.77,815.16Zm-1.87,4c-2.76-.53-5.13-.31-5.28.49s2,1.9,4.72,2.43,5.13.32,5.28-.49S626.67,819.71,623.9,819.17Zm-1.64,3.76c-2.08-.4-3.87-.24-4,.37s1.47,1.43,3.55,1.83,3.87.24,4-.37S624.34,823.34,622.26,822.93Z" transform="translate(-122.99 -106.05)"/><path class="cls-2" d="M611.08,827.81c-1.2,2.55-7.5,2.1-14.08-1s-10.94-7.68-9.74-10.22,7.51-2.1,14.08,1S612.28,825.27,611.08,827.81Zm-2.64,1.55-9.74,1.31-13.21,28.05-4.87,3.34-.51-5.88,13.21-28-5.61-8.59m7.41,10.9c-2.76-.54-5.13-.32-5.29.49s2,1.89,4.72,2.43,5.13.31,5.29-.49S597.88,831,595.12,830.44Zm-1.87,4c-2.76-.53-5.13-.31-5.28.49s1.95,1.9,4.72,2.43,5.13.32,5.29-.49S596,835,593.25,834.45Zm-1.86,4c-2.76-.54-5.13-.32-5.29.49s2,1.89,4.72,2.43,5.13.31,5.29-.49S594.15,839,591.39,838.47Zm-1.87,4c-2.76-.53-5.13-.31-5.28.49s2,1.9,4.72,2.43,5.13.32,5.28-.49S592.29,843,589.52,842.48Zm-1.86,4c-2.77-.54-5.13-.32-5.29.49s2,1.89,4.72,2.43,5.13.31,5.29-.49S590.42,847,587.66,846.5Zm-1.87,4c-2.76-.53-5.13-.31-5.28.49s2,1.9,4.72,2.43,5.13.32,5.28-.49S588.56,851.05,585.79,850.51Zm-1.64,3.76c-2.08-.4-3.87-.24-4,.37s1.47,1.43,3.55,1.83,3.87.24,4-.37S586.23,854.67,584.15,854.27Z" transform="translate(-122.99 -106.05)"/><ellipse class="cls-3" cx="684" cy="792.63" rx="9.47" ry="4.38" transform="translate(-421.29 324.35) rotate(-28.97)"/><polygon class="cls-3" points="566.18 687.36 582.2 724.56 559.18 691.23 566.18 687.36"/><ellipse class="cls-3" cx="743.86" cy="785.46" rx="4.38" ry="9.47" transform="translate(-348.11 1160.39) rotate(-72.96)"/><polygon class="cls-3" points="623.9 683.67 608.26 721.03 616.25 681.32 623.9 683.67"/><ellipse class="cls-3" cx="719.56" cy="799.43" rx="9.47" ry="4.38" transform="translate(-420.13 342.43) rotate(-28.97)"/><polygon class="cls-3" points="601.74 694.15 617.76 731.36 594.74 698.03 601.74 694.15"/><ellipse class="cls-3" cx="681.12" cy="818.62" rx="9.47" ry="4.38" transform="translate(-265.84 1387.2) rotate(-89.55)"/><polygon class="cls-3" points="561.35 708.45 601.63 712.77 561.28 716.45 561.35 708.45"/><ellipse class="cls-3" cx="727.31" cy="782.62" rx="9.47" ry="4.38" transform="translate(-240.71 22.82) rotate(-9.37)"/><polygon class="cls-3" points="608.93 679.03 611.55 719.45 601.03 680.33 608.93 679.03"/><ellipse class="cls-3" cx="709.97" cy="771.1" rx="9.47" ry="4.38" transform="translate(-144.77 -85.41) rotate(-1.64)"/><polygon class="cls-3" points="591.22 668.11 588.38 708.52 583.23 668.34 591.22 668.11"/><line class="cls-4" x1="1226.01" y1="834.95" x2="1279.01" y2="834.95"/><path class="cls-3" d="M1361,956.66h-7.28V955h9.38v1.51l-5.67,13.19h-1.63V968.4l5.2-11.47Z" transform="translate(-122.99 -106.05)"/><path class="cls-3" d="M1373.71,958.09a5.16,5.16,0,0,1,3,.8,4.13,4.13,0,0,1,1.58,1.76v1.93h-1.83v-1.32a2.7,2.7,0,0,0-1-1.16,3.09,3.09,0,0,0-1.72-.46,3,3,0,0,0-1.68.46,2.7,2.7,0,0,0-1,1.16v5.52a2.59,2.59,0,0,0,1,1.16,3,3,0,0,0,1.68.46,3.11,3.11,0,0,0,1.74-.46,2.67,2.67,0,0,0,1-1.16v-1.32h1.83v1.93a4.41,4.41,0,0,1-1.58,1.76,5,5,0,0,1-3,.82,4.81,4.81,0,0,1-3-.86,4.7,4.7,0,0,1-1.64-1.93v-6.32a4.7,4.7,0,0,1,1.64-1.93A4.89,4.89,0,0,1,1373.71,958.09Z" transform="translate(-122.99 -106.05)"/><path class="cls-3" d="M1394.92,960.33v9.35H1393v-8.9a2.16,2.16,0,0,0-2.08-1.1,2.69,2.69,0,0,0-1.28.28,2.57,2.57,0,0,0-.93.75v9h-2v-8.9a2,2,0,0,0-.71-.78,2.52,2.52,0,0,0-1.35-.32,2.89,2.89,0,0,0-1.3.28,2.38,2.38,0,0,0-.92.75v9h-1.93V958.36h1.82v.86a3.87,3.87,0,0,1,2.84-1.11,3.82,3.82,0,0,1,1.84.4,3.76,3.76,0,0,1,1.22,1,4.36,4.36,0,0,1,1.35-1,3.9,3.9,0,0,1,1.82-.4,3.59,3.59,0,0,1,2.31.67A4.06,4.06,0,0,1,1394.92,960.33Z" transform="translate(-122.99 -106.05)"/><rect class="cls-1" x="1226.01" y="162.95" width="53" height="646"/><line class="cls-4" x1="1629.51" y1="835.45" x2="1661.51" y2="835.45"/><path class="cls-3" d="M1757.55,961v4.89a4.56,4.56,0,0,1-.88,1.16,5.06,5.06,0,0,1-1.6,1,6.21,6.21,0,0,1-4.49,0,5.06,5.06,0,0,1-1.6-1,4.25,4.25,0,0,1-.9-1.16v-2H1750v1.3a2.65,2.65,0,0,0,1.09,1.17,3.23,3.23,0,0,0,1.78.49,3.36,3.36,0,0,0,1.79-.49,2.49,2.49,0,0,0,1.07-1.17V961.8a2.46,2.46,0,0,0-1.07-1.18,3.42,3.42,0,0,0-1.81-.48,3.17,3.17,0,0,0-1.61.37,3.47,3.47,0,0,0-1,.84h-1.87v-7.87h9.05v1.68h-7.18v4.54a5,5,0,0,1,5.8-.4A4.05,4.05,0,0,1,1757.55,961Z" transform="translate(-122.99 -106.05)"/><path class="cls-3" d="M1768.78,956.59a5.2,5.2,0,0,1,3,.8,4.1,4.1,0,0,1,1.57,1.76v1.93h-1.83v-1.32a2.67,2.67,0,0,0-1-1.16,3.13,3.13,0,0,0-1.73-.46,3,3,0,0,0-1.68.46,2.67,2.67,0,0,0-1,1.16v5.52a2.57,2.57,0,0,0,1,1.16,3,3,0,0,0,1.68.46,3.15,3.15,0,0,0,1.75-.46,2.64,2.64,0,0,0,1-1.16V964h1.83v1.93a4.38,4.38,0,0,1-1.57,1.76,5.05,5.05,0,0,1-3,.82,4.85,4.85,0,0,1-3-.86,4.78,4.78,0,0,1-1.64-1.93v-6.32a4.78,4.78,0,0,1,1.64-1.93A4.91,4.91,0,0,1,1768.78,956.59Z" transform="translate(-122.99 -106.05)"/><path class="cls-3" d="M1790,958.83v9.35h-1.93v-8.9a2.15,2.15,0,0,0-2.08-1.1,2.74,2.74,0,0,0-1.28.28,2.53,2.53,0,0,0-.92.75v9h-2v-8.9a1.83,1.83,0,0,0-.71-.78,2.48,2.48,0,0,0-1.34-.32,2.9,2.9,0,0,0-1.31.28,2.45,2.45,0,0,0-.92.75v9h-1.93V956.86h1.83v.86a4.27,4.27,0,0,1,4.68-.71,4,4,0,0,1,1.22,1,4.32,4.32,0,0,1,1.34-1,4,4,0,0,1,1.83-.4,3.63,3.63,0,0,1,2.31.67A4.14,4.14,0,0,1,1790,958.83Z" transform="translate(-122.99 -106.05)"/><rect class="cls-1" x="1632.01" y="162.95" width="29" height="646"/></g><g id="testo"><path class="cls-3" d="M1203.47,106.76l2.29,12h.36l3-12h2.18l3,12h.35l2.27-12h2V108l-2.73,13.42h-3l-2.83-11H1210l-2.81,11h-2.9L1201.52,108v-1.28Z" transform="translate(-122.99 -106.05)"/><path class="cls-3" d="M1226,106.47a5.72,5.72,0,0,1,3.42,1,5.62,5.62,0,0,1,1.89,2.24v8.88a5.65,5.65,0,0,1-1.89,2.25,6.57,6.57,0,0,1-6.84,0,5.65,5.65,0,0,1-1.89-2.25v-8.88a5.62,5.62,0,0,1,1.89-2.24A5.72,5.72,0,0,1,1226,106.47Zm0,13.61a3.57,3.57,0,0,0,2-.57,3.05,3.05,0,0,0,1.17-1.41v-8a3,3,0,0,0-1.17-1.4,3.94,3.94,0,0,0-4.08,0,3,3,0,0,0-1.17,1.4v8a3.05,3.05,0,0,0,1.17,1.41A3.57,3.57,0,0,0,1226,120.08Z" transform="translate(-122.99 -106.05)"/><path class="cls-3" d="M1239.11,106.47a5.74,5.74,0,0,1,3.42,1,5.62,5.62,0,0,1,1.89,2.24v8.88a5.89,5.89,0,0,1-10.63,0v-8.88a5.62,5.62,0,0,1,1.89-2.24A5.77,5.77,0,0,1,1239.11,106.47Zm0,13.61a3.54,3.54,0,0,0,2-.57,3,3,0,0,0,1.18-1.41v-8a3,3,0,0,0-1.18-1.4,3.92,3.92,0,0,0-4.07,0,3,3,0,0,0-1.18,1.4v8a3.07,3.07,0,0,0,1.18,1.41A3.57,3.57,0,0,0,1239.11,120.08Z" transform="translate(-122.99 -106.05)"/><path class="cls-3" d="M1252.61,121.46h-5.4v-14.7h5.4a5.54,5.54,0,0,1,3.17.84,4.8,4.8,0,0,1,1.76,2.06v8.9a4.8,4.8,0,0,1-1.76,2.06A5.46,5.46,0,0,1,1252.61,121.46Zm-.36-13h-2.94V119.8h2.94a4,4,0,0,0,2-.5,2.78,2.78,0,0,0,1.15-1.28v-7.81a2.82,2.82,0,0,0-1.15-1.3A4.08,4.08,0,0,0,1252.25,108.42Z" transform="translate(-122.99 -106.05)"/><path class="cls-3" d="M1269,108.42h-6.55v4.64h6.09v1.66h-6.09v5.08h6.72v1.66h-8.82v-14.7H1269Z" transform="translate(-122.99 -106.05)"/><path class="cls-3" d="M1280.18,118.19h.36V106.76h2v14.7h-2.64L1274,110h-.36v11.42h-2v-14.7h2.64Z" transform="translate(-122.99 -106.05)"/><path class="cls-3" d="M1291.46,118.4a3.14,3.14,0,0,0,1.13,1.17,4,4,0,0,0,3.89,0,3.14,3.14,0,0,0,1.13-1.17v-1.85a3,3,0,0,0-.84-.93,5.23,5.23,0,0,0-1.64-.65l-1.45-.35a8.59,8.59,0,0,1-2.85-1.1,4.39,4.39,0,0,1-1.41-1.47v-2.81a5.66,5.66,0,0,1,1.81-1.93,5.73,5.73,0,0,1,3.32-.84,5.63,5.63,0,0,1,3.27.86,6,6,0,0,1,1.81,1.91v1.91h-2v-1.34a3.24,3.24,0,0,0-1.13-1.18,4,4,0,0,0-3.89,0,3.07,3.07,0,0,0-1.13,1.18v1.47a2.38,2.38,0,0,0,.84.86,6.32,6.32,0,0,0,1.7.67l1.39.38a9.27,9.27,0,0,1,2.85,1.11,4.84,4.84,0,0,1,1.39,1.47V119a5.45,5.45,0,0,1-5.08,2.79,5.52,5.52,0,0,1-5.13-2.79v-2.1h2Z" transform="translate(-122.99 -106.05)"/><path class="cls-3" d="M1304.35,119.8h5.42v1.66h-7.52v-14.7h2.1Z" transform="translate(-122.99 -106.05)"/><path class="cls-3" d="M1322.66,121.46h-1.84l-1.24-4.11H1314l-1.24,4.11h-1.65v-1.28l4.17-13.42h3.17l4.2,13.42ZM1317,108.61h-.35l-2.12,7.08h4.59Z" transform="translate(-122.99 -106.05)"/><path class="cls-3" d="M1322.35,106.76h10.08v1.66h-4v13h-2.1v-13h-4Z" transform="translate(-122.99 -106.05)"/><path class="cls-3" d="M1335.85,118.4a3.09,3.09,0,0,0,1.14,1.17,3.94,3.94,0,0,0,3.88,0,3.06,3.06,0,0,0,1.13-1.17v-1.85a3,3,0,0,0-.84-.93,5.16,5.16,0,0,0-1.63-.65l-1.45-.35a8.57,8.57,0,0,1-2.86-1.1,4.26,4.26,0,0,1-1.4-1.47v-2.81a5.53,5.53,0,0,1,1.8-1.93,5.73,5.73,0,0,1,3.32-.84,5.6,5.6,0,0,1,3.27.86,6,6,0,0,1,1.81,1.91v1.91h-2v-1.34a3.15,3.15,0,0,0-1.13-1.18,4,4,0,0,0-3.88,0,3,3,0,0,0-1.14,1.18v1.47a2.38,2.38,0,0,0,.84.86,6.47,6.47,0,0,0,1.7.67l1.39.38a9.16,9.16,0,0,1,2.85,1.11,4.84,4.84,0,0,1,1.39,1.47V119a5.45,5.45,0,0,1-5.08,2.79,5.71,5.71,0,0,1-3.3-.86,5.62,5.62,0,0,1-1.82-1.93v-2.1h2Z" transform="translate(-122.99 -106.05)"/><path class="cls-3" d="M1358.8,107.42a4.84,4.84,0,0,1,1.77,1.82v4.28a4.78,4.78,0,0,1-1.7,1.79,4.67,4.67,0,0,1-2.52.69h-3.28v5.46H1351v-14.7h5.38A4.67,4.67,0,0,1,1358.8,107.42Zm-.29,5.41v-2.9a2.62,2.62,0,0,0-1.13-1.15,3.53,3.53,0,0,0-1.52-.36h-2.79v5.92h2.79a3.07,3.07,0,0,0,1.58-.4A2.61,2.61,0,0,0,1358.51,112.83Z" transform="translate(-122.99 -106.05)"/><path class="cls-3" d="M1371.63,120.79a5.59,5.59,0,0,1-3.42,1,5.5,5.5,0,0,1-5.29-3.21V106.76h2.1v11.3a2.86,2.86,0,0,0,1.16,1.41,3.59,3.59,0,0,0,2,.56,3.64,3.64,0,0,0,2-.56,3.18,3.18,0,0,0,1.17-1.41v-11.3h2.1v11.78A5.49,5.49,0,0,1,1371.63,120.79Z" transform="translate(-122.99 -106.05)"/><path class="cls-3" d="M1386.33,121.46h-1.65l-3.76-5.92h-2.33v5.92h-2.1v-14.7H1382a4.55,4.55,0,0,1,2.43.66,4.84,4.84,0,0,1,1.77,1.82V113a4.53,4.53,0,0,1-1.26,1.51,4.3,4.3,0,0,1-1.83.86l3.21,4.77Zm-4.78-7.58a3,3,0,0,0,1.57-.4,2.72,2.72,0,0,0,1.09-1.09v-2.46a2.7,2.7,0,0,0-1.09-1.13,3.37,3.37,0,0,0-1.57-.38h-3v5.46Z" transform="translate(-122.99 -106.05)"/><path class="cls-3" d="M1397.23,120.83a5.75,5.75,0,0,1-3.4.92,5.51,5.51,0,0,1-5.31-3.21v-8.88a5.62,5.62,0,0,1,1.89-2.24,6.65,6.65,0,0,1,6.8,0,5.66,5.66,0,0,1,1.87,2.15v2.62h-2V110.1a3,3,0,0,0-1.17-1.4,3.57,3.57,0,0,0-2-.57,3.52,3.52,0,0,0-2,.57,3,3,0,0,0-1.2,1.4v8a3,3,0,0,0,1.18,1.41,3.51,3.51,0,0,0,2,.57,3.57,3.57,0,0,0,2-.57,3.11,3.11,0,0,0,1.17-1.41v-2.27h2v2.84A5.47,5.47,0,0,1,1397.23,120.83Z" transform="translate(-122.99 -106.05)"/><path class="cls-3" d="M1403.91,113.06h6.32v-6.3h2.1v14.7h-2.1v-6.74h-6.32v6.74h-2.1v-14.7h2.1Z" transform="translate(-122.99 -106.05)"/><path class="cls-3" d="M1426,121.46h-1.84l-1.24-4.11h-5.57l-1.23,4.11h-1.66v-1.28l4.18-13.42h3.17l4.19,13.42Zm-5.68-12.85H1420l-2.12,7.08h4.6Z" transform="translate(-122.99 -106.05)"/><path class="cls-3" d="M1429.57,118.4a3.17,3.17,0,0,0,1.14,1.17,3.94,3.94,0,0,0,3.88,0,3.09,3.09,0,0,0,1.14-1.17v-1.85a3.09,3.09,0,0,0-.84-.93,5.34,5.34,0,0,0-1.64-.65l-1.45-.35a8.66,8.66,0,0,1-2.86-1.1,4.36,4.36,0,0,1-1.4-1.47v-2.81a5.63,5.63,0,0,1,1.8-1.93,5.75,5.75,0,0,1,3.32-.84,5.64,5.64,0,0,1,3.28.86,6.07,6.07,0,0,1,1.8,1.91v1.91h-2v-1.34a3.19,3.19,0,0,0-1.14-1.18,4,4,0,0,0-3.88,0,3,3,0,0,0-1.14,1.18v1.47a2.47,2.47,0,0,0,.84.86,6.42,6.42,0,0,0,1.71.67l1.38.38a9.35,9.35,0,0,1,2.86,1.11,4.81,4.81,0,0,1,1.38,1.47V119a5.56,5.56,0,0,1-1.8,1.93,5.49,5.49,0,0,1-3.28.86,5.73,5.73,0,0,1-3.3-.86,5.81,5.81,0,0,1-1.82-1.93v-2.1h2Z" transform="translate(-122.99 -106.05)"/><path class="cls-3" d="M1450.8,121.46H1449l-1.24-4.11h-5.57l-1.24,4.11h-1.65v-1.28l4.17-13.42h3.17l4.2,13.42Zm-5.69-12.85h-.35l-2.12,7.08h4.59Z" transform="translate(-122.99 -106.05)"/><path class="cls-3" d="M1461,107.46a5.23,5.23,0,0,1,1.63,1.78v2.86a3.7,3.7,0,0,1-.81,1,5.16,5.16,0,0,1-1.12.76,5.39,5.39,0,0,1,1.2.71,4.16,4.16,0,0,1,.92,1V119a5,5,0,0,1-1.63,1.77,4.76,4.76,0,0,1-2.65.73H1453v-14.7h5.52A4.48,4.48,0,0,1,1461,107.46Zm-.32,4.22v-1.75a2.83,2.83,0,0,0-2.58-1.51h-3v4.64h3.15a2.58,2.58,0,0,0,1.34-.38A3,3,0,0,0,1460.63,111.68Zm.19,4.43a2.66,2.66,0,0,0-1.07-1,3.12,3.12,0,0,0-1.53-.4h-3.15v5.12h3a2.91,2.91,0,0,0,2.77-1.53Z" transform="translate(-122.99 -106.05)"/><path class="cls-3" d="M1467.39,119.8h5.42v1.66h-7.52v-14.7h2.1Z" transform="translate(-122.99 -106.05)"/><path class="cls-3" d="M1483.5,108.42H1477v4.64H1483v1.66H1477v5.08h6.72v1.66h-8.82v-14.7h8.65Z" transform="translate(-122.99 -106.05)"/><path class="cls-3" d="M1492.59,121.46h-2.1v-14.7h2.1Z" transform="translate(-122.99 -106.05)"/><path class="cls-3" d="M1504.14,118.19h.36V106.76h2v14.7h-2.64L1498,110h-.36v11.42h-1.95v-14.7h2.64Z" transform="translate(-122.99 -106.05)"/><path class="cls-3" d="M1522.5,108.42H1516v4.64H1522v1.66H1516v5.08h6.71v1.66h-8.81v-14.7h8.65Z" transform="translate(-122.99 -106.05)"/><path class="cls-3" d="M1526.15,106.76l3.61,12.5h.34l3.61-12.5h1.74V108l-4,13.42h-3.07L1524.26,108v-1.28Z" transform="translate(-122.99 -106.05)"/><path class="cls-3" d="M1546.27,108.42h-6.55v4.64h6.09v1.66h-6.09v5.08h6.72v1.66h-8.82v-14.7h8.65Z" transform="translate(-122.99 -106.05)"/><path class="cls-3" d="M1558.78,121.46h-1.66l-3.75-5.92H1551v5.92h-2.1v-14.7h5.52a4.55,4.55,0,0,1,2.43.66,4.84,4.84,0,0,1,1.77,1.82V113a4.53,4.53,0,0,1-1.26,1.51,4.3,4.3,0,0,1-1.83.86l3.21,4.77Zm-4.78-7.58a3,3,0,0,0,1.57-.4,2.72,2.72,0,0,0,1.09-1.09v-2.46a2.7,2.7,0,0,0-1.09-1.13,3.37,3.37,0,0,0-1.57-.38h-3v5.46Z" transform="translate(-122.99 -106.05)"/><path class="cls-3" d="M1560.17,106.76H1562l3.25,6h.36l3.27-6h1.64V108l-4.16,7.19v6.23h-2.12V115l-4-7Z" transform="translate(-122.99 -106.05)"/><path class="cls-3" d="M1578.52,113.06h6.32v-6.3h2.1v14.7h-2.1v-6.74h-6.32v6.74h-2.1v-14.7h2.1Z" transform="translate(-122.99 -106.05)"/><path class="cls-3" d="M1600.66,121.46h-1.85l-1.24-4.11H1592l-1.24,4.11h-1.66v-1.28l4.18-13.42h3.17l4.2,13.42ZM1595,108.61h-.36l-2.12,7.08h4.6Z" transform="translate(-122.99 -106.05)"/><path class="cls-3" d="M1611.33,118.19h.35V106.76h2v14.7H1611L1605.13,110h-.36v11.42h-2v-14.7h2.65Z" transform="translate(-122.99 -106.05)"/><path class="cls-3" d="M1622.1,121.46h-5.4v-14.7h5.4a5.54,5.54,0,0,1,3.17.84,4.8,4.8,0,0,1,1.76,2.06v8.9a4.8,4.8,0,0,1-1.76,2.06A5.46,5.46,0,0,1,1622.1,121.46Zm-.36-13h-2.94V119.8h2.94a4,4,0,0,0,2-.5,2.78,2.78,0,0,0,1.15-1.28v-7.81a2.82,2.82,0,0,0-1.15-1.3A4.08,4.08,0,0,0,1621.74,108.42Z" transform="translate(-122.99 -106.05)"/><path class="cls-3" d="M1632,121.46h-2.1v-14.7h2.1Z" transform="translate(-122.99 -106.05)"/><path class="cls-3" d="M1643.43,120.83a5.75,5.75,0,0,1-3.4.92,5.51,5.51,0,0,1-5.31-3.21v-8.88a5.62,5.62,0,0,1,1.89-2.24,6.65,6.65,0,0,1,6.8,0,5.66,5.66,0,0,1,1.87,2.15v2.62h-2V110.1a3,3,0,0,0-1.17-1.4,3.57,3.57,0,0,0-2-.57,3.49,3.49,0,0,0-2,.57,3,3,0,0,0-1.2,1.4v8a3,3,0,0,0,1.18,1.41,3.51,3.51,0,0,0,2,.57,3.57,3.57,0,0,0,2-.57,3.18,3.18,0,0,0,1.17-1.41v-2.27h2v2.84A5.47,5.47,0,0,1,1643.43,120.83Z" transform="translate(-122.99 -106.05)"/><path class="cls-3" d="M1657.86,121.46h-1.66l-3.76-5.92h-2.33v5.92H1648v-14.7h5.52a4.56,4.56,0,0,1,2.44.66,4.89,4.89,0,0,1,1.76,1.82V113a4.31,4.31,0,0,1-1.26,1.51,4.21,4.21,0,0,1-1.82.86l3.21,4.77Zm-4.79-7.58a3,3,0,0,0,1.58-.4,2.72,2.72,0,0,0,1.09-1.09v-2.46a2.7,2.7,0,0,0-1.09-1.13,3.41,3.41,0,0,0-1.58-.38h-3v5.46Z" transform="translate(-122.99 -106.05)"/><path class="cls-3" d="M1671.09,121.46h-1.85l-1.24-4.11h-5.56l-1.24,4.11h-1.66v-1.28l4.18-13.42h3.17l4.2,13.42Zm-5.69-12.85H1665l-2.12,7.08h4.6Z" transform="translate(-122.99 -106.05)"/><path class="cls-3" d="M1681.69,108.38h-6.34v4.77h6v1.61h-6v6.7h-2.1v-14.7h8.44Z" transform="translate(-122.99 -106.05)"/><path class="cls-3" d="M1683,106.76h10.08v1.66h-4v13H1687v-13h-4Z" transform="translate(-122.99 -106.05)"/><path class="cls-3" d="M1700.63,118.4a3.14,3.14,0,0,0,1.13,1.17,3.52,3.52,0,0,0,2,.51,3.47,3.47,0,0,0,1.93-.51,3.09,3.09,0,0,0,1.14-1.17v-1.85a3.09,3.09,0,0,0-.84-.93,5.34,5.34,0,0,0-1.64-.65l-1.45-.35a8.5,8.5,0,0,1-2.85-1.1,4.29,4.29,0,0,1-1.41-1.47v-2.81a6.3,6.3,0,0,1,8.4-1.91,6,6,0,0,1,1.8,1.91v1.91h-2v-1.34a3.19,3.19,0,0,0-1.14-1.18,3.55,3.55,0,0,0-1.93-.5,3.6,3.6,0,0,0-2,.5,3,3,0,0,0-1.13,1.18v1.47a2.38,2.38,0,0,0,.84.86,6.18,6.18,0,0,0,1.7.67l1.38.38a9.35,9.35,0,0,1,2.86,1.11,4.81,4.81,0,0,1,1.38,1.47V119a5.42,5.42,0,0,1-5.08,2.79,5.52,5.52,0,0,1-5.12-2.79v-2.1h2Z" transform="translate(-122.99 -106.05)"/><path class="cls-3" d="M1713.52,113.06h6.32v-6.3h2.1v14.7h-2.1v-6.74h-6.32v6.74h-2.1v-14.7h2.1Z" transform="translate(-122.99 -106.05)"/><path class="cls-3" d="M1730.05,106.47a5.74,5.74,0,0,1,3.42,1,5.62,5.62,0,0,1,1.89,2.24v8.88a5.89,5.89,0,0,1-10.63,0v-8.88a5.62,5.62,0,0,1,1.89-2.24A5.77,5.77,0,0,1,1730.05,106.47Zm0,13.61a3.54,3.54,0,0,0,2-.57,3,3,0,0,0,1.18-1.41v-8a3,3,0,0,0-1.18-1.4,3.92,3.92,0,0,0-4.07,0,3,3,0,0,0-1.18,1.4v8a3.07,3.07,0,0,0,1.18,1.41A3.57,3.57,0,0,0,1730.05,120.08Z" transform="translate(-122.99 -106.05)"/><path class="cls-3" d="M1746,107.42a4.84,4.84,0,0,1,1.77,1.82v4.28a4.78,4.78,0,0,1-1.7,1.79,4.67,4.67,0,0,1-2.52.69h-3.28v5.46h-2.1v-14.7h5.38A4.67,4.67,0,0,1,1746,107.42Zm-.29,5.41v-2.9a2.62,2.62,0,0,0-1.13-1.15,3.53,3.53,0,0,0-1.52-.36h-2.79v5.92H1743a3.07,3.07,0,0,0,1.58-.4A2.61,2.61,0,0,0,1745.69,112.83Z" transform="translate(-122.99 -106.05)"/><path class="cls-3" d="M1202.27,146.33V135a5.48,5.48,0,0,1,1.81-2.37,5.27,5.27,0,0,1,3.36-1h.17v1.45h-.17a3.53,3.53,0,0,0-2,.61,3.18,3.18,0,0,0-1.19,1.45v11a3.17,3.17,0,0,0,1.19,1.47,3.53,3.53,0,0,0,2,.61h.17v1.42h-.17a5.32,5.32,0,0,1-3.36-1A5.54,5.54,0,0,1,1202.27,146.33Z" transform="translate(-122.99 -106.05)"/><path class="cls-3" d="M1212,145h5.42v1.66h-7.51V132H1212Z" transform="translate(-122.99 -106.05)"/><path class="cls-3" d="M1221.53,146.66h-2.1V132h2.1Z" transform="translate(-122.99 -106.05)"/><path class="cls-3" d="M1234.44,146.66h-1.51l-4.76-6.91-1.5,1.6v5.31h-2.1V132h2.1v6.49h.32l6-6.49h1.32v1.29l-4.74,5.05,4.91,7.08Z" transform="translate(-122.99 -106.05)"/><path class="cls-3" d="M1245.28,133.62h-6.55v4.64h6.09v1.66h-6.09V145h6.72v1.66h-8.82V132h8.65Z" transform="translate(-122.99 -106.05)"/><path class="cls-3" d="M1264.58,132.66a5.23,5.23,0,0,1,1.63,1.78v2.86a3.7,3.7,0,0,1-.81,1,5.16,5.16,0,0,1-1.12.76,5.39,5.39,0,0,1,1.2.71,4.16,4.16,0,0,1,.92,1v3.4a5,5,0,0,1-1.63,1.77,4.76,4.76,0,0,1-2.65.73h-5.52V132h5.52A4.48,4.48,0,0,1,1264.58,132.66Zm-.32,4.22v-1.75a2.83,2.83,0,0,0-2.58-1.51h-3v4.64h3.15a2.58,2.58,0,0,0,1.34-.38A3,3,0,0,0,1264.26,136.88Zm.19,4.43a2.66,2.66,0,0,0-1.07-1,3.12,3.12,0,0,0-1.53-.4h-3.15V145h3a2.91,2.91,0,0,0,2.77-1.53Z" transform="translate(-122.99 -106.05)"/><path class="cls-3" d="M1278.77,146.66h-1.66l-3.75-5.92H1271v5.92h-2.1V132h5.53a4.55,4.55,0,0,1,2.43.66,4.91,4.91,0,0,1,1.77,1.82v3.8a4.53,4.53,0,0,1-1.26,1.51,4.3,4.3,0,0,1-1.83.86l3.21,4.77Zm-4.78-7.58a3,3,0,0,0,1.57-.4,2.72,2.72,0,0,0,1.09-1.09v-2.46a2.7,2.7,0,0,0-1.09-1.13,3.37,3.37,0,0,0-1.57-.38h-3v5.46Z" transform="translate(-122.99 -106.05)"/><path class="cls-3" d="M1283.46,146.66h-2.1V132h2.1Z" transform="translate(-122.99 -106.05)"/><path class="cls-3" d="M1294.94,146a5.75,5.75,0,0,1-3.4.93,5.53,5.53,0,0,1-5.31-3.22v-8.88a5.62,5.62,0,0,1,1.89-2.24,5.89,5.89,0,0,1,8.67,2.12v2.62h-2V135.3a3,3,0,0,0-1.17-1.4,3.57,3.57,0,0,0-2-.57,3.49,3.49,0,0,0-2,.57,3,3,0,0,0-1.2,1.4v8a3.05,3.05,0,0,0,1.17,1.41,3.94,3.94,0,0,0,4.08,0,3.18,3.18,0,0,0,1.17-1.41V141h2v2.84A5.47,5.47,0,0,1,1294.94,146Z" transform="translate(-122.99 -106.05)"/><path class="cls-3" d="M1304.56,131.67a5.72,5.72,0,0,1,3.42,1,5.46,5.46,0,0,1,1.89,2.24v8.88A5.49,5.49,0,0,1,1308,146a5.89,5.89,0,0,1-8.73-2.25v-8.88a5.62,5.62,0,0,1,1.89-2.24A5.72,5.72,0,0,1,1304.56,131.67Zm0,13.61a3.57,3.57,0,0,0,2-.57,3,3,0,0,0,1.17-1.41v-8a3,3,0,0,0-1.17-1.4,3.94,3.94,0,0,0-4.08,0,3,3,0,0,0-1.17,1.4v8a3.05,3.05,0,0,0,1.17,1.41A3.57,3.57,0,0,0,1304.56,145.28Z" transform="translate(-122.99 -106.05)"/><path class="cls-3" d="M1327.22,146.66h-1.85l-1.24-4.11h-5.56l-1.24,4.11h-1.66v-1.28l4.18-13.42H1323l4.2,13.42Zm-5.69-12.85h-.36l-2.12,7.08h4.6Z" transform="translate(-122.99 -106.05)"/><path class="cls-3" d="M1337.89,143.39h.35V132h2v14.7h-2.65l-5.86-11.42h-.35v11.42h-2V132H1332Z" transform="translate(-122.99 -106.05)"/><path class="cls-3" d="M1348.66,146.66h-5.4V132h5.4a5.54,5.54,0,0,1,3.17.84,4.8,4.8,0,0,1,1.76,2.06v8.9a4.8,4.8,0,0,1-1.76,2.06A5.46,5.46,0,0,1,1348.66,146.66Zm-.36-13h-2.94V145h2.94a4,4,0,0,0,2-.5,2.8,2.8,0,0,0,1.16-1.28v-7.81a2.84,2.84,0,0,0-1.16-1.3A4.08,4.08,0,0,0,1348.3,133.62Z" transform="translate(-122.99 -106.05)"/><path class="cls-3" d="M1362.84,145h5.41v1.66h-7.51V132h2.1Z" transform="translate(-122.99 -106.05)"/><path class="cls-3" d="M1378.94,133.62h-6.55v4.64h6.09v1.66h-6.09V145h6.72v1.66h-8.82V132h8.65Z" transform="translate(-122.99 -106.05)"/><path class="cls-3" d="M1391.46,146.66h-1.66l-3.76-5.92h-2.33v5.92h-2.1V132h5.52a4.61,4.61,0,0,1,2.44.66,5,5,0,0,1,1.76,1.82v3.8a4.31,4.31,0,0,1-1.26,1.51,4.19,4.19,0,0,1-1.83.86l3.22,4.77Zm-4.79-7.58a2.94,2.94,0,0,0,1.57-.4,2.75,2.75,0,0,0,1.1-1.09v-2.46a2.72,2.72,0,0,0-1.1-1.13,3.34,3.34,0,0,0-1.57-.38h-3v5.46Z" transform="translate(-122.99 -106.05)"/><path class="cls-3" d="M1399,131.67a5.74,5.74,0,0,1,3.42,1,5.62,5.62,0,0,1,1.89,2.24v8.88a5.89,5.89,0,0,1-10.63,0v-8.88a5.62,5.62,0,0,1,1.89-2.24A5.75,5.75,0,0,1,1399,131.67Zm0,13.61a3.56,3.56,0,0,0,2-.57,3,3,0,0,0,1.18-1.41v-8a3,3,0,0,0-1.18-1.4,3.92,3.92,0,0,0-4.07,0,3,3,0,0,0-1.18,1.4v8a3,3,0,0,0,1.18,1.41A3.57,3.57,0,0,0,1399,145.28Z" transform="translate(-122.99 -106.05)"/><path class="cls-3" d="M1405.8,132h1.81l3.25,6h.36l3.27-6h1.64v1.29l-4.16,7.18v6.23h-2.12v-6.44l-4-7Z" transform="translate(-122.99 -106.05)"/><path class="cls-3" d="M1428.75,140.15h.36l3.63-8.19h3v14.7h-2v-11.8h-.36l-3.71,8.27h-1.6l-3.71-8.27H1424v11.8h-2V132h3Z" transform="translate(-122.99 -106.05)"/><path class="cls-3" d="M1447.44,133.62h-6.55v4.64H1447v1.66h-6.09V145h6.72v1.66h-8.82V132h8.65Z" transform="translate(-122.99 -106.05)"/><path class="cls-3" d="M1460,146.66h-1.66l-3.76-5.92h-2.33v5.92h-2.1V132h5.52a4.61,4.61,0,0,1,2.44.66,5,5,0,0,1,1.76,1.82v3.8a4.31,4.31,0,0,1-1.26,1.51,4.21,4.21,0,0,1-1.82.86l3.21,4.77Zm-4.79-7.58a3,3,0,0,0,1.58-.4,2.79,2.79,0,0,0,1.09-1.09v-2.46a2.7,2.7,0,0,0-1.09-1.13,3.41,3.41,0,0,0-1.58-.38h-3v5.46Z" transform="translate(-122.99 -106.05)"/><path class="cls-3" d="M1464.64,145h5.42v1.66h-7.52V132h2.1Z" transform="translate(-122.99 -106.05)"/><path class="cls-3" d="M1474.2,146.66h-2.1V132h2.1Z" transform="translate(-122.99 -106.05)"/><path class="cls-3" d="M1485.75,143.39h.35V132h2v14.7h-2.65l-5.86-11.42h-.35v11.42h-2V132h2.65Z" transform="translate(-122.99 -106.05)"/><path class="cls-3" d="M1495.66,135v11.34a5.54,5.54,0,0,1-1.81,2.37,5.32,5.32,0,0,1-3.36,1h-.16v-1.45h.16a3.6,3.6,0,0,0,2-.6,3.26,3.26,0,0,0,1.2-1.45v-11a3.15,3.15,0,0,0-1.2-1.47,3.53,3.53,0,0,0-2-.61h-.16v-1.43h.16a5.27,5.27,0,0,1,3.36,1A5.48,5.48,0,0,1,1495.66,135Z" transform="translate(-122.99 -106.05)"/><path class="cls-3" d="M1212.16,171.86h-1.66l-3.75-5.92h-2.33v5.92h-2.1v-14.7h5.52a4.55,4.55,0,0,1,2.43.66,4.91,4.91,0,0,1,1.77,1.82v3.8a4.53,4.53,0,0,1-1.26,1.51,4.3,4.3,0,0,1-1.83.86l3.21,4.77Zm-4.78-7.58a3,3,0,0,0,1.57-.4,2.72,2.72,0,0,0,1.09-1.09v-2.46a2.7,2.7,0,0,0-1.09-1.13,3.37,3.37,0,0,0-1.57-.38h-3v5.46Z" transform="translate(-122.99 -106.05)"/><path class="cls-3" d="M1223.4,158.82h-6.55v4.64h6.09v1.66h-6.09v5.08h6.72v1.66h-8.82v-14.7h8.65Z" transform="translate(-122.99 -106.05)"/><path class="cls-3" d="M1234.28,171.23a5.78,5.78,0,0,1-3.41.93,5.53,5.53,0,0,1-5.31-3.22v-8.88a5.62,5.62,0,0,1,1.89-2.24,6.65,6.65,0,0,1,6.8,0,5.58,5.58,0,0,1,1.87,2.15v2.62h-2V160.5a3,3,0,0,0-1.18-1.4,3.88,3.88,0,0,0-4.05,0,3,3,0,0,0-1.2,1.4v8a3,3,0,0,0,1.18,1.41,3.92,3.92,0,0,0,4.07,0,3.13,3.13,0,0,0,1.18-1.41v-2.27h2v2.84A5.36,5.36,0,0,1,1234.28,171.23Z" transform="translate(-122.99 -106.05)"/><path class="cls-3" d="M1243.89,156.87a5.75,5.75,0,0,1,3.43.95,5.62,5.62,0,0,1,1.89,2.24v8.88a5.89,5.89,0,0,1-10.63,0v-8.88a5.62,5.62,0,0,1,1.89-2.24A5.74,5.74,0,0,1,1243.89,156.87Zm0,13.61a3.57,3.57,0,0,0,2-.57,3,3,0,0,0,1.18-1.41v-8a3,3,0,0,0-1.18-1.4,3.92,3.92,0,0,0-4.07,0,3,3,0,0,0-1.18,1.4v8a3,3,0,0,0,1.18,1.41A3.54,3.54,0,0,0,1243.89,170.48Z" transform="translate(-122.99 -106.05)"/><path class="cls-3" d="M1258.7,165.35h.36l3.63-8.19h3v14.7h-2v-11.8h-.36l-3.72,8.27H1258l-3.72-8.27H1254v11.8h-2v-14.7h3Z" transform="translate(-122.99 -106.05)"/><path class="cls-3" d="M1275.44,165.35h.35l3.64-8.19h3v14.7h-2v-11.8h-.35l-3.72,8.27h-1.6l-3.71-8.27h-.36v11.8h-2v-14.7h3Z" transform="translate(-122.99 -106.05)"/><path class="cls-3" d="M1294.13,158.82h-6.56v4.64h6.09v1.66h-6.09v5.08h6.72v1.66h-8.82v-14.7h8.66Z" transform="translate(-122.99 -106.05)"/><path class="cls-3" d="M1305.3,168.59h.35V157.16h2v14.7H1305l-5.86-11.42h-.35v11.42h-2v-14.7h2.65Z" transform="translate(-122.99 -106.05)"/><path class="cls-3" d="M1316.07,171.86h-5.4v-14.7h5.4a5.54,5.54,0,0,1,3.17.84,4.8,4.8,0,0,1,1.76,2.06V169a4.74,4.74,0,0,1-1.76,2.06A5.46,5.46,0,0,1,1316.07,171.86Zm-.36-13h-2.94V170.2h2.94a3.88,3.88,0,0,0,2-.5,2.8,2.8,0,0,0,1.16-1.28v-7.81a2.84,2.84,0,0,0-1.16-1.3A4.08,4.08,0,0,0,1315.71,158.82Z" transform="translate(-122.99 -106.05)"/><path class="cls-3" d="M1332.47,158.82h-6.55v4.64H1332v1.66h-6.09v5.08h6.72v1.66h-8.82v-14.7h8.65Z" transform="translate(-122.99 -106.05)"/><path class="cls-3" d="M1340.54,171.86h-5.4v-14.7h5.4a5.54,5.54,0,0,1,3.17.84,4.87,4.87,0,0,1,1.76,2.06V169a4.81,4.81,0,0,1-1.76,2.06A5.46,5.46,0,0,1,1340.54,171.86Zm-.36-13h-2.94V170.2h2.94a3.88,3.88,0,0,0,2-.5,2.78,2.78,0,0,0,1.15-1.28v-7.81a2.82,2.82,0,0,0-1.15-1.3A4.08,4.08,0,0,0,1340.18,158.82Z" transform="translate(-122.99 -106.05)"/><path class="cls-3" d="M1359.31,165.35h.36l3.63-8.19h3v14.7h-2v-11.8H1364l-3.72,8.27h-1.59l-3.72-8.27h-.36v11.8h-2v-14.7h3Z" transform="translate(-122.99 -106.05)"/><path class="cls-3" d="M1378,158.82h-6.55v4.64h6.09v1.66h-6.09v5.08h6.72v1.66h-8.82v-14.7H1378Z" transform="translate(-122.99 -106.05)"/><path class="cls-3" d="M1391.31,171.86h-1.85l-1.23-4.11h-5.57l-1.24,4.11h-1.66v-1.28l4.18-13.42h3.17l4.2,13.42ZM1385.62,159h-.35l-2.13,7.08h4.6Z" transform="translate(-122.99 -106.05)"/><path class="cls-3" d="M1394.84,168.8A3.09,3.09,0,0,0,1396,170a3.94,3.94,0,0,0,3.88,0,3.14,3.14,0,0,0,1.13-1.17V167a3,3,0,0,0-.84-.93,5.16,5.16,0,0,0-1.63-.65l-1.45-.35a8.57,8.57,0,0,1-2.86-1.1,4.45,4.45,0,0,1-1.41-1.46v-2.82a5.66,5.66,0,0,1,1.81-1.93,5.73,5.73,0,0,1,3.32-.84,5.63,5.63,0,0,1,3.27.86,6,6,0,0,1,1.81,1.91v1.91h-2v-1.34a3.24,3.24,0,0,0-1.13-1.18,4,4,0,0,0-3.88,0,3,3,0,0,0-1.14,1.18v1.47a2.31,2.31,0,0,0,.84.86,6.47,6.47,0,0,0,1.7.67l1.39.38a9.16,9.16,0,0,1,2.85,1.11,4.84,4.84,0,0,1,1.39,1.47v3.19a5.48,5.48,0,0,1-5.08,2.8,5.55,5.55,0,0,1-5.13-2.8v-2.1h2Z" transform="translate(-122.99 -106.05)"/><path class="cls-3" d="M1414.26,171.19a5.59,5.59,0,0,1-3.42,1,5.53,5.53,0,0,1-5.29-3.22V157.16h2.1v11.3a2.86,2.86,0,0,0,1.16,1.41,3.51,3.51,0,0,0,2,.56,3.56,3.56,0,0,0,2-.56,3.18,3.18,0,0,0,1.17-1.41v-11.3h2.1v11.78A5.49,5.49,0,0,1,1414.26,171.19Z" transform="translate(-122.99 -106.05)"/><path class="cls-3" d="M1429,171.86h-1.65l-3.76-5.92h-2.33v5.92h-2.1v-14.7h5.52a4.61,4.61,0,0,1,2.44.66,5,5,0,0,1,1.76,1.82v3.8a4.53,4.53,0,0,1-1.26,1.51,4.24,4.24,0,0,1-1.83.86l3.21,4.77Zm-4.78-7.58a2.94,2.94,0,0,0,1.57-.4,2.72,2.72,0,0,0,1.09-1.09v-2.46a2.64,2.64,0,0,0-1.09-1.13,3.37,3.37,0,0,0-1.57-.38h-3v5.46Z" transform="translate(-122.99 -106.05)"/><path class="cls-3" d="M1440.2,158.82h-6.55v4.64h6.09v1.66h-6.09v5.08h6.72v1.66h-8.82v-14.7h8.65Z" transform="translate(-122.99 -106.05)"/><path class="cls-3" d="M1444.19,168.8a3.09,3.09,0,0,0,1.14,1.17,3.94,3.94,0,0,0,3.88,0,3.14,3.14,0,0,0,1.13-1.17V167a3,3,0,0,0-.84-.93,5.16,5.16,0,0,0-1.63-.65l-1.45-.35a8.57,8.57,0,0,1-2.86-1.1,4.45,4.45,0,0,1-1.41-1.46v-2.82a5.66,5.66,0,0,1,1.81-1.93,5.73,5.73,0,0,1,3.32-.84,5.63,5.63,0,0,1,3.27.86,6,6,0,0,1,1.81,1.91v1.91h-2v-1.34a3.24,3.24,0,0,0-1.13-1.18,4,4,0,0,0-3.88,0,3,3,0,0,0-1.14,1.18v1.47a2.31,2.31,0,0,0,.84.86,6.47,6.47,0,0,0,1.7.67l1.39.38a9.27,9.27,0,0,1,2.85,1.11,4.84,4.84,0,0,1,1.39,1.47v3.19a5.48,5.48,0,0,1-5.08,2.8,5.55,5.55,0,0,1-5.13-2.8v-2.1h2Z" transform="translate(-122.99 -106.05)"/><line class="cls-5" x1="373.01" y1="215.87" x2="711.22" y2="215.87"/><line class="cls-5" x1="742.58" y1="255.18" x2="742.57" y2="494.72"/><path class="cls-3" d="M649.91,288v8.47h1.7v1.44h-1.7v3.17h-1.72v-3.17H641.8v-1.39l5.31-8.52Zm-2,1.57-4.3,6.9h4.62v-6.9Z" transform="translate(-122.99 -106.05)"/><path class="cls-3" d="M659.68,292.75v-2.13a2.32,2.32,0,0,0-.95-1.05,3,3,0,0,0-1.59-.43,2.91,2.91,0,0,0-1.49.37,2.73,2.73,0,0,0-.94.86v1.83H653v-2.44a4.72,4.72,0,0,1,4.11-2,5.38,5.38,0,0,1,2,.37,4.48,4.48,0,0,1,1.48.94,3.38,3.38,0,0,1,.82,1.14v3a8.31,8.31,0,0,1-1.36,1.61l-4.72,4.69v.14h6.21v1.45h-8.67V299.7l5.77-5.76A6,6,0,0,0,659.68,292.75Z" transform="translate(-122.99 -106.05)"/><path class="cls-3" d="M671.46,290.77a4.6,4.6,0,0,1,2.65.71,3.64,3.64,0,0,1,1.41,1.57v1.72h-1.63v-1.18a2.32,2.32,0,0,0-.9-1,2.71,2.71,0,0,0-1.53-.41,2.64,2.64,0,0,0-1.5.41,2.29,2.29,0,0,0-.89,1v4.91a2.24,2.24,0,0,0,.89,1,2.64,2.64,0,0,0,1.5.41,2.74,2.74,0,0,0,1.55-.41,2.34,2.34,0,0,0,.88-1v-1.17h1.63v1.72a4,4,0,0,1-1.41,1.57,4.53,4.53,0,0,1-2.65.72,4.33,4.33,0,0,1-2.67-.76,4.2,4.2,0,0,1-1.46-1.72v-5.63a4.2,4.2,0,0,1,1.46-1.72A4.42,4.42,0,0,1,671.46,290.77Z" transform="translate(-122.99 -106.05)"/><path class="cls-3" d="M690.34,292.77v8.31h-1.72v-7.92a1.91,1.91,0,0,0-1.85-1,2.4,2.4,0,0,0-1.14.24,2.3,2.3,0,0,0-.83.67v8h-1.73v-7.92a1.69,1.69,0,0,0-.64-.69,2.2,2.2,0,0,0-1.2-.28,2.49,2.49,0,0,0-1.15.24,2.14,2.14,0,0,0-.83.67v8h-1.72V291h1.63v.76a3.79,3.79,0,0,1,4.17-.63,3.47,3.47,0,0,1,1.08.91,3.93,3.93,0,0,1,1.2-.91,3.51,3.51,0,0,1,1.62-.36,3.24,3.24,0,0,1,2.06.6A3.61,3.61,0,0,1,690.34,292.77Z" transform="translate(-122.99 -106.05)"/><path class="cls-3" d="M884.88,469v-2.13a2.46,2.46,0,0,0-1-1,3,3,0,0,0-1.59-.43,2.82,2.82,0,0,0-1.49.38,2.64,2.64,0,0,0-.94.86v1.83h-1.68V466a4.78,4.78,0,0,1,4.11-2,5.38,5.38,0,0,1,2,.37,4.64,4.64,0,0,1,1.48.94,3.48,3.48,0,0,1,.82,1.14v3a9,9,0,0,1-1.36,1.61l-4.71,4.69v.13h6.2v1.46h-8.67v-1.39l5.77-5.75A6.28,6.28,0,0,0,884.88,469Z" transform="translate(-122.99 -106.05)"/><path class="cls-3" d="M896.44,465.27a3.38,3.38,0,0,1,.83,1.14v8.69a3.67,3.67,0,0,1-.83,1.14,4.4,4.4,0,0,1-1.45.95,5.26,5.26,0,0,1-2,.38,4.7,4.7,0,0,1-2-.38,4.34,4.34,0,0,1-1.42-.87,3.9,3.9,0,0,1-.81-1v-1.61h1.67v1a2.21,2.21,0,0,0,1,1.05,3.19,3.19,0,0,0,3.2,0,2.26,2.26,0,0,0,1-1.05v-3.23a4.05,4.05,0,0,1-2.91,1.08,4.47,4.47,0,0,1-2.47-.65,3.48,3.48,0,0,1-1.39-1.54v-4.11a4,4,0,0,1,.81-1,4.37,4.37,0,0,1,1.42-.89,5,5,0,0,1,2-.36,5.45,5.45,0,0,1,2,.37A4.72,4.72,0,0,1,896.44,465.27Zm-1,4.77v-3.2a2.44,2.44,0,0,0-1-1,3.15,3.15,0,0,0-3.18,0,2.46,2.46,0,0,0-1,1v2.9a2.14,2.14,0,0,0,1,1,3,3,0,0,0,1.63.41,3.34,3.34,0,0,0,1.44-.3A3.5,3.5,0,0,0,895.49,470Z" transform="translate(-122.99 -106.05)"/><path class="cls-3" d="M901.14,475.9v2.55a1.57,1.57,0,0,1-.47.61,1.31,1.31,0,0,1-.88.3h-.5v-.78h.39a.44.44,0,0,0,.26-.08.84.84,0,0,0,.19-.22v-.73a1.44,1.44,0,0,1-.64-.15.71.71,0,0,1-.35-.36V475.9a.73.73,0,0,1,.35-.35,1.44,1.44,0,0,1,.64-.15,1.52,1.52,0,0,1,.65.15A.81.81,0,0,1,901.14,475.9Z" transform="translate(-122.99 -106.05)"/><path class="cls-3" d="M908.33,465.72h-6.48v-1.5h8.35v1.35l-5.05,11.74H903.7v-1.14L908.33,466Z" transform="translate(-122.99 -106.05)"/><path class="cls-3" d="M919.66,467a4.6,4.6,0,0,1,2.65.71,3.66,3.66,0,0,1,1.4,1.57V471h-1.62v-1.18a2.37,2.37,0,0,0-.9-1,2.71,2.71,0,0,0-1.53-.41,2.61,2.61,0,0,0-1.5.41,2.28,2.28,0,0,0-.89,1v4.92a2.16,2.16,0,0,0,.89,1,2.54,2.54,0,0,0,1.5.42,2.66,2.66,0,0,0,1.55-.42,2.32,2.32,0,0,0,.88-1v-1.18h1.62v1.72a3.87,3.87,0,0,1-1.4,1.57,4.53,4.53,0,0,1-2.65.73,4.31,4.31,0,0,1-2.67-.77,4.07,4.07,0,0,1-1.46-1.72v-5.62a4.07,4.07,0,0,1,1.46-1.72A4.35,4.35,0,0,1,919.66,467Z" transform="translate(-122.99 -106.05)"/><path class="cls-3" d="M938.54,469v8.32h-1.72v-7.93a1.94,1.94,0,0,0-1.85-1,2.4,2.4,0,0,0-1.14.24,2.3,2.3,0,0,0-.83.67v8h-1.73v-7.93a1.83,1.83,0,0,0-.64-.69,2.2,2.2,0,0,0-1.2-.28,2.56,2.56,0,0,0-1.16.24,2.18,2.18,0,0,0-.82.67v8h-1.72V467.23h1.63V468a3.38,3.38,0,0,1,2.52-1,3.44,3.44,0,0,1,1.65.35,3.36,3.36,0,0,1,1.08.92,3.8,3.8,0,0,1,1.2-.92,3.48,3.48,0,0,1,1.62-.35,3.24,3.24,0,0,1,2.06.59A3.69,3.69,0,0,1,938.54,469Z" transform="translate(-122.99 -106.05)"/><rect class="cls-6" x="372.74" y="255.18" width="338.75" height="239.55"/><path class="cls-3" d="M625.21,473.65a4.91,4.91,0,0,1,1.76,1.83v4.28a4.71,4.71,0,0,1-1.7,1.79,4.63,4.63,0,0,1-2.52.69h-3.27v5.46h-2.1V473h5.37A4.82,4.82,0,0,1,625.21,473.65Zm-.3,5.42v-2.9a2.62,2.62,0,0,0-1.13-1.15,3.49,3.49,0,0,0-1.51-.36h-2.79v5.92h2.79a3,3,0,0,0,1.57-.4A2.55,2.55,0,0,0,624.91,479.07Z" transform="translate(-122.99 -106.05)"/><path class="cls-3" d="M631.51,486h5.42v1.66h-7.52V473h2.1Z" transform="translate(-122.99 -106.05)"/><path class="cls-3" d="M647.61,474.66h-6.55v4.64h6.09V481h-6.09V486h6.72v1.66H639V473h8.65Z" transform="translate(-122.99 -106.05)"/><path class="cls-3" d="M649.72,474.28V473h1.74l3.32,5.82h.35l3.36-5.82h1.56v1.28l-3.78,6.05,3.78,6.09v1.28H658.3L655,481.86h-.34l-3.36,5.84h-1.59v-1.28l3.78-6.07Z" transform="translate(-122.99 -106.05)"/><path class="cls-3" d="M664.65,487.7h-2.1V473h2.1Z" transform="translate(-122.99 -106.05)"/><path class="cls-3" d="M675.94,476.34a3.05,3.05,0,0,0-1.17-1.41,4,4,0,0,0-4.06,0,3.1,3.1,0,0,0-1.19,1.41v8a3.1,3.1,0,0,0,1.19,1.41,3.63,3.63,0,0,0,2.06.56,3.74,3.74,0,0,0,2.06-.54A3,3,0,0,0,676,484.4v-2.81h-2.93v-1.66H678v5a5.47,5.47,0,0,1-1.85,2.16,5.75,5.75,0,0,1-3.4.92,5.59,5.59,0,0,1-3.42-1,5.65,5.65,0,0,1-1.89-2.25V475.9a5.65,5.65,0,0,1,1.89-2.25,5.91,5.91,0,0,1,8.67,2.12V478h-2Z" transform="translate(-122.99 -106.05)"/><path class="cls-3" d="M682.73,486h5.41v1.66h-7.51V473h2.1Z" transform="translate(-122.99 -106.05)"/><path class="cls-3" d="M701,487.7h-1.85L698,483.58h-5.56l-1.24,4.12h-1.66v-1.28L693.67,473h3.17l4.2,13.42Zm-5.69-12.85H695l-2.12,7.08h4.6Z" transform="translate(-122.99 -106.05)"/><path class="cls-3" d="M704.57,484.63a3.16,3.16,0,0,0,1.13,1.18,3.51,3.51,0,0,0,1.95.5,3.47,3.47,0,0,0,1.93-.5,3.12,3.12,0,0,0,1.14-1.18v-1.84a3,3,0,0,0-.84-.93,5.23,5.23,0,0,0-1.64-.65l-1.45-.36a8.31,8.31,0,0,1-2.85-1.09,4.38,4.38,0,0,1-1.41-1.47v-2.81a6.3,6.3,0,0,1,8.4-1.91,6,6,0,0,1,1.8,1.91v1.91h-2v-1.34a3.19,3.19,0,0,0-1.14-1.18,3.55,3.55,0,0,0-1.93-.5,3.6,3.6,0,0,0-1.95.5,3,3,0,0,0-1.13,1.18v1.47a2.38,2.38,0,0,0,.84.86,6.18,6.18,0,0,0,1.7.67l1.38.38a9.35,9.35,0,0,1,2.86,1.11,4.69,4.69,0,0,1,1.38,1.47v3.19a5.42,5.42,0,0,1-5.08,2.79,5.52,5.52,0,0,1-5.12-2.79v-2.1h2Z" transform="translate(-122.99 -106.05)"/><path class="cls-3" d="M716.94,484.63a3.08,3.08,0,0,0,1.13,1.18,4,4,0,0,0,3.88,0,3.12,3.12,0,0,0,1.14-1.18v-1.84a3,3,0,0,0-.84-.93,5.34,5.34,0,0,0-1.64-.65l-1.45-.36a8.31,8.31,0,0,1-2.85-1.09,4.38,4.38,0,0,1-1.41-1.47v-2.81a5.37,5.37,0,0,1,5.12-2.77,5.64,5.64,0,0,1,3.28.86,6,6,0,0,1,1.8,1.91v1.91h-2v-1.34a3.19,3.19,0,0,0-1.14-1.18,4,4,0,0,0-3.88,0,3,3,0,0,0-1.13,1.18v1.47a2.35,2.35,0,0,0,.83.86,6.42,6.42,0,0,0,1.71.67l1.38.38a9.35,9.35,0,0,1,2.86,1.11A4.81,4.81,0,0,1,725.1,482v3.19A5.42,5.42,0,0,1,720,488a5.67,5.67,0,0,1-3.29-.86,5.75,5.75,0,0,1-1.83-1.93v-2.1h2Z" transform="translate(-122.99 -106.05)"/><rect class="cls-6" x="1.5" y="255.18" width="338.75" height="239.55"/><path class="cls-3" d="M203.78,472.74h-2.1V458h2.1Z" transform="translate(-122.99 -106.05)"/><path class="cls-3" d="M215.33,469.46h.35V458h2v14.7H215l-5.86-11.42h-.35v11.42h-2V458h2.65Z" transform="translate(-122.99 -106.05)"/><path class="cls-3" d="M226.1,472.74h-5.4V458h5.4a5.46,5.46,0,0,1,3.17.84,4.8,4.8,0,0,1,1.76,2.06v8.9a4.8,4.8,0,0,1-1.76,2.06A5.54,5.54,0,0,1,226.1,472.74Zm-.36-13H222.8v11.38h2.94a3.89,3.89,0,0,0,2-.51,2.63,2.63,0,0,0,1.15-1.28v-7.81a2.86,2.86,0,0,0-1.15-1.3A4.18,4.18,0,0,0,225.74,459.7Z" transform="translate(-122.99 -106.05)"/><path class="cls-3" d="M242.48,472.07a5.61,5.61,0,0,1-3.42,1,5.54,5.54,0,0,1-3.41-1,5.41,5.41,0,0,1-1.88-2.25V458h2.1v11.3a2.81,2.81,0,0,0,1.15,1.4,3.92,3.92,0,0,0,4.07,0,3.16,3.16,0,0,0,1.18-1.4V458h2.1v11.78A5.71,5.71,0,0,1,242.48,472.07Z" transform="translate(-122.99 -106.05)"/><path class="cls-3" d="M248.91,469.67a3.24,3.24,0,0,0,1.13,1.18,3.6,3.6,0,0,0,2,.5,3.55,3.55,0,0,0,1.93-.5,3.19,3.19,0,0,0,1.14-1.18v-1.85a2.94,2.94,0,0,0-.84-.92,5.23,5.23,0,0,0-1.64-.65l-1.45-.36a8.31,8.31,0,0,1-2.85-1.09,4.48,4.48,0,0,1-1.41-1.47v-2.81a5.49,5.49,0,0,1,1.81-1.93,5.7,5.7,0,0,1,3.31-.84,5.46,5.46,0,0,1,5.08,2.77v1.91h-2v-1.35a3.09,3.09,0,0,0-1.14-1.17,3.47,3.47,0,0,0-1.93-.51,3.52,3.52,0,0,0-2,.51,3,3,0,0,0-1.13,1.17v1.47a2.41,2.41,0,0,0,.84.87,6.18,6.18,0,0,0,1.7.67l1.38.37a9.46,9.46,0,0,1,2.86,1.12,4.69,4.69,0,0,1,1.38,1.47v3.19a5.64,5.64,0,0,1-1.8,1.93A5.49,5.49,0,0,1,252,473a5.69,5.69,0,0,1-3.29-.86,5.94,5.94,0,0,1-1.83-1.93v-2.1h2Z" transform="translate(-122.99 -106.05)"/><path class="cls-3" d="M258.48,458h10.08v1.66h-4v13h-2.1v-13h-4Z" transform="translate(-122.99 -106.05)"/><path class="cls-3" d="M280.47,472.74h-1.66l-3.76-5.92h-2.33v5.92h-2.1V458h5.52a4.69,4.69,0,0,1,2.44.65,4.91,4.91,0,0,1,1.76,1.83v3.8a4.62,4.62,0,0,1-3.08,2.37l3.21,4.77Zm-4.79-7.58a3.09,3.09,0,0,0,1.58-.4,2.79,2.79,0,0,0,1.09-1.09v-2.46a2.7,2.7,0,0,0-1.09-1.13,3.29,3.29,0,0,0-1.58-.38h-3v5.46Z" transform="translate(-122.99 -106.05)"/><path class="cls-3" d="M285.15,472.74h-2.1V458h2.1Z" transform="translate(-122.99 -106.05)"/><path class="cls-3" d="M298.84,472.74H297l-1.23-4.12h-5.57L289,472.74h-1.66v-1.28L291.47,458h3.17l4.2,13.42Zm-5.69-12.85h-.36L290.67,467h4.6Z" transform="translate(-122.99 -106.05)"/><path class="cls-3" d="M303.11,471.08h5.41v1.66H301V458h2.1Z" transform="translate(-122.99 -106.05)"/><path class="cls-3" d="M324.1,472.74h-1.65l-3.76-5.92h-2.33v5.92h-2.1V458h5.52a4.63,4.63,0,0,1,2.43.65,4.86,4.86,0,0,1,1.77,1.83v3.8a4.53,4.53,0,0,1-1.26,1.51,4.42,4.42,0,0,1-1.83.86l3.21,4.77Zm-4.78-7.58a3,3,0,0,0,1.57-.4,2.72,2.72,0,0,0,1.09-1.09v-2.46a2.64,2.64,0,0,0-1.09-1.13,3.25,3.25,0,0,0-1.57-.38h-3v5.46Z" transform="translate(-122.99 -106.05)"/><path class="cls-3" d="M335.32,472.07a5.61,5.61,0,0,1-3.42,1,5.54,5.54,0,0,1-3.41-1,5.41,5.41,0,0,1-1.88-2.25V458h2.1v11.3a2.81,2.81,0,0,0,1.15,1.4,3.92,3.92,0,0,0,4.07,0,3.16,3.16,0,0,0,1.18-1.4V458h2.1v11.78A5.71,5.71,0,0,1,335.32,472.07Z" transform="translate(-122.99 -106.05)"/><path class="cls-3" d="M348.15,458.73a5.39,5.39,0,0,1,1.64,1.79v2.85a3.78,3.78,0,0,1-.82,1,5.29,5.29,0,0,1-1.11.75,5.25,5.25,0,0,1,1.19.72,4,4,0,0,1,.93,1v3.4a5.09,5.09,0,0,1-1.64,1.76,4.68,4.68,0,0,1-2.65.74h-5.52V458h5.52A4.42,4.42,0,0,1,348.15,458.73Zm-.32,4.22v-1.74a2.8,2.8,0,0,0-2.58-1.51h-3v4.64h3.15a2.67,2.67,0,0,0,1.34-.38A3,3,0,0,0,347.83,463Zm.19,4.43a2.66,2.66,0,0,0-1.07-1,3.08,3.08,0,0,0-1.53-.39h-3.15v5.12h3a2.92,2.92,0,0,0,2.77-1.53Z" transform="translate(-122.99 -106.05)"/><path class="cls-3" d="M360.48,458.73a5.39,5.39,0,0,1,1.64,1.79v2.85a4,4,0,0,1-.82,1,5.1,5.1,0,0,1-1.12.75,5.09,5.09,0,0,1,1.2.72,4,4,0,0,1,.92,1v3.4a5,5,0,0,1-1.63,1.76,4.68,4.68,0,0,1-2.65.74H352.5V458H358A4.47,4.47,0,0,1,360.48,458.73Zm-.32,4.22v-1.74a3,3,0,0,0-1.05-1.11,2.85,2.85,0,0,0-1.53-.4h-3v4.64h3.15a2.67,2.67,0,0,0,1.34-.38A3,3,0,0,0,360.16,463Zm.19,4.43a2.73,2.73,0,0,0-1.07-1,3.11,3.11,0,0,0-1.53-.39H354.6v5.12h3a2.93,2.93,0,0,0,2.77-1.53Z" transform="translate(-122.99 -106.05)"/><path class="cls-3" d="M373.48,459.7h-6.55v4.64H373V466h-6.08v5.08h6.71v1.66h-8.81V458h8.65Z" transform="translate(-122.99 -106.05)"/><path class="cls-3" d="M386,472.74h-1.66l-3.76-5.92h-2.33v5.92h-2.1V458h5.53a4.63,4.63,0,0,1,2.43.65,4.94,4.94,0,0,1,1.77,1.83v3.8a4.53,4.53,0,0,1-1.26,1.51,4.42,4.42,0,0,1-1.83.86l3.21,4.77Zm-4.79-7.58a3.07,3.07,0,0,0,1.58-.4,2.72,2.72,0,0,0,1.09-1.09v-2.46a2.7,2.7,0,0,0-1.09-1.13,3.27,3.27,0,0,0-1.58-.38h-3v5.46Z" transform="translate(-122.99 -106.05)"/><path class="cls-3" d="M210.12,484.86h-6.34v4.76h6v1.62h-6v6.7h-2.1v-14.7h8.44Z" transform="translate(-122.99 -106.05)"/><path class="cls-3" d="M217.2,483a5.74,5.74,0,0,1,3.42.94,5.65,5.65,0,0,1,1.89,2.25V495a5.71,5.71,0,0,1-1.89,2.25,6.59,6.59,0,0,1-6.85,0,5.71,5.71,0,0,1-1.89-2.25v-8.88a5.65,5.65,0,0,1,1.89-2.25A5.77,5.77,0,0,1,217.2,483Zm0,13.6a3.54,3.54,0,0,0,2-.57,2.94,2.94,0,0,0,1.18-1.4v-8a3,3,0,0,0-1.18-1.41,3.92,3.92,0,0,0-4.07,0,3,3,0,0,0-1.18,1.41v8a2.94,2.94,0,0,0,1.18,1.4A3.57,3.57,0,0,0,217.2,496.55Z" transform="translate(-122.99 -106.05)"/><path class="cls-3" d="M235.15,497.94h-1.66L229.73,492H227.4v5.92h-2.1v-14.7h5.52a4.64,4.64,0,0,1,2.44.65,4.91,4.91,0,0,1,1.76,1.83v3.8a4.62,4.62,0,0,1-3.08,2.37l3.21,4.77Zm-4.79-7.58a3.09,3.09,0,0,0,1.58-.4,2.72,2.72,0,0,0,1.09-1.09v-2.46a2.7,2.7,0,0,0-1.09-1.13,3.29,3.29,0,0,0-1.58-.38h-3v5.46Z" transform="translate(-122.99 -106.05)"/><path class="cls-3" d="M248,494.87a3.24,3.24,0,0,0,1.13,1.18,4,4,0,0,0,3.89,0,3.24,3.24,0,0,0,1.13-1.18V493a2.94,2.94,0,0,0-.84-.92,5.13,5.13,0,0,0-1.64-.65l-1.44-.36a8.38,8.38,0,0,1-2.86-1.09,4.48,4.48,0,0,1-1.41-1.47v-2.81a5.49,5.49,0,0,1,1.81-1.93,5.73,5.73,0,0,1,3.32-.84,5.63,5.63,0,0,1,3.27.86,5.89,5.89,0,0,1,1.81,1.91v1.91h-2v-1.35a3.14,3.14,0,0,0-1.13-1.17,4,4,0,0,0-3.89,0,3,3,0,0,0-1.13,1.17v1.47a2.41,2.41,0,0,0,.84.87,6.32,6.32,0,0,0,1.7.67l1.39.38a9.27,9.27,0,0,1,2.85,1.11,4.84,4.84,0,0,1,1.39,1.47v3.19a5.68,5.68,0,0,1-1.81,1.93,5.48,5.48,0,0,1-3.27.86,5.71,5.71,0,0,1-3.3-.86,5.94,5.94,0,0,1-1.83-1.93v-2.1h2Z" transform="translate(-122.99 -106.05)"/><path class="cls-3" d="M257.54,483.24h10.08v1.66h-4v13h-2.1v-13h-4Z" transform="translate(-122.99 -106.05)"/><path class="cls-3" d="M278.85,497.94H277l-1.24-4.12H270.2L269,497.94H267.3v-1.28l4.18-13.42h3.17l4.2,13.42Zm-5.69-12.85h-.36l-2.12,7.07h4.6Z" transform="translate(-122.99 -106.05)"/><path class="cls-3" d="M287.71,491.43h.36l3.63-8.19h3v14.7h-2v-11.8h-.36l-3.71,8.27H287l-3.72-8.27H283v11.8h-2v-14.7h3Z" transform="translate(-122.99 -106.05)"/><path class="cls-3" d="M305.58,483.89a4.86,4.86,0,0,1,1.77,1.83V490a4.86,4.86,0,0,1-1.7,1.79,4.67,4.67,0,0,1-2.52.69h-3.28v5.46h-2.1v-14.7h5.38A4.76,4.76,0,0,1,305.58,483.89Zm-.29,5.42v-2.9a2.62,2.62,0,0,0-1.13-1.15,3.4,3.4,0,0,0-1.52-.36h-2.79v5.92h2.79a3.17,3.17,0,0,0,1.58-.4A2.61,2.61,0,0,0,305.29,489.31Z" transform="translate(-122.99 -106.05)"/><path class="cls-3" d="M311.36,494.87a3.24,3.24,0,0,0,1.13,1.18,4,4,0,0,0,3.89,0,3.24,3.24,0,0,0,1.13-1.18V493a2.94,2.94,0,0,0-.84-.92,5.16,5.16,0,0,0-1.63-.65l-1.45-.36a8.38,8.38,0,0,1-2.86-1.09,4.48,4.48,0,0,1-1.41-1.47v-2.81a5.49,5.49,0,0,1,1.81-1.93,5.73,5.73,0,0,1,3.32-.84,5.63,5.63,0,0,1,3.27.86,5.89,5.89,0,0,1,1.81,1.91v1.91h-2v-1.35a3.14,3.14,0,0,0-1.13-1.17,4,4,0,0,0-3.89,0,3,3,0,0,0-1.13,1.17v1.47a2.41,2.41,0,0,0,.84.87,6.32,6.32,0,0,0,1.7.67l1.39.38a9.27,9.27,0,0,1,2.85,1.11,4.84,4.84,0,0,1,1.39,1.47v3.19a5.68,5.68,0,0,1-1.81,1.93,5.48,5.48,0,0,1-3.27.86,5.71,5.71,0,0,1-3.3-.86,5.94,5.94,0,0,1-1.83-1.93v-2.1h2Z" transform="translate(-122.99 -106.05)"/><rect class="cls-6" x="1.5" y="522.32" width="338.75" height="239.55"/><path class="cls-3" d="M217.35,751.63a3.16,3.16,0,0,0,1.13,1.18,3.55,3.55,0,0,0,2,.5,3.51,3.51,0,0,0,1.93-.5,3.16,3.16,0,0,0,1.13-1.18v-1.84a2.86,2.86,0,0,0-.84-.93,5.23,5.23,0,0,0-1.64-.65l-1.45-.36a8.4,8.4,0,0,1-2.85-1.09,4.48,4.48,0,0,1-1.41-1.47v-2.81a5.66,5.66,0,0,1,1.81-1.93,5.73,5.73,0,0,1,3.32-.84,5.63,5.63,0,0,1,3.27.86,6,6,0,0,1,1.81,1.91v1.91h-2v-1.34a3.24,3.24,0,0,0-1.13-1.18,4,4,0,0,0-3.89,0,3.07,3.07,0,0,0-1.13,1.18v1.47a2.38,2.38,0,0,0,.84.86,6.18,6.18,0,0,0,1.7.67l1.38.38a9.24,9.24,0,0,1,2.86,1.11,4.84,4.84,0,0,1,1.39,1.47v3.19a5.45,5.45,0,0,1-5.08,2.79,5.52,5.52,0,0,1-5.13-2.79v-2.1h2Z" transform="translate(-122.99 -106.05)"/><path class="cls-3" d="M233.18,739.71a5.72,5.72,0,0,1,3.42.94,5.49,5.49,0,0,1,1.89,2.25v8.88A5.49,5.49,0,0,1,236.6,754a6.57,6.57,0,0,1-6.84,0,5.65,5.65,0,0,1-1.89-2.25V742.9a5.65,5.65,0,0,1,1.89-2.25A5.72,5.72,0,0,1,233.18,739.71Zm0,13.6a3.56,3.56,0,0,0,2-.56,3.05,3.05,0,0,0,1.17-1.41v-8a3.05,3.05,0,0,0-1.17-1.41,3.64,3.64,0,0,0-2-.56,3.59,3.59,0,0,0-2,.56,3,3,0,0,0-1.18,1.41v8a3,3,0,0,0,1.18,1.41A3.51,3.51,0,0,0,233.18,753.31Z" transform="translate(-122.99 -106.05)"/><path class="cls-3" d="M249.73,741.62h-6.34v4.77h6V748h-6v6.7h-2.1V740h8.44Z" transform="translate(-122.99 -106.05)"/><path class="cls-3" d="M251.07,740h10.08v1.66h-4v13h-2.1v-13h-4Z" transform="translate(-122.99 -106.05)"/><path class="cls-3" d="M276.76,754.7H275.1l-3.76-5.92H269v5.92h-2.1V740h5.52a4.69,4.69,0,0,1,2.44.65,4.91,4.91,0,0,1,1.76,1.83v3.8a4.53,4.53,0,0,1-1.26,1.51,4.19,4.19,0,0,1-1.83.86l3.22,4.77ZM272,747.12a3,3,0,0,0,1.57-.4,2.66,2.66,0,0,0,1.09-1.09v-2.46a2.64,2.64,0,0,0-1.09-1.13,3.37,3.37,0,0,0-1.57-.38h-3v5.46Z" transform="translate(-122.99 -106.05)"/><path class="cls-3" d="M288,754a5.61,5.61,0,0,1-3.42,1,5.49,5.49,0,0,1-3.4-1,5.36,5.36,0,0,1-1.89-2.25V740h2.09v11.3a2.91,2.91,0,0,0,1.16,1.41,3.64,3.64,0,0,0,2,.56,3.59,3.59,0,0,0,2-.56,3.13,3.13,0,0,0,1.18-1.41V740h2.1v11.78A5.65,5.65,0,0,1,288,754Z" transform="translate(-122.99 -106.05)"/><path class="cls-3" d="M300.8,740.7a5.36,5.36,0,0,1,1.64,1.78v2.86a3.75,3.75,0,0,1-.82,1,5.36,5.36,0,0,1-1.11.76,5.34,5.34,0,0,1,1.19.71,4.22,4.22,0,0,1,.93,1v3.4A5.09,5.09,0,0,1,301,754a4.66,4.66,0,0,1-2.65.74h-5.52V740h5.52A4.35,4.35,0,0,1,300.8,740.7Zm-.31,4.22v-1.75a2.83,2.83,0,0,0-2.59-1.51h-3v4.64h3.15a2.64,2.64,0,0,0,1.35-.38A3.11,3.11,0,0,0,300.49,744.92Zm.19,4.43a2.69,2.69,0,0,0-1.08-1,3,3,0,0,0-1.53-.4h-3.15V753h3a2.93,2.93,0,0,0,2.78-1.53Z" transform="translate(-122.99 -106.05)"/><path class="cls-3" d="M313.13,740.7a5.36,5.36,0,0,1,1.64,1.78v2.86a4,4,0,0,1-.82,1,5.16,5.16,0,0,1-1.12.76,5.39,5.39,0,0,1,1.2.71,4.16,4.16,0,0,1,.92,1v3.4a5,5,0,0,1-1.63,1.76,4.68,4.68,0,0,1-2.65.74h-5.52V740h5.52A4.37,4.37,0,0,1,313.13,740.7Zm-.32,4.22v-1.75a2.83,2.83,0,0,0-2.58-1.51h-3v4.64h3.15a2.58,2.58,0,0,0,1.34-.38A3,3,0,0,0,312.81,744.92Zm.19,4.43a2.66,2.66,0,0,0-1.07-1,3,3,0,0,0-1.53-.4h-3.15V753h3a2.9,2.9,0,0,0,2.77-1.53Z" transform="translate(-122.99 -106.05)"/><path class="cls-3" d="M326.13,741.66h-6.55v4.64h6.09V748h-6.09V753h6.71v1.66h-8.81V740h8.65Z" transform="translate(-122.99 -106.05)"/><path class="cls-3" d="M338.64,754.7H337l-3.75-5.92h-2.34v5.92h-2.1V740h5.53a4.63,4.63,0,0,1,2.43.65,4.86,4.86,0,0,1,1.77,1.83v3.8a4.53,4.53,0,0,1-1.26,1.51,4.3,4.3,0,0,1-1.83.86l3.21,4.77Zm-4.79-7.58a3.07,3.07,0,0,0,1.58-.4,2.72,2.72,0,0,0,1.09-1.09v-2.46a2.7,2.7,0,0,0-1.09-1.13,3.38,3.38,0,0,0-1.58-.38h-3v5.46Z" transform="translate(-122.99 -106.05)"/><path class="cls-3" d="M353.38,740.65a4.86,4.86,0,0,1,1.77,1.83v4.28a4.78,4.78,0,0,1-1.7,1.79,4.67,4.67,0,0,1-2.52.69h-3.28v5.46h-2.1V740h5.38A4.76,4.76,0,0,1,353.38,740.65Zm-.29,5.42v-2.9A2.62,2.62,0,0,0,352,742a3.53,3.53,0,0,0-1.52-.36h-2.79v5.92h2.79a3.07,3.07,0,0,0,1.58-.4A2.61,2.61,0,0,0,353.09,746.07Z" transform="translate(-122.99 -106.05)"/><path class="cls-3" d="M367.29,754.7h-1.85l-1.24-4.12h-5.56l-1.24,4.12h-1.66v-1.28L359.92,740h3.17l4.2,13.42Zm-5.69-12.85h-.36l-2.12,7.08h4.6Z" transform="translate(-122.99 -106.05)"/><path class="cls-3" d="M374.85,754.7h-5.4V740h5.4a5.54,5.54,0,0,1,3.17.84,4.87,4.87,0,0,1,1.76,2.06v8.9a4.87,4.87,0,0,1-1.76,2.06A5.46,5.46,0,0,1,374.85,754.7Zm-.36-13h-2.94V753h2.94a4,4,0,0,0,2-.5,2.78,2.78,0,0,0,1.15-1.28v-7.81a2.89,2.89,0,0,0-1.15-1.31A4.18,4.18,0,0,0,374.49,741.66Z" transform="translate(-122.99 -106.05)"/><rect class="cls-7" x="372.74" y="522.32" width="268.56" height="96.66"/><path class="cls-3" d="M597.41,682.9h-2.1V668.2h2.1Z" transform="translate(-122.99 -106.05)"/><path class="cls-3" d="M609,679.62h.36V668.2h1.95v14.7h-2.65l-5.85-11.42h-.36V682.9h-2V668.2h2.65Z" transform="translate(-122.99 -106.05)"/><path class="cls-3" d="M624.2,682.9h-1.51L617.93,676l-1.49,1.6v5.31h-2.1V668.2h2.1v6.49h.31l6-6.49H624v1.28l-4.75,5.06,4.91,7.08Z" transform="translate(-122.99 -106.05)"/><path class="cls-3" d="M638.55,668.85a4.91,4.91,0,0,1,1.76,1.83V675a4.78,4.78,0,0,1-1.7,1.79,4.63,4.63,0,0,1-2.52.69h-3.27v5.46h-2.1V668.2h5.37A4.82,4.82,0,0,1,638.55,668.85Zm-.3,5.42v-2.9a2.62,2.62,0,0,0-1.13-1.15,3.49,3.49,0,0,0-1.51-.36h-2.79v5.92h2.79a3.14,3.14,0,0,0,1.57-.4A2.61,2.61,0,0,0,638.25,674.27Z" transform="translate(-122.99 -106.05)"/><path class="cls-3" d="M652.45,682.9H650.6l-1.24-4.12H643.8l-1.24,4.12H640.9v-1.28l4.18-13.42h3.17l4.2,13.42Zm-5.69-12.85h-.36l-2.12,7.07h4.6Z" transform="translate(-122.99 -106.05)"/><path class="cls-3" d="M660,682.9h-5.4V668.2H660a5.46,5.46,0,0,1,3.17.84,4.8,4.8,0,0,1,1.76,2.06V680a4.8,4.8,0,0,1-1.76,2.06A5.46,5.46,0,0,1,660,682.9Zm-.36-13h-2.94v11.38h2.94a4,4,0,0,0,2-.5,2.75,2.75,0,0,0,1.15-1.29v-7.81a2.92,2.92,0,0,0-1.15-1.3A4.18,4.18,0,0,0,659.65,669.86Z" transform="translate(-122.99 -106.05)"/><path class="cls-3" d="M549.29,910.63a3.24,3.24,0,0,0,1.13,1.18,4,4,0,0,0,3.89,0,3.24,3.24,0,0,0,1.13-1.18v-1.84a2.86,2.86,0,0,0-.84-.93,5.23,5.23,0,0,0-1.64-.65l-1.45-.36a8.4,8.4,0,0,1-2.85-1.09,4.48,4.48,0,0,1-1.41-1.47v-2.81a5.49,5.49,0,0,1,1.81-1.93,5.73,5.73,0,0,1,3.32-.84,5.63,5.63,0,0,1,3.27.86,6,6,0,0,1,1.81,1.91v1.91h-2v-1.34a3.16,3.16,0,0,0-1.13-1.18,3.51,3.51,0,0,0-1.93-.5,3.55,3.55,0,0,0-2,.5,3,3,0,0,0-1.13,1.18v1.47a2.38,2.38,0,0,0,.84.86,6.32,6.32,0,0,0,1.7.67l1.39.38a9.27,9.27,0,0,1,2.85,1.11,4.84,4.84,0,0,1,1.39,1.47v3.19a5.68,5.68,0,0,1-1.81,1.93,5.48,5.48,0,0,1-3.27.86,5.71,5.71,0,0,1-3.3-.86,5.94,5.94,0,0,1-1.83-1.93v-2.1h2Z" transform="translate(-122.99 -106.05)"/><path class="cls-3" d="M568.52,913.07a5.75,5.75,0,0,1-3.4.92,5.51,5.51,0,0,1-5.31-3.21V901.9a5.65,5.65,0,0,1,1.89-2.25,6.68,6.68,0,0,1,6.8,0,5.64,5.64,0,0,1,1.87,2.14v2.63h-2v-2.06a3,3,0,0,0-1.17-1.41,3.56,3.56,0,0,0-2-.56,3.51,3.51,0,0,0-2,.56,3.06,3.06,0,0,0-1.2,1.41v8a3,3,0,0,0,1.18,1.41,3.59,3.59,0,0,0,2,.56,3.64,3.64,0,0,0,2-.56,3.18,3.18,0,0,0,1.17-1.41v-2.27h2v2.84A5.53,5.53,0,0,1,568.52,913.07Z" transform="translate(-122.99 -106.05)"/><path class="cls-3" d="M583,913.7h-1.66l-3.76-5.92H575.2v5.92h-2.1V899h5.53a4.63,4.63,0,0,1,2.43.65,4.84,4.84,0,0,1,1.76,1.83v3.8a4.62,4.62,0,0,1-3.08,2.37l3.21,4.77Zm-4.79-7.58a3.07,3.07,0,0,0,1.58-.4,2.72,2.72,0,0,0,1.09-1.09v-2.46a2.7,2.7,0,0,0-1.09-1.13,3.41,3.41,0,0,0-1.58-.38h-3v5.46Z" transform="translate(-122.99 -106.05)"/><path class="cls-3" d="M594.19,900.66h-6.56v4.64h6.09V907h-6.09V912h6.72v1.66h-8.81V899h8.65Z" transform="translate(-122.99 -106.05)"/><path class="cls-3" d="M598,899l2.29,12h.35l3-12h2.18l3,12h.36l2.27-12h2v1.28l-2.73,13.42h-3l-2.84-11h-.33l-2.81,11h-2.9l-2.77-13.42V899Z" transform="translate(-122.99 -106.05)"/><path class="cls-3" d="M617.22,910.63a3.19,3.19,0,0,0,1.14,1.18,4,4,0,0,0,3.88,0,3.27,3.27,0,0,0,1.14-1.18v-1.84a3,3,0,0,0-.84-.93,5.34,5.34,0,0,0-1.64-.65l-1.45-.36a8.47,8.47,0,0,1-2.86-1.09,4.35,4.35,0,0,1-1.4-1.47v-2.81a5.37,5.37,0,0,1,1.8-1.93,5.73,5.73,0,0,1,3.32-.84,5.66,5.66,0,0,1,3.28.86,6.07,6.07,0,0,1,1.8,1.91v1.91h-2v-1.34a3.19,3.19,0,0,0-1.14-1.18,4,4,0,0,0-3.88,0,3,3,0,0,0-1.14,1.18v1.47a2.47,2.47,0,0,0,.84.86,6.47,6.47,0,0,0,1.7.67l1.39.38a9.35,9.35,0,0,1,2.86,1.11,4.81,4.81,0,0,1,1.38,1.47v3.19a5.74,5.74,0,0,1-1.8,1.93,5.51,5.51,0,0,1-3.28.86,5.73,5.73,0,0,1-3.3-.86,5.9,5.9,0,0,1-1.82-1.93v-2.1h2Z" transform="translate(-122.99 -106.05)"/><path class="cls-3" d="M642.57,913.7h-1.85l-1.24-4.12h-5.56l-1.24,4.12H631v-1.28L635.2,899h3.17l4.2,13.42Zm-5.69-12.85h-.36l-2.12,7.07H639Z" transform="translate(-122.99 -106.05)"/><path class="cls-3" d="M653.24,910.42h.35V899h2v14.7H652.9L647,902.28h-.35V913.7h-2V899h2.65Z" transform="translate(-122.99 -106.05)"/><path class="cls-3" d="M664,913.7h-5.4V899H664a5.46,5.46,0,0,1,3.17.84,4.8,4.8,0,0,1,1.76,2.06v8.9a4.8,4.8,0,0,1-1.76,2.06A5.46,5.46,0,0,1,664,913.7Zm-.36-13h-2.94V912h2.94a4,4,0,0,0,2-.5,2.7,2.7,0,0,0,1.15-1.29v-7.81a2.86,2.86,0,0,0-1.15-1.3A4.18,4.18,0,0,0,663.65,900.66Z" transform="translate(-122.99 -106.05)"/><path class="cls-3" d="M684.59,910.42H685V899h1.95v14.7h-2.65l-5.85-11.42H678V913.7h-1.95V899h2.64Z" transform="translate(-122.99 -106.05)"/><path class="cls-3" d="M700.61,913.7h-1.85l-1.23-4.12H692l-1.24,4.12h-1.66v-1.28L693.24,899h3.17l4.2,13.42Zm-5.69-12.85h-.36l-2.12,7.07H697Z" transform="translate(-122.99 -106.05)"/><path class="cls-3" d="M704.88,913.7h-2.1V899h2.1Z" transform="translate(-122.99 -106.05)"/><path class="cls-3" d="M710,912h5.42v1.66h-7.52V899H710Z" transform="translate(-122.99 -106.05)"/><path class="cls-3" d="M719.05,910.63a3.24,3.24,0,0,0,1.13,1.18,4,4,0,0,0,3.89,0,3.24,3.24,0,0,0,1.13-1.18v-1.84a2.86,2.86,0,0,0-.84-.93,5.16,5.16,0,0,0-1.63-.65l-1.45-.36a8.38,8.38,0,0,1-2.86-1.09,4.48,4.48,0,0,1-1.41-1.47v-2.81a5.49,5.49,0,0,1,1.81-1.93,5.73,5.73,0,0,1,3.32-.84,5.63,5.63,0,0,1,3.27.86,6,6,0,0,1,1.81,1.91v1.91h-2v-1.34a3.16,3.16,0,0,0-1.13-1.18,3.51,3.51,0,0,0-1.93-.5,3.55,3.55,0,0,0-2,.5,3,3,0,0,0-1.13,1.18v1.47a2.38,2.38,0,0,0,.84.86,6.32,6.32,0,0,0,1.7.67l1.39.38a9.27,9.27,0,0,1,2.85,1.11,4.84,4.84,0,0,1,1.39,1.47v3.19a5.68,5.68,0,0,1-1.81,1.93,5.48,5.48,0,0,1-3.27.86,5.71,5.71,0,0,1-3.3-.86A5.94,5.94,0,0,1,717,911.2v-2.1h2Z" transform="translate(-122.99 -106.05)"/><path class="cls-3" d="M135.54,324.7H133.7l-1.24-4.12h-5.57l-1.24,4.12H124v-1.28L128.17,310h3.17l4.2,13.42Zm-5.69-12.85h-.35l-2.12,7.08H132Z" transform="translate(-122.99 -106.05)"/><path class="cls-3" d="M139.18,321.74a2.6,2.6,0,0,0,1.09,1.18,3.41,3.41,0,0,0,1.78.48,3.34,3.34,0,0,0,1.79-.48,2.79,2.79,0,0,0,1.07-1.18v-2.25a2.7,2.7,0,0,0-1-1.22,3.47,3.47,0,0,0-1.81-.48h-1.63v-1.53h1.49a3.23,3.23,0,0,0,1.7-.44,2.78,2.78,0,0,0,1-1v-2.18a2.78,2.78,0,0,0-1-1,3.43,3.43,0,0,0-1.7-.42,3.35,3.35,0,0,0-1.68.42,3,3,0,0,0-1,1v1.41h-1.85V312a5.12,5.12,0,0,1,1.64-1.54,5.47,5.47,0,0,1,2.94-.73,5.63,5.63,0,0,1,2.24.4,5.86,5.86,0,0,1,1.62,1,4.37,4.37,0,0,1,.88,1.1v3a4.18,4.18,0,0,1-.9,1,4.32,4.32,0,0,1-1.45.8,4.8,4.8,0,0,1,1.64.93,3.77,3.77,0,0,1,1,1.26v3.08a3.88,3.88,0,0,1-.92,1.26,5,5,0,0,1-1.64,1.07,5.51,5.51,0,0,1-2.29.44,5.63,5.63,0,0,1-2.24-.42,5.09,5.09,0,0,1-1.6-1,4,4,0,0,1-.88-1.14v-2h1.85Z" transform="translate(-122.99 -106.05)"/><path class="cls-3" d="M155.6,321.63a3.16,3.16,0,0,0,1.13,1.18,3.55,3.55,0,0,0,2,.5,3.51,3.51,0,0,0,1.93-.5,3.16,3.16,0,0,0,1.13-1.18v-1.84a2.86,2.86,0,0,0-.84-.93,5.23,5.23,0,0,0-1.64-.65l-1.44-.36a8.38,8.38,0,0,1-2.86-1.09,4.48,4.48,0,0,1-1.41-1.47v-2.81a5.66,5.66,0,0,1,1.81-1.93,5.73,5.73,0,0,1,3.32-.84,5.63,5.63,0,0,1,3.27.86,6,6,0,0,1,1.81,1.91v1.91h-2v-1.34a3.24,3.24,0,0,0-1.13-1.18,4,4,0,0,0-3.89,0,3.07,3.07,0,0,0-1.13,1.18v1.47a2.38,2.38,0,0,0,.84.86,6.32,6.32,0,0,0,1.7.67l1.39.38a9.27,9.27,0,0,1,2.85,1.11,4.84,4.84,0,0,1,1.39,1.47v3.19a5.45,5.45,0,0,1-5.08,2.79,5.52,5.52,0,0,1-5.13-2.79v-2.1h2Z" transform="translate(-122.99 -106.05)"/><path class="cls-3" d="M168.49,324.7h-2.1V310h2.1Z" transform="translate(-122.99 -106.05)"/><path class="cls-3" d="M178.22,311.66h-7.14V310h9.8v1.39l-7.28,11.36V323h7.28v1.66h-9.95v-1.39L178.22,312Z" transform="translate(-122.99 -106.05)"/><path class="cls-3" d="M192,311.66h-6.55v4.64h6.09V318h-6.09V323h6.72v1.66h-8.82V310H192Z" transform="translate(-122.99 -106.05)"/><path class="cls-3" d="M131.22,157.46l-5.83-41.62v-8.78h13.39l1.87,28.15h1.23l3.74-28.15h10.73l3.38,28.15h1.15l2.31-28.15h12.67v8.78L170,157.46H154.12l-3-19.73h-1.15l-3.17,19.73Z" transform="translate(-122.99 -106.05)"/><path class="cls-3" d="M178.81,157.46v-50.4h13.54v19h5.47v-19h13.54v50.4H197.82V137.08h-5.47v20.38Z" transform="translate(-122.99 -106.05)"/><path class="cls-3" d="M241.38,107.06l7.27,41.62v8.78H235.76l-1.15-10.08h-7.56l-1.22,10.08H213.94v-8.78l7.35-41.62Zm-13,29.3h5l-1.8-15.91h-1.23Z" transform="translate(-122.99 -106.05)"/><path class="cls-3" d="M254.19,157.46V118.08H246v-11h30v11h-8.21v39.38Z" transform="translate(-122.99 -106.05)"/><path class="cls-3" d="M296.67,157.46V139.24l-9.5-23.4v-8.78h12.31l3.67,14.9h1.16l3.6-14.9h11.8v8.78l-9.57,23.55v18.07Z" transform="translate(-122.99 -106.05)"/><path class="cls-3" d="M322.09,114.33c1.37-3.46,6.69-8.28,16.27-8.28s14.91,4.9,16.27,8.28v35.86c-1.36,3.38-6.55,8.28-16.27,8.28s-14.9-4.82-16.27-8.28Zm19,4.54a3.33,3.33,0,0,0-5.48,0v26.86a3.44,3.44,0,0,0,5.48,0Z" transform="translate(-122.99 -106.05)"/><path class="cls-3" d="M357.73,107.06h13.53v38.52a2.69,2.69,0,0,0,2.67,1.37,2.78,2.78,0,0,0,2.73-1.37V107.06H390.2v43.06c-1.44,3.53-6.55,8.28-16.27,8.28s-14.76-4.75-16.2-8.28Z" transform="translate(-122.99 -106.05)"/><path class="cls-3" d="M405,157.46v-50.4h14l6.91,22h1.15v-22h12.75v50.4h-14l-6.91-22.1h-1.16v22.1Z" transform="translate(-122.99 -106.05)"/><path class="cls-3" d="M443.12,157.46v-50.4h26.57v11h-13v8.35H469v10.73H456.65v9.29H469.9v11Z" transform="translate(-122.99 -106.05)"/><path class="cls-3" d="M472.78,157.46v-50.4h26.57v11h-13v8.35H498.7v10.73H486.32v9.29h13.25v11Z" transform="translate(-122.99 -106.05)"/><path class="cls-3" d="M502.44,107.06h19.44c6.56,0,11.38,3.17,13,7.2v36c-1.66,3.82-6.19,7.2-13,7.2H502.44Zm16.2,39.46a2.79,2.79,0,0,0,2.74-1.44V119.44a2.73,2.73,0,0,0-2.74-1.44H516v28.52Z" transform="translate(-122.99 -106.05)"/><path class="cls-3" d="M555.87,157.46V118.08h-8.21v-11h30v11H569.4v39.38Z" transform="translate(-122.99 -106.05)"/><path class="cls-3" d="M579.7,114.33c1.37-3.46,6.7-8.28,16.27-8.28s14.91,4.9,16.28,8.28v35.86c-1.37,3.38-6.56,8.28-16.28,8.28s-14.9-4.82-16.27-8.28Zm19,4.54a3.32,3.32,0,0,0-5.47,0v26.86a3.43,3.43,0,0,0,5.47,0Z" transform="translate(-122.99 -106.05)"/><path class="cls-3" d="M626.86,107.06H646.3c6.55,0,11.38,3.17,13,7.2v36c-1.65,3.82-6.19,7.2-13,7.2H626.86Zm16.2,39.46a2.78,2.78,0,0,0,2.73-1.44V119.44a2.7,2.7,0,0,0-2.73-1.44h-2.67v28.52Z" transform="translate(-122.99 -106.05)"/><path class="cls-3" d="M662.28,114.33c1.37-3.46,6.7-8.28,16.27-8.28,9.72,0,14.91,4.9,16.28,8.28v35.86c-1.37,3.38-6.56,8.28-16.28,8.28-9.57,0-14.9-4.82-16.27-8.28Zm19,4.54a3.32,3.32,0,0,0-5.47,0v26.86a3.43,3.43,0,0,0,5.47,0Z" transform="translate(-122.99 -106.05)"/><path class="cls-3" d="M697.42,124.7c1.08-1.66,3.09-3,6.48-3s5.32,1.36,6.4,3v7.63c-.93,1.66-3.16,3-6.4,3s-5.55-1.37-6.48-3Zm0,22.75c1.08-1.65,3.09-3,6.48-3s5.32,1.37,6.4,3v7.64c-.93,1.65-3.16,3-6.4,3s-5.55-1.37-6.48-3Z" transform="translate(-122.99 -106.05)"/></g></svg>